<?xml version="1.0" encoding="utf-8"?>
<!-- Generator: Adobe Illustrator 26.0.0, SVG Export Plug-In . SVG Version: 6.00 Build 0)  -->
<svg version="1.1" id="Capa_1" xmlns="http://www.w3.org/2000/svg" xmlns:xlink="http://www.w3.org/1999/xlink" x="0px" y="0px"
	 viewBox="0 0 43.2 58.2" style="enable-background:new 0 0 43.2 58.2;" xml:space="preserve">
<style type="text/css">
	.st0{fill:#020304;}
	.st1{fill:#97C221;}
	.st2{fill:#BED35C;}
	.st3{fill:#839F29;}
	.st4{fill:none;stroke:#020304;stroke-width:0.917;stroke-linecap:round;stroke-linejoin:round;stroke-miterlimit:10;}
	.st5{fill:#FFFEFE;}
</style>
<g>
	<path class="st0" d="M36.4,46.7c0,0.3-0.1,0.6-0.2,0.8c-0.3,0.7-0.9,1.3-1.7,1.6l-6.2,2.4c-1.6,0.6-3.4-0.1-4-1.5
		c-0.3-0.7-0.3-1.5-0.1-2.2c0.3-0.7,0.9-1.3,1.7-1.6l6.2-2.4c1.6-0.6,3.4,0.1,4,1.5l0,0C36.4,45.8,36.5,46.2,36.4,46.7z"/>
	<path class="st0" d="M6.3,47.4c-0.1-0.4,0-0.9,0.1-1.4l0,0c0.5-1.5,2.3-2.3,3.9-1.9l6.4,1.8c0.8,0.2,1.5,0.8,1.8,1.5
		c0.3,0.7,0.4,1.4,0.1,2.2c-0.5,1.5-2.3,2.3-3.9,1.9l-6.4-1.8c-0.8-0.2-1.5-0.8-1.8-1.5C6.4,48,6.3,47.7,6.3,47.4z"/>
	<path class="st1" d="M7.6,46.5c-0.1,0.4-0.1,0.8,0.1,1.2c0.2,0.4,0.6,0.7,1.1,0.9l6.4,1.8c1,0.3,2.1-0.2,2.4-1.1
		c0.1-0.4,0.1-0.8-0.1-1.2c-0.2-0.4-0.6-0.7-1.1-0.9L10,45.4C9,45.1,7.9,45.6,7.6,46.5L7.6,46.5z"/>
	<path class="st1" d="M25.2,48.7c0,0.2,0,0.5,0.1,0.7c0.4,0.9,1.5,1.3,2.5,0.9l6.2-2.4c0.5-0.2,0.8-0.5,1-0.9c0.2-0.4,0.1-0.8,0-1.2
		l0,0c-0.4-0.9-1.5-1.3-2.5-0.9l-6.2,2.4c-0.5,0.2-0.8,0.5-1,0.9C25.3,48.4,25.2,48.5,25.2,48.7z"/>
	<path class="st0" d="M27.4,58.2c-1.3,0-2.4-1.1-2.4-2.6v-1.1h-6.6v0.8c0,1.4-1.1,2.6-2.4,2.6c-1.3,0-2.4-1.1-2.4-2.6v-2.7
		c0,0,0,0,0,0c-0.5-0.8-0.8-1.7-0.8-2.6V47c0-2.6,1.9-4.6,4.3-4.6h8.7c2.4,0,4.3,2.1,4.3,4.6v2.9c0,0.8-0.2,1.6-0.5,2.3
		c0.1,0.2,0.1,0.5,0.1,0.7v2.7C29.8,57,28.7,58.2,27.4,58.2z"/>
	<path class="st1" d="M17.2,53.3h9v2.3c0,0.7,0.5,1.3,1.2,1.3c0.6,0,1.2-0.6,1.2-1.3v-2.7c0-0.2,0-0.4-0.1-0.6L28.3,52l0.2-0.3
		c0.3-0.6,0.5-1.2,0.5-1.9V47c0-1.9-1.4-3.4-3.1-3.4h-8.7c-1.7,0-3.1,1.5-3.1,3.4v2.9c0,0.8,0.2,1.5,0.7,2.1l0.1,0.2l0,0.2
		c0,0,0,0.1,0,0.1v2.7c0,0.7,0.5,1.3,1.2,1.3c0.6,0,1.2-0.6,1.2-1.3V53.3z"/>
	<ellipse class="st0" cx="21.6" cy="23.2" rx="21.6" ry="23.2"/>
	<g>
		<g>
			<path class="st1" d="M20.8,44.9c0.3,0,0.5,0,0.8,0c0.3,0,0.6,0,0.9,0c-0.3,0-0.5,0-0.8-0.1C21.5,44.9,21.1,44.9,20.8,44.9z"/>
			<path class="st1" d="M22.5,1.4c-0.3,0-0.6,0-0.9,0c-0.3,0-0.5,0-0.8,0c0.3,0,0.6,0,0.9,0.1C22,1.4,22.3,1.4,22.5,1.4z"/>
			<g>
				<path class="st2" d="M3.1,23.2c0-11.4,8.2-20.8,18.6-21.7c-0.3,0-0.6,0-0.9-0.1C10,1.8,1.3,11.4,1.3,23.2
					c0,11.8,8.7,21.3,19.6,21.8c0.3,0,0.6,0,0.9-0.1C11.3,43.9,3.1,34.6,3.1,23.2z"/>
			</g>
			<g>
				<path class="st3" d="M41.9,23.2c0-11.7-8.6-21.2-19.4-21.8c-0.3,0-0.5,0-0.8,0.1c10.4,0.9,18.6,10.3,18.6,21.7
					c0,11.4-8.2,20.8-18.6,21.7c0.3,0,0.5,0,0.8,0.1C33.3,44.4,41.9,34.9,41.9,23.2z"/>
			</g>
			<ellipse class="st1" cx="21.8" cy="23.2" rx="18.6" ry="21.7"/>
		</g>
	</g>
	<path class="st4" d="M24.2,37.5c0,0-0.6-2.1-2.5-2.1s-2.8,2.2-2.8,2.2"/>
	<ellipse transform="matrix(0.5 -0.866 0.866 0.5 8.3029 27.9934)" class="st5" cx="28.4" cy="6.8" rx="1.5" ry="5.1"/>
	<circle class="st5" cx="32.4" cy="12.3" r="0.9"/>
	<g>
		<path class="st0" d="M37.4,15.5c-0.6-0.3-1.2-0.5-1.8-0.6l-9.7,10c-0.3,2.7,0.6,5.1,2.5,6.2c3,1.7,7.4-0.4,9.9-4.7
			C40.8,22.1,40.4,17.2,37.4,15.5z"/>
		<path class="st0" d="M7.2,15.4c-3,1.7-3.4,6.6-0.9,10.9c2.5,4.3,6.9,6.4,9.9,4.7c1.9-1.1,2.8-3.5,2.5-6.2L8.1,15
			C7.8,15.1,7.5,15.2,7.2,15.4z"/>
	</g>
</g>
</svg>
