<?xml version="1.0" encoding="utf-8"?>
<!-- Generator: Adobe Illustrator 26.0.0, SVG Export Plug-In . SVG Version: 6.00 Build 0)  -->
<svg version="1.1" id="Capa_1" xmlns="http://www.w3.org/2000/svg" xmlns:xlink="http://www.w3.org/1999/xlink" x="0px" y="0px"
	 viewBox="0 0 105.3 109.5" style="enable-background:new 0 0 105.3 109.5;" xml:space="preserve">
<style type="text/css">
	.st0{fill:#DFE5E9;}
	.st1{fill:#ABCADC;}
	.st2{fill:none;stroke:#005885;stroke-width:2;stroke-miterlimit:10;}
	.st3{fill:#005885;}
	.st4{fill:#A9C8DB;}
	.st5{fill:#E89122;}
	.st6{fill:#F9B140;}
	.st7{fill:#DD7A27;}
	.st8{fill:#F4ED86;}
	.st9{fill:#E94164;}
	.st10{fill:#ED6F74;}
	.st11{fill:#020203;}
	.st12{fill:#F6AA79;}
	.st13{fill:#F9BD8F;}
	.st14{opacity:0.45;fill:#FFFFFF;}
	.st15{fill:#0D76BB;}
</style>
<g>
	<g>
		<path class="st0" d="M26.9,59.5l3.1,3.1l0.1,0.4c-1,2-2.2,4.5-3.8,6.2L20,65.6c2.5-0.7,4.5-2,5.8-3.9C26.3,61,26.6,60.3,26.9,59.5
			z"/>
		<path class="st0" d="M15.9,57.2c1.2-2.1,1.8-4.4,1.9-6.6l9.1,8.9c-0.3,0.8-0.6,1.5-1.1,2.1c-1.3,1.9-3.3,3.2-5.8,3.9l-7.3-4.4
			C13.9,60.1,15,58.7,15.9,57.2z"/>
		<path class="st1" d="M12.7,61.2l-4.9-2.9c0,0-6.9,0.4-7.7-3.3c0.7,0.4,1.4,0.8,2.3,0.9c3.9,0.6,7.6-2.9,8.4-7.8
			c0.3-1.6,0.1-3.2-0.3-4.7c0.2,0.2,0.3,0.3,0.3,0.3l0.3,0.3c0,0,1.9,1.8,4.3,4.2l2.4,2.3c-0.1,2.2-0.7,4.5-1.9,6.6
			C15,58.7,13.9,60.1,12.7,61.2z"/>
		<path class="st0" d="M10.8,48.1C10,53,6.3,56.5,2.4,55.9c-0.8-0.1-1.6-0.4-2.3-0.9C0.1,54.7,0,54.5,0,54.2
			C0,49.8-0.3,46.1,3.3,42.5c3-3,6.3-0.1,7.3,0.9C10.9,44.8,11.1,46.4,10.8,48.1z"/>
		<path class="st0" d="M11,44.2l-0.1-0.4c0,0,4.6-1.8,4.7,1.4c0,1.2,0,2.1-0.2,2.9c-0.3,1.4-0.7,2.3-1,2.5c-0.5,0.4-1.7,0.9-2-0.4
			L11,44.2z"/>
		<path class="st1" d="M30.1,63l1.8,9.6l-5.7-3.4C27.8,67.6,29.1,65,30.1,63z"/>
		<path class="st2" d="M20,65.6"/>
		<path class="st2" d="M30.1,63"/>
		<path class="st3" d="M20.7,65.9c1.5-0.7,4.6-2.4,5.6-3.9c0.3-0.5,0.8-1.2,1.1-2c-0.2-0.2-0.5-0.6-0.9-0.9
			c-0.3,0.7-0.8,1.7-1.2,2.2c-1,1.4-4.4,3.2-5.8,3.9C19.9,65.5,20.1,65.7,20.7,65.9z"/>
	</g>
	<g>
		<g>
			<path class="st1" d="M24.3,45.5c5.2,6.1,14.7,10,29.3,10c15,0,24.5-3.9,29.7-10.6c-6.2,4.7-16,7.4-29.9,7.4
				C40.1,52.3,30.6,49.7,24.3,45.5z"/>
			<path class="st0" d="M53.6,0c-19,0-34.5,14.5-34.5,30.5c0,5.7,1.6,10.8,5.2,15c6.3,4.2,15.7,6.8,29,6.8c13.9,0,23.7-2.7,29.9-7.4
				c3.3-4.3,4.8-9.6,4.8-15.9C88.1,13,72.7,0,53.6,0z"/>
		</g>
		<path class="st4" d="M82.5,28.3c0.6,17.6-28.4,14.4-28.4,14.4s-28.4,4.1-28.4-14.4c0-10.5,12.7-19,28.4-19S82.5,17.8,82.5,28.3z"
			/>
		<path class="st3" d="M82.5,27.4c0.6,17.6-12.7,14.4-28.4,14.4s-28.4,4-28.4-14.4c0-10.5,12.7-19,28.4-19S82.5,16.8,82.5,27.4z"/>
		<g>
			<path class="st5" d="M16.5,37.3c-0.6,0-1.1-0.1-1.7-0.2c0.5,2.5,0.9,4.3,0.9,4.3c3.3,1.4,8.6,1.4,8.6,1.4V32.5
				C22.5,35.4,19.7,37.3,16.5,37.3z"/>
			<path class="st6" d="M24.3,32.5V17.2c-6.4,2.5-11,6.1-11,6.1c-0.4,3.1,0.6,9.5,1.5,13.8c0.6,0.1,1.1,0.2,1.7,0.2
				C19.7,37.3,22.5,35.4,24.3,32.5z"/>
		</g>
		<g>
			<path class="st5" d="M93.8,24.7c-0.3-1-0.8-2.3-1.3-3.7c-1.8,2.3-4.4,3.8-7.5,4.1l2.8,6.7c0,0,0.5-0.3,1.3-0.7
				c0-0.3-0.1-0.5-0.1-0.8C89,27.8,91,25.6,93.8,24.7z"/>
			<path class="st6" d="M92.5,20.9c-1.4-3.8-3.2-8.1-3.2-8.1S84.8,9.3,79,10.4L85,25C88.1,24.8,90.7,23.2,92.5,20.9z"/>
			<path class="st7" d="M94.1,25.7c-0.1-0.3-0.2-0.7-0.3-1.1c-2.8,1-4.8,3.1-4.8,5.6c0,0.3,0,0.5,0.1,0.8
				C91.1,30,94.5,27.8,94.1,25.7z"/>
			<path class="st8" d="M88.7,16.7c0,0-5.7-2.1-2.6-4C88.1,11.7,88.7,16.7,88.7,16.7z"/>
		</g>
		<path class="st3" d="M42.7,24c-0.8,3.1-3.2,5.1-5.4,4.6c-3-0.7-3.3-3.5-2.5-6.6s3.2-5.1,5.4-4.6C42.4,18,43.5,20.9,42.7,24z"/>
		<g>
			<path class="st3" d="M55.7,31.7c1.1-0.4,2.2-0.6,3.3-0.6c0.1-0.6,0.1-1.2,0.1-1.9c0-1-0.1-2-0.3-2.9l-11,0.7
				c-0.1,0.7-0.1,1.4-0.1,2.2c0,3.2,0.9,6,2.3,7.7C50.3,34.9,52.6,32.8,55.7,31.7z"/>
			<path class="st9" d="M53.3,38.9c2.8,0,5.1-3.4,5.6-7.8c-1,0-2.1,0.2-3.3,0.6c-3.1,1.1-5.3,3.2-5.8,5.3
				C50.9,38.2,52.1,38.9,53.3,38.9z"/>
		</g>
		<circle class="st10" cx="35.7" cy="34.3" r="3"/>
		<circle class="st10" cx="74.3" cy="33.5" r="3"/>
		<path class="st11" d="M70.9,25.4c-0.1,0-0.3,0-0.4-0.1c-3.1-2-11-2.4-11.1-2.4c-0.3,0-0.6-0.3-0.6-0.6c0-0.3,0.2-0.6,0.5-0.7l10-3
			c0.4-0.1,0.7,0.1,0.9,0.5c0.1,0.4-0.1,0.7-0.5,0.9l-6.6,2c2.7,0.4,6.2,1,8.2,2.3c0.3,0.2,0.4,0.6,0.2,1
			C71.3,25.2,71.1,25.4,70.9,25.4z"/>
		<g>
			<g>
				<g>
					<path class="st12" d="M81.4,27.9c0-1.5-0.3-2.9-0.7-4.3c-1,9.6-14.3,17.1-30.6,17.1c-8.7,0-16.6-2.2-22.2-5.7
						c3.1,9.5,13.7,6.6,26.3,6.6C69.2,41.7,81.9,45,81.4,27.9z"/>
					<path class="st13" d="M80.6,23.6C77.8,15.4,67,9.2,54.1,9.2c-15,0-27.2,8.3-27.2,18.6c0,3,0.3,5.3,1,7.2
						c5.6,3.5,13.5,5.7,22.2,5.7C66.3,40.7,79.6,33.1,80.6,23.6z"/>
				</g>
			</g>
			<path class="st11" d="M54.4,32.6c-6.5,0-7.6,3.2-7.6,3.4c-0.1,0.4,0.1,0.8,0.5,0.9c0.4,0.1,0.7-0.1,0.9-0.5
				c0-0.1,0.9-2.4,6.3-2.4c0.1,0,0.1,0,0.2,0c5.4,0.1,5.5,2.2,5.5,2.2c0,0.4,0.3,0.6,0.7,0.7c0.4,0,0.7-0.3,0.7-0.7c0-0.1,0-1-1-1.9
				c-1.2-1.1-3.1-1.6-5.9-1.6C54.5,32.6,54.5,32.6,54.4,32.6z"/>
			<circle class="st10" cx="35.8" cy="32.6" r="3"/>
			<circle class="st10" cx="74.6" cy="31.8" r="3"/>
			<g>
				<path class="st3" d="M45.1,22.4c-0.4,3.2-2.5,5.6-4.7,5.3c-3.1-0.3-3.8-3-3.4-6.2c0.4-3.2,2.5-5.6,4.7-5.3
					C43.9,16.4,45.4,19.2,45.1,22.4z"/>
			</g>
			<g>
				<path class="st3" d="M62.6,22.4c0.4,3.2,2.5,5.6,4.7,5.3c3.1-0.3,3.8-3,3.4-6.2s-2.5-5.6-4.7-5.3S62.3,19.2,62.6,22.4z"/>
			</g>
		</g>
		<path class="st14" d="M79.4,26.5c0.5,9.3-3.5,13.5-9.7,13.6c3.5-17.5-10.2-28.8-9-29C70.8,11.2,79.4,18.1,79.4,26.5z"/>
		<path class="st14" d="M27.7,27c-0.4,3.5,0.7,5,1.6,5c0.9,0,0.1-1.7,0.8-5.5c0.7-3.8,0.7-5.5,0.7-5.5C28.7,20.9,28.1,23.5,27.7,27z
			"/>
	</g>
	<g>
		<path class="st0" d="M78.5,59.5l-3.1,3.1L75.3,63c1,2,2.2,4.5,3.8,6.2l6.2-3.7c-2.5-0.7-4.5-2-5.8-3.9
			C79.1,61,78.7,60.3,78.5,59.5z"/>
		<path class="st0" d="M89.5,57.2c-1.2-2.1-1.8-4.4-1.9-6.6l-9.1,8.9c0.3,0.8,0.6,1.5,1.1,2.1c1.3,1.9,3.3,3.2,5.8,3.9l7.3-4.4
			C91.4,60.1,90.3,58.7,89.5,57.2z"/>
		<path class="st1" d="M92.6,61.2l4.9-2.9c0,0,6.9,0.4,7.7-3.3c-0.7,0.4-1.4,0.8-2.3,0.9c-3.9,0.6-7.6-2.9-8.4-7.8
			c-0.3-1.6-0.1-3.2,0.3-4.7c-0.2,0.2-0.3,0.3-0.3,0.3L94.2,44c0,0-1.9,1.8-4.3,4.2l-2.4,2.3c0.1,2.2,0.7,4.5,1.9,6.6
			C90.3,58.7,91.4,60.1,92.6,61.2z"/>
		<path class="st0" d="M94.5,48.1c0.8,4.9,4.5,8.4,8.4,7.8c0.8-0.1,1.6-0.4,2.3-0.9c0.1-0.2,0.1-0.5,0.1-0.7
			c0.1-4.4,0.3-8.2-3.2-11.7c-3-3-6.3-0.1-7.3,0.9C94.4,44.8,94.3,46.4,94.5,48.1z"/>
		<path class="st0" d="M94.3,44.2l0.1-0.4c0,0-4.6-1.8-4.7,1.4c0,1.2,0,2.1,0.2,2.9c0.3,1.4,0.7,2.3,1,2.5c0.5,0.4,1.7,0.9,2-0.4
			L94.3,44.2z"/>
		<path class="st1" d="M75.3,63l-1.8,9.6l5.7-3.4C77.5,67.6,76.2,65,75.3,63z"/>
		<path class="st2" d="M85.3,65.6"/>
		<path class="st2" d="M75.3,63"/>
		<path class="st3" d="M84.7,65.9c-1.5-0.7-4.6-2.4-5.6-3.9c-0.3-0.5-0.8-1.2-1.1-2c0.2-0.2,0.5-0.6,0.9-0.9
			c0.3,0.7,0.8,1.7,1.2,2.2c1,1.4,4.4,3.2,5.8,3.9C85.4,65.5,85.3,65.7,84.7,65.9z"/>
	</g>
	<path class="st8" d="M15.1,27.5c0,0,4.2-1.4,1.7-4.7C13.3,21.6,15.1,27.5,15.1,27.5z"/>
	<g>
		<path class="st5" d="M44.6,101.2c0.3,0.5,0.6,1.1,0.8,1.6c0.9-2.6,1.8-5.2,1.8-5.2l-9.5-7l-5.2-1.1v1.9
			C36.8,92.2,41.4,95.7,44.6,101.2z"/>
		<path class="st6" d="M30.2,109.2c0.1,0.8,12.2,0.3,13-1c0.4-0.6,1.3-3,2.2-5.4c-0.3-0.5-0.5-1.1-0.8-1.6c-3.1-5.4-7.8-9-12-9.7
			v14.8C32.5,106.3,30.1,108.4,30.2,109.2z"/>
	</g>
	<g>
		<path class="st5" d="M62.2,101.2c-0.3,0.5-0.6,1.1-0.8,1.6c-0.9-2.6-1.8-5.2-1.8-5.2l9.5-7l5.2-1.1v1.9
			C70,92.2,65.3,95.7,62.2,101.2z"/>
		<path class="st6" d="M76.6,109.2c-0.1,0.8-12.2,0.3-13-1c-0.4-0.6-1.3-3-2.2-5.4c0.3-0.5,0.5-1.1,0.8-1.6c3.1-5.4,7.8-9,12-9.7
			v14.8C74.2,106.3,76.7,108.4,76.6,109.2z"/>
	</g>
	<g>
		<path class="st1" d="M54,94.4c-11.6,0-21.4-8-24.5-19l0.1,13l19,11l8.3,0.2l19.2-11l0-7.6C71.7,89.1,63.4,94.4,54,94.4z"/>
		<path class="st0" d="M54,94.4c9.5,0,17.8-5.3,22.2-13.3L76,62l-7.7-4.5c-4,1.1-9.6,1.7-15.8,1.7c-6.2,0-11.7-0.7-15.8-1.7
			l-7.3,4.2l0.1,13.7C32.5,86.4,42.3,94.4,54,94.4z"/>
		<path class="st1" d="M62.4,55c-1.2,2-4.8,3.4-9,3.4c-4.4,0-8-1.5-9.1-3.6c-0.7-0.1-1.5-0.2-2.2-0.3l-5.3,3c4,1.1,9.6,1.7,15.8,1.7
			c6.2,0,11.7-0.7,15.8-1.7l-4.7-2.7C63.2,54.9,62.8,54.9,62.4,55z"/>
		<path class="st3" d="M53.3,58.4c4.2,0,7.8-1.4,9-3.4c-5.3,0.8-11.5,0.6-18.2-0.2C45.3,56.8,49,58.4,53.3,58.4z"/>
	</g>
	<path class="st0" d="M17.8,51c0.4,1.6-1.5,3.5-4.4,4.3c-2.9,0.8-5.8-0.8-6-1.4C7,52.4,9,50.3,11.8,49.5
		C14.7,48.7,17.3,49.4,17.8,51z"/>
	<g>
		<path class="st1" d="M52.2,62.1c0.2,0,0.4,0,0.6,0c0.3,0.1,0.7,0.2,1,0.4c2.7,1.5,5.3,3.1,8,4.7c0.8,0.5,1.3,1.2,1.3,2.2
			c0,3.2,0,6.4-0.1,9.6c0,0.9-0.4,1.6-1.2,2c-2.7,1.6-5.5,3.2-8.2,4.7c-0.8,0.5-1.7,0.5-2.6,0c-2.7-1.6-5.3-3.1-8-4.7
			c-0.8-0.5-1.3-1.3-1.3-2.2c0-3.2,0-6.5,0.1-9.7c0-0.9,0.5-1.5,1.2-1.9C46.1,65.5,49.1,63.8,52.2,62.1z"/>
		<path class="st15" d="M52.2,63.1c0.2,0,0.4,0,0.6,0c0.3,0.1,0.6,0.2,0.9,0.4c2.4,1.4,4.9,2.8,7.3,4.3c0.8,0.4,1.2,1.1,1.2,2
			c0,2.9,0,5.9-0.1,8.8c0,0.8-0.4,1.4-1.1,1.8c-2.5,1.4-5,2.9-7.5,4.3c-0.8,0.4-1.6,0.4-2.3,0c-2.4-1.4-4.9-2.8-7.3-4.3
			c-0.8-0.4-1.2-1.1-1.2-2c0-3,0-5.9,0.1-8.9c0-0.8,0.4-1.4,1.1-1.8C46.7,66.2,49.4,64.7,52.2,63.1z"/>
		<path class="st0" d="M50.6,73.5c0.3-0.1,0.5-0.2,0.7-0.3c0.8-0.4,1.7-0.4,2.6-0.3c1.6,0.4,2.4,1.6,2.3,3.5c0,1.1-0.4,2.1-1.5,2.6
			c-1.1,0.5-2.3,0.6-3.4-0.1c-1-0.6-1.2-1.6-1.3-2.7c0-2.7,0-5.4,0-8.1c0-1.5,0-1.5-1.5-1.4c-0.4,0-0.5,0.1-0.5,0.5
			c0,3.1,0,6.3,0,9.4c0,1.1,0.4,2.2,1.2,3.1c1.4,1.5,3.2,1.8,5.1,1.4c2-0.5,3.8-2,3.8-5.2c0-3.8-3.9-6-7.3-4.5
			c-0.2,0.1-0.3,0.3-0.3,0.5C50.6,72.4,50.6,72.9,50.6,73.5z"/>
	</g>
</g>
</svg>
