<?xml version="1.0" encoding="utf-8"?>
<!-- Generator: Adobe Illustrator 26.0.0, SVG Export Plug-In . SVG Version: 6.00 Build 0)  -->
<svg version="1.1" id="Capa_1" xmlns="http://www.w3.org/2000/svg" xmlns:xlink="http://www.w3.org/1999/xlink" x="0px" y="0px"
	 viewBox="0 0 101.2 140.9" style="enable-background:new 0 0 101.2 140.9;" xml:space="preserve">
<style type="text/css">
	.st0{fill:#0A222E;}
	.st1{fill:#F9B140;}
	.st2{fill:#E89122;}
	.st3{fill:#F8CE5E;}
	.st4{fill:#DFE5E9;}
	.st5{fill:#BFD4DD;}
	.st6{fill:#ABCADC;}
	.st7{fill:#B8D1DD;}
	.st8{fill:#F4ED86;}
	.st9{fill:#005885;}
	.st10{fill:#A9C8DB;}
	.st11{fill:#F9BD8F;}
	.st12{opacity:0.45;fill:#FFFFFF;}
	.st13{fill:#ED6F74;}
	.st14{fill:#E94164;}
	.st15{fill:#020203;}
	.st16{fill:#48ABE1;}
	.st17{fill:#82CDF3;}
	.st18{fill:#BD1F2F;}
	.st19{fill:#E6322A;}
	.st20{fill:#82C8F0;}
	.st21{fill:#FFFFFF;}
	.st22{fill:#DADADA;}
</style>
<g>
	<g>
		<g>
			<path class="st0" d="M21,139.1c0,1.6,15.7,1.7,35,1.7s35-0.1,35-1.7s-15.7-3.9-35-3.9S21,137.5,21,139.1z"/>
			<g>
				<path class="st1" d="M49.8,113.1l-6.2-1.4l0,2.5l0,19.5c0,0-2.9,2.8-2.8,3.8c0.1,1,14.5,0.4,15.5-1.3c0.5-0.8,1.6-4,2.6-7.1
					c1.1-3.4,4.6-17.3,4.6-17.3L49.8,113.1z"/>
				<g>
					<path class="st2" d="M56.7,125.1c-0.6,4-2.1,7.5-3.9,9.7c0.4,0.7,0.7,1.5,0.9,2.4c1.4-0.3,2.5-0.6,2.7-1.1
						c0.5-0.8,1.6-4,2.6-7.1c1.1-3.4,5-19.4,5-19.4l-7.3,5.6C56.9,117.2,57,122.9,56.7,125.1z"/>
				</g>
				<path class="st3" d="M41.9,136.9c0.4,1,4.4,1,5.2-0.9c0.4-0.9,0.1-2.3-0.6-2.7c-1.1-0.6-2.8,1-3.3,1.4
					C42.8,135.1,41.6,136.3,41.9,136.9z"/>
			</g>
			<g>
				<polygon class="st4" points="37.8,79.7 48.5,67.4 67.7,79 67.7,104.6 48.3,118 44,116.9 37.8,105.3 				"/>
				<polygon class="st5" points="81.6,74 68.6,61.4 48.5,67.4 67.7,79 				"/>
				<polygon class="st6" points="92.8,80.5 81.6,74 68.6,61.4 84.2,68.5 				"/>
				<polygon class="st5" points="69.2,123.3 48.3,118 67.7,104.6 79.4,110.8 				"/>
				<polygon class="st6" points="84.7,115.7 69.2,123.3 79.4,110.8 92.8,105.2 				"/>
				<polygon class="st7" points="81.7,111.5 81.6,74 67.7,79 67.7,104.6 79.4,110.8 				"/>
				<polygon class="st6" points="92.8,105.2 92.8,80.5 81.6,74 81.7,111.5 				"/>
			</g>
			<g>
				<path class="st1" d="M81.7,111.5l-2.3-0.8l-2.5-0.7L63.9,122c0,0,1.1,3.4,2.4,6.8c1.1,3.1-1,6.9-0.5,7.7
					c1.1,1.7,17.1,2.4,17.2,1.3c0.1-1-3.1-3.8-3.1-3.8l3.3-20.1L81.7,111.5z"/>
				<g>
					<path class="st2" d="M81.7,111.5l-2.3-0.8c0.5,0.7,0.7,3.1,0.7,4c0,7-1.6,13.3-4.1,17.8c1.1,1.3,1.7,2.9,1.7,4.7
						c0,0.4,0,0.8-0.1,1.1c2.9,0.1,5.3-0.1,5.3-0.5c0.1-1-3.1-3.8-3.1-3.8l3.3-20.1L81.7,111.5z"/>
				</g>
				<path class="st3" d="M75.7,136.5c-0.3,0.8-4.3,1.3-5.4-0.2c-0.5-0.7-0.4-1.9,0.3-2.3c1.1-0.6,3,0.6,3.5,0.8
					C74.6,135.1,75.9,135.9,75.7,136.5z"/>
			</g>
		</g>
		<g>
			<g>
				<g>
					<path class="st4" d="M66,0c19.5,0,35.2,17.1,35.2,36.1c0,6.7-1.7,12.8-5.3,17.7c-5.4,7.2-15,11.9-29.9,11.9
						c-15.3,0-25-4.6-30.3-12.6c-3.4-5-4.9-11.4-4.9-18.8C30.8,15.4,46.5,0,66,0z"/>
					<path class="st6" d="M55.9,61.1c23.7,0,42.9-16.8,42.9-37.5c0-0.1,0-0.1,0-0.2c1.5,4,2.4,8.3,2.4,12.7c0,6.7-1.7,12.8-5.3,17.7
						c-5.4,7.2-15,11.9-29.9,11.9c-11.2,0-19.4-2.5-25.1-6.9C45.6,60.2,50.6,61.1,55.9,61.1z"/>
					<ellipse class="st1" cx="85.9" cy="35.6" rx="10.3" ry="15.3"/>
					<g>
						<path class="st2" d="M74.4,29.3C74.4,29.3,74.3,29.3,74.4,29.3c0,3.2,0.5,6.2,1.4,8.9c0.8,6.7,4.5,11.8,9,12.5
							c-0.4,0.1-0.7,0.1-1.1,0.1c-5.7,0-10.3-6.8-10.3-15.3C73.4,33.4,73.8,31.2,74.4,29.3z"/>
						<path class="st8" d="M74.4,29.3c1.6-5.3,5.2-9,9.4-9c0.4,0,0.7,0,1.1,0.1c-5.2,0.8-9.2,7.3-9.2,15.2c0,0.9,0.1,1.8,0.2,2.6
							C74.9,35.5,74.3,32.5,74.4,29.3C74.3,29.3,74.4,29.3,74.4,29.3z"/>
					</g>
					<path class="st8" d="M93.3,39.6c0,0,2.8,4.5-2,5.6C87.2,43.7,93.3,39.6,93.3,39.6z"/>
				</g>
				<g>
					<path class="st9" d="M65.3,69.1c-5,0-9.2-2.1-10.6-4.4c6.3,0.9,13.5,1.1,21.5,0.2C74.8,67.3,70.4,69.1,65.3,69.1z"/>
				</g>
			</g>
		</g>
		<path class="st10" d="M42.9,59.6c0,0-4.6-0.5-7.2-3.1c-2.6-2.6-6.9-18.7-2.4-28.8S52,16.8,52,16.8s14.3-1.5,21,18S63,57.1,63,57.1
			S48.1,60.3,42.9,59.6z"/>
		<path class="st9" d="M42.8,57.9c0,0-4.5-0.5-7.1-2.9c-2.6-2.4-6.6-17.8-2.2-27.4S52,17.2,52,17.2s14.1-1.5,20.5,16.9
			s-10,21.3-10,21.3S47.9,58.6,42.8,57.9z"/>
		<path class="st11" d="M42.7,57.1c0,0-4.4-0.4-6.9-2.7c-2.5-2.3-6.4-17-2-26.2s18-10,18-10s13.6-1.5,19.9,16.1
			c6.2,17.6-9.7,20.4-9.7,20.4S47.6,57.7,42.7,57.1z"/>
		<path class="st12" d="M33.8,28.2c1.7-3.5,4.7-5.8,7.8-7.3c-1.9,8.7-1.9,19.3,0.2,30.3c0.4,2.1,0.9,4.1,1.4,6c-0.2,0-0.4,0-0.5,0
			c0,0-4.4-0.4-6.9-2.7C33.3,52.1,29.4,37.4,33.8,28.2z"/>
		<g>
			<circle class="st13" cx="59.8" cy="46.5" r="3.3"/>
		</g>
	</g>
	<g>
		<g>
			<g>
				<path class="st9" d="M51.4,34.5c0.8,2.8,3.5,4.5,5.9,3.9c3.4-0.8,3.8-3.3,3-6.1s-3.5-4.5-5.9-3.9S50.6,31.8,51.4,34.5z"/>
			</g>
			<g>
				<path class="st9" d="M47.9,43.2c-1-3.3-3.4-5.4-5.8-5.1c-2.8,0.4-4.5,4.1-3.9,8.3c0.3,1.7,0.9,3.2,1.7,4.4
					C39.7,47.3,43.1,44,47.9,43.2z"/>
				<path class="st14" d="M44.4,53.1c2.8-0.4,4.5-4.1,3.9-8.3c-0.1-0.6-0.2-1.1-0.4-1.7c-4.8,0.8-8.2,4.1-8,7.6
					C41.1,52.4,42.7,53.4,44.4,53.1z"/>
			</g>
			<path class="st15" d="M60.7,24.8c-0.1,0-0.3,0-0.4-0.1c-0.2-0.2-0.4-0.4-0.6-0.5c-1.2-0.9-2.6-1.4-3.9-1.4
				c-1.3,0-2.4,0.5-3.1,1.4c-0.2,0.2-0.5,0.3-0.7,0.1c-0.2-0.2-0.3-0.5-0.1-0.7c0.9-1.1,2.3-1.8,3.9-1.8c1.6,0,3.2,0.6,4.6,1.6
				c0.2,0.2,0.5,0.4,0.7,0.6c0.2,0.2,0.2,0.5,0,0.7C61,24.7,60.8,24.8,60.7,24.8z"/>
			<path class="st9" d="M32.5,32.6c0,0-0.1,0-0.1,0c-0.7,3.4-0.7,7-0.2,10.4c0.2,0,0.3,0,0.5,0c2.5-0.2,4.5-2.6,4.5-5.5
				S35,32.4,32.5,32.6z"/>
			<path class="st15" d="M34.9,26.2c-0.2,0.3-0.4,0.6-0.6,0.9c0.5,0.1,1.1,0.2,1.5,0.6c0.2,0.2,0.6,0.1,0.7-0.1
				c0.2-0.2,0.1-0.6-0.1-0.7C36,26.6,35.5,26.4,34.9,26.2z"/>
		</g>
	</g>
	<g>
		<path class="st15" d="M47.8,89.4l-5.1-18.9c0,0-0.4-1.7-2.8-1.7S2.9,66.8,2.9,66.8s-3.7-0.3-2.7,4.5c1,4.8,6.6,26.8,6.6,26.8
			s-0.4,2.3,0.3,3.4c0.8,1.1,2.7,1.6,2.7,1.6l40.8,1.9l21.9-10.3l0.2-3.7L47.8,89.4z"/>
		<path class="st16" d="M48.4,99.5l-7.1-28.2c0,0-0.2-0.8-1.6-0.9c-2.2-0.1-37-2.1-37-2.1s-1.3,0.4-1.3,2.4
			c0.1,1.9,6.8,26.6,6.8,26.6L48.4,99.5z"/>
		<polygon class="st16" points="67.1,92.2 48.1,91.1 50.4,99.6 		"/>
		<polygon class="st17" points="57.5,94 49.7,97.3 48.7,93.4 		"/>
		<path class="st18" d="M48.7,101.4l-0.1,2.4l-38.7-2.2c0,0-2.3,0-1.4-2.5L48.7,101.4z"/>
		<polygon class="st19" points="50.7,101.5 50.6,103.2 71.6,93.1 71.7,92.5 		"/>
		<path class="st20" d="M39.7,70.4c-1.8-0.1-25.3-1.4-33.9-1.9c2.1,2.5,5.5,3.3,5.5,3.3s18.9,0.6,23.1,0.8c4.2,0.2,5.8,2.7,5.8,2.7
			s3.2,8.1,3.3,12.9c0,2.6,1.7,4,3.3,4.6l-5.4-21.5C41.3,71.3,41.1,70.5,39.7,70.4z"/>
		<path class="st19" d="M48.7,102.6l0.1-1.2L8.5,99.1c-0.2,0.5-0.2,0.9-0.2,1.2L48.7,102.6z"/>
		<path class="st21" d="M26,84.8c-2.3-0.1-4.1-2.1-4-4.4c0.1-1,0.5-1.9,1.1-2.6c-2.3,0-4.2,1.7-4.3,4c-0.1,2.3,1.6,4.3,4,4.4
			c1.3,0.1,2.5-0.5,3.3-1.4C26.1,84.8,26,84.8,26,84.8z"/>
	</g>
	<g>
		<path class="st22" d="M28.9,103.6c-1.7,2.4-7,2.8-7,2.8s-6.7,0.7-9.9-3.7c0,0.7,0.1,1.5,0.5,2.4c3.1,4.4,9.9,3.7,9.9,3.7
			s7.1-0.5,7.5-4.1C29.9,104.7,29.5,104.3,28.9,103.6z"/>
		<path class="st21" d="M21.9,106.4c0,0,5.3-0.4,7-2.8c-0.8-1-1.9-2.5-2.3-4.3c-0.7-3-9.2-3.1-10.9-1.7c-1.8,1-3.6,2.7-3.6,5.1
			C15.2,107,21.9,106.4,21.9,106.4z"/>
	</g>
	<path class="st6" d="M81.6,74.4c0,0,3.4,15.4-2.9,22.3c-6.3,6.9-13.2,1.2-13.2,1.2l6.9-3.3l0.2-3.7l-7.3-0.5c0,0-3.9,4.4-9,3.9
		s-8.4-3.5-7.8-7.7s6.3-9.4,14.5-8.8c4.4,0.3,6.6,1.4,8.6,3c-0.9-1.9-0.4-2.3-0.4-2.3L81.6,74.4z"/>
	<path class="st4" d="M54.6,91.1c7.9,1.5,7-3.1,9.3-3.1c2.3,0,1.3,2.4,1.3,2.4l7.3,0.5l-0.2,3.3c3.1,0,6.5-1.4,9.1-2.7
		c2.2-7.4,0.1-17,0.1-17l-10.5,4.1c0,0,0.6,2,1.5,3.9c-2-1.6-5.2-3.3-9.6-3.6c-8-0.6-13,3.5-13.9,7.5C49.9,88.5,51.5,90.5,54.6,91.1
		z"/>
</g>
</svg>
