<?xml version="1.0" encoding="utf-8"?>
<!-- Generator: Adobe Illustrator 26.0.0, SVG Export Plug-In . SVG Version: 6.00 Build 0)  -->
<svg version="1.1" id="Capa_1" xmlns="http://www.w3.org/2000/svg" xmlns:xlink="http://www.w3.org/1999/xlink" x="0px" y="0px"
	 viewBox="0 0 147.5 165.7" style="enable-background:new 0 0 147.5 165.7;" xml:space="preserve">
<style type="text/css">
	.st0{fill:#7589B9;}
	.st1{fill:#01568E;}
	.st2{fill:#E63128;}
	.st3{fill:#C61E1C;}
	.st4{fill:#F5A8A7;}
	.st5{fill:#DFE5E9;}
	.st6{fill:none;stroke:#005885;stroke-width:2.2846;stroke-miterlimit:10;}
	.st7{fill:#ABCADC;}
	.st8{fill:#005885;}
	.st9{fill:#A9C8DB;}
	.st10{fill:#E89122;}
	.st11{fill:#F9B140;}
	.st12{fill:#DD7A27;}
	.st13{fill:#F4ED86;}
	.st14{fill:#F9BD8F;}
	.st15{fill:#ED6F74;}
	.st16{fill:#F6AA79;}
	.st17{fill:#020203;}
	.st18{fill:#E94164;}
	.st19{opacity:0.45;fill:#FFFFFF;enable-background:new    ;}
	.st20{fill:#F8CE5E;}
	.st21{fill:#0D76BB;}
	.st22{fill:none;stroke:#005885;stroke-width:1.8399;stroke-miterlimit:10;}
	.st23{fill:#EEF0EE;}
	.st24{fill:#FFFFFF;}
</style>
<g>
	<g>
		<ellipse transform="matrix(0.8746 -0.4848 0.4848 0.8746 -32.1533 47.1268)" class="st0" cx="75" cy="85.7" rx="52.7" ry="64.7"/>
		
			<ellipse transform="matrix(0.8746 -0.4848 0.4848 0.8746 -29.7687 45.8828)" class="st1" cx="73.8" cy="80.5" rx="52.7" ry="64.7"/>
		
			<ellipse transform="matrix(0.8746 -0.4848 0.4848 0.8746 -29.7687 45.8828)" class="st2" cx="73.8" cy="80.5" rx="51.4" ry="63.1"/>
		<path class="st3" d="M106.4,123.9c-24.8,13.8-58.7,0.2-75.6-30.3c-7.2-13-10.2-27-9.3-39.9c-4.4,15.7-2.3,34.5,7.2,51.7
			c16.9,30.5,50.7,44.1,75.6,30.3c14.2-7.9,22.4-23,23.6-40.3C124.6,107.6,117.2,117.8,106.4,123.9z"/>
		<path class="st4" d="M41.5,26.2c-0.4,0.2-0.8,0.5-1.2,0.7C65,14.3,98,27.8,114.6,57.8c16.6,30,10.7,65.2-13.1,79.4
			c0.4-0.2,0.8-0.4,1.3-0.6c24.8-13.8,31.3-49.6,14.4-80.1C100.2,26,66.4,12.4,41.5,26.2z"/>
		<path class="st4" d="M111.2,118.9c-1.9,1.9-3.9,3.6-6.2,5.1c-0.2,0.2-0.5,0.3-0.7,0.5c-0.1,0.1-0.2,0.1-0.3,0.2
			c-2.1,1.4-4.3,2.7-6.7,3.8c-9.1,4.2-18.6,5.5-27.3,4.1c9.4,3.1,19.5,2.8,28.7-1.4c9.3-4.3,16-12,19.7-21.4
			C116.5,113.1,114.1,116.1,111.2,118.9z"/>
		<polygon class="st3" points="66.2,116.7 65.3,118.4 52.6,103 35.3,110.9 54.4,95.4 		"/>
		<polygon class="st3" points="90.6,130 93.2,121.3 103.6,115.5 112.8,117.7 103.6,105.7 84.9,116.1 89.7,129 		"/>
	</g>
	<g>
		<g>
			<path class="st5" d="M27.5,118.4l6.3-4.3l9.3-6.5l7.9-5.5c-1.2-2.9-3.6-5.9-5.5-8.2l-0.6-0.1l-5.5,2.1l-15.9,6l-4.1,1.6
				c-2.2,0.9-8,3-8,3s-0.2,0.1-0.6,0.2c-1.8,0.6-7.1,3-5.1,8.4c2.4,6.4,7.1,8.2,12.5,10.6c0.3,0.1,0.6,0.2,0.9,0.3
				C24.2,127,27.5,118.4,27.5,118.4z"/>
			<path class="st5" d="M12.2,106.5l-0.5-0.1c0,0,0.7-6.7,4.6-4.8c1.4,0.7,2.5,1.4,3.4,2c1.6,1.2,2.3,2.3,2.4,2.8
				c0.2,0.8,0,2.6-1.7,2.2L12.2,106.5z"/>
			<path class="st5" d="M45.5,94l-0.6-0.1l8.9-4.6l4.4,7.9l-7.2,5C49.8,99.2,47.4,96.2,45.5,94z"/>
			<path class="st6" d="M43.5,107.4"/>
			<path class="st6" d="M46,93.7"/>
			<path class="st7" d="M21.5,119.6c4.7-2.6,7.9-6.6,9-10.5l25.8-15.5l2,3.6l-7.2,5l-7.9,5.5l-9.3,6.5l-6.3,4.3c0,0-3.3,8.6-8.2,7.5
				c-0.3-0.1-0.6-0.2-0.9-0.3c-2.5-1.1-4.8-2.1-6.8-3.4C14.6,122.3,18.2,121.5,21.5,119.6z"/>
			<path class="st8" d="M44.3,106.8c-0.1-2.2-0.4-7-1.7-9.1c-0.4-0.7-1.1-1.6-1.8-2.4c-0.3,0.2-1,0.3-1.6,0.6c0.7,0.8,1.6,2,2,2.7
				c1.2,2,1.5,7.3,1.5,9.4C43.3,107.5,43.7,107.5,44.3,106.8z"/>
		</g>
		<g>
			<g>
				<path class="st7" d="M36.6,74.8c9.4,3.5,22,2,37.9-6.8c16.3-9,24.3-19,25.9-29.5c-3.9,8.9-12.9,17.7-28.1,26.1
					C57.8,72.7,46,75.6,36.6,74.8z"/>
				<path class="st5" d="M41,7.7C20.3,19.2,12.2,44.2,21.9,61.6c3.4,6.2,8.3,10.8,14.7,13.2c9.4,0.8,21.2-2.1,35.7-10.1
					c15.1-8.4,24.1-17.2,28.1-26.1c1-6.6-0.6-13.4-4.3-20.2C86.4,1,61.7-3.8,41,7.7z"/>
			</g>
			<path class="st9" d="M89.5,21.1c11.3,18.7-22.2,32.8-22.2,32.8s-28.5,21.6-39.6,1.5C21.4,44,30.1,27,47.1,17.5
				S83.1,9.6,89.5,21.1z"/>
			<path class="st8" d="M88.9,20.1c11.3,18.7-5.1,23.4-22.2,32.8s-28.5,21.5-39.6,1.4c-6.3-11.4,2.4-28.4,19.4-37.9
				S82.6,8.6,88.9,20.1z"/>
			<g>
				<path class="st10" d="M23.2,70.6c-0.6,0.4-1.3,0.6-2,0.8c2,2.5,3.6,4.2,3.6,4.2c4.4-0.4,10.2-3.7,10.2-3.7l-6.2-11.2
					C28.5,65,26.6,68.7,23.2,70.6z"/>
				<path class="st11" d="M28.8,60.7L19.5,44c-5.4,6.6-8.3,13.2-8.3,13.2c1.4,3.6,6.4,9.9,9.9,14.1c0.7-0.2,1.3-0.5,2-0.8
					C26.6,68.7,28.5,65,28.8,60.7z"/>
			</g>
			<g>
				<path class="st10" d="M99.6,10.3C98.7,9.4,97.4,8.2,96,7c-0.5,3.6-2.5,6.9-5.7,9l7.1,5.7c0,0,0.4-0.6,1-1.5
					c-0.2-0.3-0.4-0.5-0.6-0.8C96.3,16.6,97.1,13,99.6,10.3z"/>
				<path class="st11" d="M96,7c-3.8-3.3-8.4-6.9-8.4-6.9S80.5-1,74.9,3.7L90.3,16C93.4,13.9,95.4,10.6,96,7z"/>
				<path class="st12" d="M100.6,11.3c-0.2-0.3-0.6-0.6-1-1c-2.5,2.7-3.3,6.3-1.8,9c0.2,0.3,0.4,0.6,0.6,0.8
					C99.9,17.8,102.3,13.3,100.6,11.3z"/>
				<path class="st13" d="M89.3,4.8c0,0-7.4,1.2-5.2-2.7C85.6-0.4,89.3,4.8,89.3,4.8z"/>
			</g>
			<g>
				<g>
					<path class="st14" d="M87.9,21.5c-0.9-1.6-2-3-3.4-4.2c-8-7.2-23.4-7.4-37.4,0.4c-16.3,9.1-24.6,25.5-18.4,36.6
						c0.6,1,1.1,1.9,1.7,2.8l0,0l0,0c0.2,0.2,0.3,0.5,0.5,0.7c0.9,1.3,2.6,3.6,3.2,3.8c9.2,8.5,18.9-1.1,32.5-8.7
						C83,43.8,98.9,39.8,87.9,21.5z"/>
					<circle class="st15" cx="42.5" cy="56" r="3.7"/>
					<circle class="st15" cx="84.1" cy="31.8" r="3.7"/>
					<g>
						<g>
							<g>
								<path class="st16" d="M61.6,53.3c-21.1,7-26.6,4.9-33.7-0.6c0.3,0.4,3.1,6.1,6.2,8.8c9.2,8.5,18.9-1.1,32.5-8.7
									c14.8-8.2,29.2-12.3,23.7-26.4C91.5,33.4,82.8,45.4,61.6,53.3z"/>
							</g>
							<circle class="st15" cx="42.5" cy="56" r="3.7"/>
							<circle class="st15" cx="84.1" cy="31.8" r="3.7"/>
						</g>
					</g>
				</g>
				<g>
					<path class="st17" d="M45.7,39.5c-0.4,0.2-0.8,0.1-1.1-0.2c-0.2-0.2-2-2.4-5.3-0.6l0,0c-3.3,1.8-2.5,4.5-2.4,4.8
						c0.2,0.4-0.1,0.9-0.5,1.1s-0.9-0.1-1.1-0.5c-0.5-1.5-0.6-4.8,3.1-6.9l0,0c3.7-2.1,6.5-0.2,7.5,1c0.3,0.4,0.2,0.9-0.2,1.2
						C45.7,39.4,45.7,39.4,45.7,39.5z"/>
					<path class="st17" d="M74.1,23.7c-0.4,0.2-0.8,0.1-1.1-0.2c-0.2-0.3-2-2.4-5.3-0.5l0,0c-3.3,1.8-2.4,4.5-2.3,4.8
						c0.2,0.4-0.1,0.9-0.5,1.1s-0.9-0.1-1.1-0.5c-0.5-1.5-0.6-4.8,3.1-6.9l0,0c3.7-2.1,6.6-0.2,7.5,1c0.3,0.4,0.2,0.9-0.2,1.2
						C74.2,23.6,74.1,23.7,74.1,23.7z"/>
					<path class="st8" d="M51.2,40.8c0.3,0.8,0.7,1.6,1.1,2.4c1.9,3.5,4.6,6,7.2,7c1.8,0.7,3.5,0.8,4.9,0c3-1.7,3.5-6.7,1.4-11.9
						c-0.3-0.7-0.6-1.4-1-2.1c-0.5-0.9-1.5-2.2-1.5-2.2L51.2,40.8z"/>
					<path class="st18" d="M61.1,44.1c-4.7-4-5.9,1.3-5.5,3.5c1.2,1.2,2.5,2.1,3.8,2.6c1.8,0.7,3.5,0.8,4.9,0
						c2.4-1.3,3.2-4.7,2.4-8.5C65.3,40.3,60.4,37.5,61.1,44.1z"/>
				</g>
			</g>
			<path class="st19" d="M30.3,53.6c5.6,10.1,12.7,12,19.2,8c-15.2-16.1-8.2-37.1-9.6-36.5C29.3,31.7,24.7,44.7,30.3,53.6z"/>
			<path class="st19" d="M85.3,20c2.8,3.4,2.5,5.7,1.6,6.3c-0.9,0.6-1.2-1.8-4.5-5.3S78,15.6,78,15.6C80.1,14.3,82.5,16.7,85.3,20z"
				/>
		</g>
		<path class="st13" d="M15.7,60.9c0,0,3.8-4.1-0.9-6.1C10.2,55.5,15.7,60.9,15.7,60.9z"/>
		<g>
			<path class="st10" d="M92.2,123.2c0.7,0.4,1.3,0.8,1.9,1.2c-0.5-3.4-1.1-6.7-1.1-6.7l-14.5-1.9l-6.4,2l1.2,2.1
				C78.3,118.2,85.5,119.2,92.2,123.2z"/>
			<path class="st11" d="M81.4,140.6c0.6,0.8,13.5-7,13.6-9c0.1-0.9-0.4-4.1-0.9-7.2c-0.6-0.4-1.2-0.8-1.9-1.2
				c-6.7-4-13.9-5.1-18.9-3.3l8.9,16.1C82.2,136,80.8,139.8,81.4,140.6z"/>
		</g>
		<path class="st20" d="M83.2,136.9c0.7,0.7,4.3-0.7,4.4-2.7c0-1-0.7-2.1-1.5-2.2c-1.2-0.1-2.2,1.9-2.4,2.5
			C83.4,135,82.7,136.5,83.2,136.9z"/>
		<g>
			<path class="st10" d="M111.4,112.6c0,0.8,0,1.5,0,2.3c-2.6-2.3-5.1-4.5-5.1-4.5l6.1-13.3l5-4.3l1.2,2.1
				C114.5,98.1,111.5,104.8,111.4,112.6z"/>
			<path class="st11" d="M131.9,112.6c0.4,0.9-13.1,7.7-14.8,6.8c-0.8-0.4-3.3-2.5-5.6-4.5c0-0.7-0.1-1.5,0-2.3
				c0.1-7.8,3.1-14.5,7.2-17.8l8.9,16.1C127.6,110.9,131.5,111.7,131.9,112.6z"/>
		</g>
		<path class="st20" d="M127.8,112.2c0.2,1-2.9,3.3-4.6,2.3c-0.8-0.5-1.4-1.7-1-2.4c0.5-1.1,2.8-0.8,3.4-0.8
			C126,111.3,127.6,111.6,127.8,112.2z"/>
		<g>
			<path class="st7" d="M98.3,110.2c-12.7,7-28.2,4.2-38.1-5.9l7.9,14.1l27.3,0.5l9.2-4.8l14.3-23.5l-4.6-8.2
				C114.4,93.7,108.7,104.5,98.3,110.2z"/>
			<path class="st5" d="M102.8,61.6l-11.1-0.2l-6.8-0.1c-0.4,0.3-0.8,0.6-1.2,0.9c-0.2,2.9-3.2,6.6-7.8,9.1
				c-4.7,2.6-9.6,3.2-12.1,1.6c-0.8,0.3-1.7,0.7-2.6,1l-4,6.5l-5.5,9l8.4,14.9c9.9,10.1,25.5,12.9,38.1,5.9
				c10.3-5.7,16.1-16.5,16.1-27.8L102.8,61.6z"/>
			<path class="st7" d="M102.8,61.6h-0.3c-2.5,0.6-4.8,7.1-2.5,8.8c13.3,10.5-0.8,19.3-9,27.2c2.3,8.9,9.6,11.2,10.6,10.5
				c8.3-6,12.8-15.7,12.8-25.7L102.8,61.6z"/>
			<path class="st8" d="M75.9,71.4c4.6-2.5,7.6-6.2,7.8-9.1c-5.3,4.1-12.1,7.6-19.9,10.7C66.3,74.5,71.2,74,75.9,71.4z"/>
		</g>
		<g>
			<path class="st7" d="M76.9,76.1c0.2-0.1,0.5-0.3,0.7-0.4c0.5-0.1,0.9-0.2,1.4-0.2c3.8,0.1,7.7,0.2,11.5,0.3
				c1.2,0,2.2,0.6,2.8,1.6c1.9,3.5,3.9,7,5.7,10.5c0.5,1,0.5,2-0.1,2.9c-2,3.4-4,6.7-6.1,10.1c-0.6,1-1.6,1.5-2.8,1.5
				c-3.8-0.1-7.7-0.2-11.5-0.3c-1.2,0-2.2-0.6-2.8-1.6c-2-3.5-3.9-7.1-5.8-10.6C69.4,89,69.5,88,70,87.1
				C72.3,83.5,74.6,79.8,76.9,76.1z"/>
			<path class="st21" d="M77.6,77.2c0.2-0.1,0.4-0.2,0.6-0.3c0.4,0,0.8-0.2,1.3-0.1C83,76.9,86.5,77,90,77c1.1,0,2,0.5,2.5,1.5
				c1.8,3.2,3.5,6.4,5.2,9.6c0.5,0.9,0.4,1.8-0.1,2.7c-1.8,3.1-3.7,6.1-5.5,9.2c-0.6,0.9-1.5,1.4-2.6,1.4c-3.5-0.1-7-0.2-10.5-0.2
				c-1.1,0-2-0.5-2.5-1.5c-1.8-3.2-3.5-6.4-5.3-9.7c-0.5-0.9-0.4-1.8,0.1-2.6C73.4,84,75.5,80.6,77.6,77.2z"/>
			<path class="st5" d="M82.1,89.5c0.3-0.4,0.4-0.6,0.6-0.8c0.6-1,1.6-1.5,2.6-1.8c1.9-0.6,3.6,0.3,4.6,2.4c0.6,1.2,0.8,2.5-0.1,3.7
				c-0.9,1.3-2.1,2-3.7,1.9c-1.4-0.1-2.3-1-3-2.1c-1.6-2.9-3.3-5.8-4.9-8.8c-0.9-1.6-0.9-1.6-2.5-0.7c-0.4,0.2-0.5,0.4-0.3,0.9
				c1.9,3.4,3.8,6.9,5.7,10.3c0.7,1.2,1.8,2.2,3.2,2.6c2.5,0.8,4.6,0.1,6.4-1.6c1.9-1.7,3-4.5,1-7.9c-2.3-4.1-7.9-4.2-10.6-0.5
				c-0.1,0.2-0.2,0.5-0.1,0.7C81.4,88.4,81.7,88.9,82.1,89.5z"/>
		</g>
		<g>
			<g>
				<path class="st5" d="M112.7,66.8l-7.7-3.7l-2.9-1.4c0,0-3.4,6.8-0.6,9.2c2.6,2.3,5.4,5,6.7,6.7c2.5-1.1,5.6-1.9,8-1.1
					c1.6,0.5,3,1.7,4,2.9C119.5,69.4,112.7,66.8,112.7,66.8z"/>
				<path class="st5" d="M116.2,76.6c-2.4-0.8-5.6,0-8,1.1c0.1,0.1,0.1,0.1,0.2,0.2c2,2.9-2.1,6.5-3.5,7.6c-0.3,0.2-0.4,0.3-0.4,0.3
					L99,90.5l-0.2,0.2c0,0-7.6,1-6.6,10c2.3,4.4,6,8.4,8.6,7.8c2.5-0.6,5.5-2.9,7.1-4.2c0.7-0.6,1.1-1,1.1-1s5.4-4.4,8.8-11.4
					c1.4-2.9,2.4-6.2,2.5-9.8c0-0.9,0-1.8,0-2.6C119.2,78.3,117.8,77.1,116.2,76.6z"/>
				<path class="st7" d="M98.7,90.6c0,0-9.7-0.2-8.4,5.5c0.3,1.4,1,3,1.8,4.6C91.1,91.6,98.7,90.6,98.7,90.6z"/>
				<path class="st22" d="M108.2,77.6"/>
				<path class="st7" d="M118.9,79.7c-0.1,3.6-1.2,6.9-2.5,9.8c-3.3,7-8.8,11.4-8.8,11.4s-0.4,0.4-1.1,1c-1.6,1.3-4.6,3.6-7.1,4.2
					c-2.1,0.5-5.1-2.1-7.3-5.6c0,0.1,0,0.1,0,0.2c2.3,4.4,6,8.4,8.6,7.8c2.5-0.6,5.5-2.9,7.1-4.2c0.7-0.6,1.1-1,1.1-1
					s5.4-4.4,8.8-11.4c1.4-2.9,2.4-6.2,2.5-9.8c0-0.9,0-1.8,0-2.6c-0.4-0.5-0.8-0.9-1.3-1.3C118.9,78.7,118.9,79.2,118.9,79.7z"/>
				<path class="st8" d="M120.3,81.1c0,0-3.2-3.2-4.4-3.6c-1.7-0.6-4.7,0.1-7.2,1c-0.3-0.6-0.5-0.8-1.1-1.6c1.9-0.7,6.1-2.1,8.9-1.2
					c1.2,0.4,2.6,1.5,3.6,2.5C120.4,79.4,120.3,81.1,120.3,81.1z"/>
			</g>
			
				<ellipse transform="matrix(0.7656 -0.6433 0.6433 0.7656 -41.4507 86.4732)" class="st23" cx="98" cy="100.1" rx="3.3" ry="5.6"/>
			<path class="st7" d="M96.7,84.6c1.2-1.8,4.2-1.9,6.6-0.2c2.4,1.7,2.7,5.6,2.2,6.3c-1,1.7-4.2,1.9-6.6,0.2
				C96.4,89.2,95.4,86.4,96.7,84.6z"/>
			<path class="st23" d="M97.7,85.7c1.2-1.8,4.2-1.9,6.6-0.2c2.4,1.7,2.7,5.6,2.2,6.3c-1,1.7-4.2,1.9-6.6,0.2
				C97.5,90.2,96.5,87.4,97.7,85.7z"/>
		</g>
	</g>
	<g>
		<path class="st24" d="M21.1,133.2c0,0,4.1,12.7,14.6,19s28.8,10.6,28.8,10.6s-16.6,0.7-30.3-7.8C20.4,146.6,21.1,133.2,21.1,133.2
			z"/>
		<path class="st24" d="M16.6,148.7c0,0,6.4,8.1,11.7,10.9s16.3,6.1,16.3,6.1s-12.1-0.7-18-4.3C20.6,157.7,16.6,148.7,16.6,148.7z"
			/>
		<path class="st24" d="M122.5,150.9c0,0,15.2-6.3,19.6-16.2c4.4-9.9,4.3-22.7,4.3-22.7s3.9,15.4-3.3,27.4
			C135.8,151.6,122.5,150.9,122.5,150.9z"/>
		<path class="st24" d="M4.1,93.2c0,0-5.7-16.4,0.7-29.7C4.8,63.6-5.6,79,4.1,93.2z"/>
	</g>
</g>
</svg>
