<?xml version="1.0" encoding="utf-8"?>
<!-- Generator: Adobe Illustrator 26.0.0, SVG Export Plug-In . SVG Version: 6.00 Build 0)  -->
<svg version="1.1" id="Capa_1" xmlns="http://www.w3.org/2000/svg" xmlns:xlink="http://www.w3.org/1999/xlink" x="0px" y="0px"
	 viewBox="0 0 146.4 152.9" style="enable-background:new 0 0 146.4 152.9;" xml:space="preserve">
<style type="text/css">
	.st0{fill:#ABCADC;}
	.st1{fill:#311C10;}
	.st2{fill:#B48C5B;}
	.st3{fill:#9F6225;}
	.st4{fill:#663624;}
	.st5{fill:#CE791D;}
	.st6{fill:#894119;}
	.st7{fill:#DFE5E9;}
	.st8{fill:#A9C8DB;}
	.st9{fill:#005885;}
	.st10{fill:#F6AA79;}
	.st11{fill:#F9BD8F;}
	.st12{fill:#E89122;}
	.st13{fill:#F9B140;}
	.st14{fill:#DD7A27;}
	.st15{fill:#F4ED86;}
	.st16{fill:#E94164;}
	.st17{fill:#ED6F74;}
	.st18{fill:#020203;}
	.st19{opacity:0.45;fill:#FFFFFF;}
	.st20{fill:#1B4922;}
	.st21{fill:#F8CE5E;}
	.st22{fill:#0D76BB;}
	.st23{fill:none;stroke:#005885;stroke-width:1.6474;stroke-miterlimit:10;}
	.st24{fill:#EEF0EE;}
	.st25{fill:#FFCF05;}
	.st26{fill:#F9E925;}
	.st27{fill:#FDFEFF;}
	.st28{fill:#FDFEFE;}
	.st29{fill:#FEFFFF;}
	.st30{fill:#FCFDFE;}
</style>
<path class="st0" d="M102.6,90.1L84,91.5c1,1.6-3.1,3.3-5.7,5c-2.8,1.8,2,15.8,3.6,15.1C94.1,106.6,103.5,93.5,102.6,90.1z
	 M77.7,110.1l0,0.5c-0.1,0-0.1,0-0.2,0.1L77.7,110.1z"/>
<g>
	<polygon class="st1" points="146.4,92.9 4.5,92.9 4.5,85.8 9.9,83.7 4.5,83.3 4.5,75.9 10.2,73.4 4.5,71 4.5,63.2 12.1,62.8 
		4.5,59.7 4.5,51.3 146.4,51.3 146.4,58.9 142,60.2 146.4,60.6 146.4,80.3 141.1,80.9 146.4,81.7 	"/>
	<path class="st2" d="M144.8,91.5H6.2v-3.9c0,0,6.8-1.9,7.2-3s-7.2-1.9-7.2-1.9v-6.8c0,0,9.6-2.4,9.4-3.5c-0.2-1.1-9.4-2-9.4-2v-6.1
		c0,0,12.9,1.4,13.3-0.3c0.4-1.7-13.3-4.6-13.3-4.6v-6h138.6v3.3c0,0-6.6,0.9-6.6,2.2c0,1.3,6.6,3,6.6,3v16.4c0,0-8.7,0.8-8.7,2.2
		c0,1.4,8.7,2.7,8.7,2.7V91.5z"/>
	<polygon class="st1" points="141.9,93.9 0,93.9 0,86.8 5.4,84.6 0,84.3 0,76.9 5.7,74.3 0,72 0,64.2 7.6,63.8 0,60.7 0,52.3 
		141.9,52.3 141.9,59.9 137.5,61.1 141.9,61.6 141.9,81.3 136.6,81.8 141.9,82.7 	"/>
	<path class="st3" d="M140.3,92.4H1.7v-3.9c0,0,6.8-1.9,7.2-3c0.4-1.1-7.2-1.9-7.2-1.9v-6.8c0,0,9.6-2.4,9.4-3.5
		c-0.2-1.1-9.4-2-9.4-2v-6.1c0,0,12.9,1.4,13.3-0.3c0.4-1.7-13.3-4.6-13.3-4.6v-6h138.6v3.3c0,0-6.6,0.9-6.6,2.2c0,1.3,6.6,3,6.6,3
		v16.4c0,0-8.7,0.8-8.7,2.2c0,1.4,8.7,2.7,8.7,2.7V92.4z"/>
	<path class="st4" d="M125.2,59.9c-35.9-1-71.2-1.1-106,0v0.5h106L125.2,59.9z"/>
	<path class="st4" d="M133.3,70.3c-39,0.8-77.1,0.9-114.1,0v-0.6h114.1L133.3,70.3z"/>
	<path class="st4" d="M23,82.1c32.5-0.8,64.7-0.9,96.4,0l0,0.9H23L23,82.1z"/>
	<rect x="1.7" y="54.4" class="st5" width="138.6" height="3.5"/>
	<path class="st6" d="M131.6,81.4c0-1.4,8.7-2.2,8.7-2.2V62.9c0,0-1.6-0.4-3.3-1h0c0,0,2,11.7-6,15.6c-7.9,3.9-1.7,4.7-1.7,4.7
		l7.8,2.5c0,0,1.4,2.2-4,2.2h-1H6.4c-2.1,0.8-4.8,1.6-4.8,1.6v3.9h138.6v-5.5v-2.8C140.3,84.1,131.6,82.8,131.6,81.4z"/>
</g>
<g>
	<ellipse transform="matrix(0.1492 -0.9888 0.9888 0.1492 38.7316 151.0931)" class="st0" cx="107.2" cy="53" rx="8" ry="12"/>
	<g>
		<path class="st7" d="M97.2,47.9c-0.2,0.1-0.3,0.3-0.4,0.5C96.9,48.2,97,48,97.2,47.9z"/>
		<path class="st7" d="M96.3,52.1c-0.1-0.3-0.3-0.6-0.4-0.9C96.1,51.5,96.2,51.8,96.3,52.1z"/>
		<path class="st7" d="M96.9,53c-0.2-0.3-0.4-0.6-0.5-0.9C96.5,52.4,96.7,52.7,96.9,53z"/>
		<path class="st7" d="M96.2,49c0.1-0.2,0.2-0.3,0.3-0.5C96.5,48.7,96.3,48.9,96.2,49z"/>
		<path class="st7" d="M95.7,49.9c0,0.3,0.1,0.6,0.2,1C95.8,50.6,95.8,50.3,95.7,49.9z"/>
		<path class="st7" d="M95.7,49.9c0.1-0.2,0.2-0.5,0.4-0.7C96,49.5,95.8,49.7,95.7,49.9z"/>
		<path class="st7" d="M100.9,56.5c-0.8-0.4-1.5-0.9-2.1-1.4C99.4,55.5,100.1,56,100.9,56.5z"/>
		<path class="st7" d="M98,47.2c0.5-0.4,1.1-0.7,1.7-1C99.1,46.4,98.6,46.8,98,47.2z"/>
		<path class="st7" d="M97.7,54c-0.3-0.3-0.5-0.6-0.7-0.9C97.2,53.5,97.5,53.8,97.7,54z"/>
		<path class="st7" d="M100.7,45.8c-0.3,0.1-0.6,0.2-0.9,0.4C100.1,46,100.4,45.9,100.7,45.8z"/>
		<path class="st7" d="M98,47.2c-0.2,0.2-0.4,0.3-0.6,0.5C97.6,47.5,97.8,47.4,98,47.2z"/>
		<path class="st7" d="M108.2,45.1c-2.7-0.4-5.3-0.1-7.4,0.6c0.3-0.1,0.7-0.2,1-0.3c-1.7,1.5-3.7,3.6-3,4s2.9,5.9,3.5,7.7
			c-0.4-0.2,2.2,0.9,4.2,1.1c5.8,0.8,11-1.3,12.5-4.8C118.6,49.6,114.1,46,108.2,45.1z"/>
		<path class="st7" d="M97.7,54.1c0.3,0.3,0.6,0.6,0.9,0.8C98.3,54.6,98,54.3,97.7,54.1z"/>
	</g>
</g>
<g>
	<g>
		<g>
			<path class="st0" d="M24.9,80.7c5.7,6.7,16,10.9,31.9,10.9c16.3,0,26.7-4.3,32.3-11.6c-6.8,5.1-17.4,8.1-32.6,8.1
				C42,88.1,31.7,85.3,24.9,80.7z"/>
			<path class="st7" d="M56.7,31.2C36,31.2,19.2,47,19.2,64.4c0,6.2,1.8,11.8,5.6,16.3c6.8,4.6,17.2,7.4,31.6,7.4
				c15.1,0,25.8-2.9,32.6-8.1c3.6-4.6,5.2-10.5,5.2-17.3C94.3,45.3,77.5,31.2,56.7,31.2z"/>
		</g>
		<path class="st8" d="M88.2,67c0.7,19.1-30.9,15.7-30.9,15.7S26.3,87.1,26.3,67c0-11.5,13.9-20.7,30.9-20.7S88.2,55.6,88.2,67z"/>
		<path class="st9" d="M88.2,66c0.7,19.1-13.9,15.7-30.9,15.7S26.3,86.1,26.3,66c0-11.5,13.9-20.7,30.9-20.7S88.2,54.6,88.2,66z"/>
		<g>
			<path class="st10" d="M86.7,66.4c0-1.6-0.3-3.2-0.8-4.6c-1.1,10.4-15.6,18.6-33.3,18.6c-9.5,0-18-2.4-24.1-6.1
				c3.4,10.4,14.9,7.2,28.6,7.2C73.4,81.4,87.3,85.1,86.7,66.4z"/>
			<path class="st11" d="M85.9,61.8C82.8,52.8,71.1,46.2,57,46.2c-16.4,0-29.6,9.1-29.6,20.2c0,3.2,0.4,5.8,1,7.8
				c6.1,3.8,14.6,6.1,24.1,6.1C70.3,80.4,84.8,72.2,85.9,61.8z"/>
		</g>
		<g>
			<path class="st12" d="M16.4,71.8c-0.6,0-1.3-0.1-1.9-0.2c0.5,2.8,1,4.7,1,4.7c3.6,1.5,9.4,1.5,9.4,1.5V66.6
				C22.9,69.8,19.8,71.8,16.4,71.8z"/>
			<path class="st13" d="M24.9,66.6V49.9c-6.9,2.7-11.9,6.6-11.9,6.6c-0.4,3.3,0.7,10.3,1.6,15c0.6,0.1,1.2,0.2,1.9,0.2
				C19.8,71.8,22.9,69.8,24.9,66.6z"/>
		</g>
		<g>
			<path class="st12" d="M100.5,58.1c-0.3-1.1-0.8-2.5-1.4-4.1c-1.9,2.5-4.8,4.2-8.2,4.5l3,7.3c0,0,0.6-0.3,1.4-0.7
				c0-0.3-0.1-0.6-0.1-0.9C95.3,61.5,97.4,59.1,100.5,58.1z"/>
			<path class="st13" d="M99.1,54c-1.5-4.1-3.5-8.8-3.5-8.8s-5-3.8-11.3-2.7l6.6,16C94.3,58.2,97.2,56.5,99.1,54z"/>
			<path class="st14" d="M100.8,59.3c-0.1-0.3-0.2-0.7-0.3-1.2c-3.1,1-5.2,3.4-5.2,6.1c0,0.3,0,0.6,0.1,0.9
				C97.5,63.9,101.3,61.5,100.8,59.3z"/>
			<path class="st15" d="M94.9,49.4c0,0-6.2-2.2-2.8-4.3C94.3,43.9,94.9,49.4,94.9,49.4z"/>
		</g>
		<path class="st9" d="M44.9,62.4c-0.9,3.4-3.5,5.6-5.9,5c-3.3-0.8-3.6-3.9-2.7-7.2c0.9-3.4,3.5-5.6,5.9-5
			C44.5,55.8,45.7,59,44.9,62.4z"/>
		<g>
			<path class="st9" d="M59,70.7c1.2-0.4,2.4-0.6,3.6-0.6c0.1-0.7,0.1-1.3,0.1-2c0-1.1-0.1-2.1-0.3-3.1l-12,0.8
				c-0.1,0.8-0.2,1.5-0.2,2.4c0,3.5,1,6.5,2.5,8.4C53.2,74.2,55.6,71.9,59,70.7z"/>
			<path class="st16" d="M56.4,78.6c3,0,5.5-3.7,6.1-8.5c-1.1,0-2.3,0.2-3.6,0.6c-3.4,1.1-5.8,3.5-6.3,5.8
				C53.8,77.8,55,78.6,56.4,78.6z"/>
		</g>
		<circle class="st17" cx="37.2" cy="73.6" r="3.3"/>
		<circle class="st17" cx="79.3" cy="72.7" r="3.3"/>
		<path class="st18" d="M75.6,63.8c-0.1,0-0.3,0-0.4-0.1c-3.4-2.2-12-2.7-12.1-2.7c-0.4,0-0.7-0.3-0.7-0.7c0-0.4,0.2-0.7,0.5-0.8
			l10.9-3.2c0.4-0.1,0.8,0.1,0.9,0.5c0.1,0.4-0.1,0.8-0.5,0.9L67,59.9c2.9,0.4,6.8,1.1,8.9,2.5c0.3,0.2,0.4,0.7,0.2,1
			C76,63.7,75.8,63.8,75.6,63.8z"/>
		<path class="st19" d="M84.8,65.1c0.5,10.1-3.9,14.7-10.6,14.8c3.8-19.1-11.1-31.3-9.8-31.5C75.5,48.4,84.8,55.9,84.8,65.1z"/>
		<path class="st19" d="M28.5,65.6c-0.5,3.8,0.8,5.4,1.7,5.5c0.9,0,0.1-1.9,0.8-6s0.8-6,0.8-6C29.6,59,29,61.8,28.5,65.6z"/>
	</g>
	<path class="st20" d="M101.1,150.7c0,2-19.4,2.2-43.3,2.2s-43.3-0.1-43.3-2.2c0-2,19.4-4.8,43.3-4.8S101.1,148.7,101.1,150.7z"/>
	<path class="st15" d="M16.8,61.2c0,0,4.6-1.5,1.9-5.1C14.8,54.7,16.8,61.2,16.8,61.2z"/>
	<g>
		<path class="st12" d="M48.9,141.4c0.3,0.6,0.6,1.2,0.9,1.8c1-2.8,2-5.6,2-5.6l-10.3-7.6l-5.7-1.2v2.1
			C40.4,131.6,45.5,135.5,48.9,141.4z"/>
		<path class="st13" d="M33.2,150.1c0.1,0.9,13.3,0.3,14.2-1.1c0.4-0.7,1.4-3.3,2.4-5.9c-0.3-0.6-0.6-1.2-0.9-1.8
			c-3.4-5.9-8.5-9.8-13.1-10.6V147C35.8,147,33.1,149.3,33.2,150.1z"/>
	</g>
	<path class="st21" d="M36.2,148.1c0.3,0.8,3.6,1.3,4.5-0.2c0.4-0.7,0.4-1.9-0.2-2.3c-0.9-0.6-2.5,0.6-2.9,0.9
		C37.2,146.7,36,147.5,36.2,148.1z"/>
	<g>
		<path class="st12" d="M68.1,141.4c-0.3,0.6-0.6,1.2-0.9,1.8c-1-2.8-2-5.6-2-5.6l10.3-7.6l5.7-1.2v2.1
			C76.6,131.6,71.5,135.5,68.1,141.4z"/>
		<path class="st13" d="M83.8,150.1c-0.1,0.9-13.3,0.3-14.2-1.1c-0.4-0.7-1.4-3.3-2.4-5.9c0.3-0.6,0.6-1.2,0.9-1.8
			c3.4-5.9,8.5-9.8,13.1-10.6V147C81.2,147,83.9,149.3,83.8,150.1z"/>
	</g>
	<path class="st21" d="M80.8,148.1c-0.3,0.8-3.6,1.3-4.5-0.2c-0.4-0.7-0.4-1.9,0.2-2.3c0.9-0.6,2.5,0.6,2.9,0.9
		C79.8,146.7,81,147.5,80.8,148.1z"/>
	<g>
		<path class="st0" d="M59.1,134c-12.7,0-23.4-8.7-26.7-20.7l0.1,14.2l20.7,12l9.1,0.3l21-11.9l-0.1-8.3
			C78.5,128.2,69.4,134,59.1,134z"/>
		<path class="st0" d="M68.3,91.1c-1.4,2.1-5.2,3.7-9.8,3.7c-4.7,0-8.7-1.7-9.9-3.9c-0.8-0.1-1.6-0.2-2.4-0.3l-5.8,3.3
			c4.4,1.1,10.5,1.9,17.2,1.9c6.7,0,12.8-0.7,17.2-1.9l-5.1-3C69.1,91,68.7,91,68.3,91.1z"/>
		<path class="st9" d="M58.5,94.8c4.6,0,8.5-1.6,9.8-3.7c-5.8,0.8-12.5,0.6-19.8-0.2C49.7,93.1,53.7,94.8,58.5,94.8z"/>
		<path class="st7" d="M59.1,134c10.3,0,19.3-5.8,24.1-14.4l-0.1-20.9l-8.4-4.9c-4.4,1.1-10.5,1.9-17.2,1.9
			c-6.7,0-12.8-0.7-17.2-1.9l-8,4.5l0.1,14.9C35.8,125.3,46.4,134,59.1,134z"/>
	</g>
	<g>
		<path class="st0" d="M57.2,98.8c0.2,0,0.5,0,0.7,0c0.4,0.2,0.8,0.3,1.1,0.5c2.9,1.7,5.8,3.4,8.7,5.1c0.9,0.5,1.4,1.4,1.4,2.4
			c0,3.5,0,7-0.1,10.5c0,1-0.5,1.7-1.3,2.2c-3,1.7-5.9,3.4-8.9,5.1c-0.9,0.5-1.9,0.5-2.8,0c-2.9-1.7-5.8-3.4-8.7-5.1
			c-0.9-0.5-1.4-1.4-1.4-2.4c0-3.5,0-7,0.1-10.6c0-0.9,0.5-1.7,1.3-2.1C50.6,102.5,53.9,100.7,57.2,98.8z"/>
		<path class="st22" d="M57.2,100c0.2,0,0.4,0,0.6,0c0.3,0.1,0.7,0.2,1,0.4c2.7,1.5,5.3,3.1,8,4.6c0.8,0.5,1.3,1.2,1.3,2.2
			c0,3.2,0,6.4-0.1,9.6c0,0.9-0.4,1.6-1.2,2c-2.7,1.6-5.4,3.1-8.1,4.7c-0.8,0.5-1.7,0.5-2.5,0c-2.7-1.5-5.3-3.1-7.9-4.6
			c-0.8-0.5-1.3-1.2-1.3-2.2c0-3.2,0-6.4,0.1-9.7c0-0.9,0.5-1.5,1.2-1.9C51.2,103.3,54.2,101.7,57.2,100z"/>
		<path class="st7" d="M55.4,111.3c0.4-0.2,0.6-0.2,0.8-0.4c0.9-0.5,1.9-0.5,2.8-0.3c1.7,0.4,2.6,1.7,2.5,3.8c0,1.2-0.5,2.3-1.6,2.8
			c-1.2,0.6-2.5,0.6-3.7-0.1c-1.1-0.7-1.4-1.8-1.4-2.9c0-2.9,0-5.9,0-8.8c0-1.6,0-1.6-1.6-1.6c-0.4,0-0.6,0.1-0.6,0.6
			c0,3.4,0,6.9,0,10.3c0,1.3,0.4,2.4,1.3,3.3c1.6,1.6,3.5,2,5.6,1.5c2.2-0.5,4.2-2.2,4.2-5.6c0-4.2-4.2-6.6-7.9-4.9
			c-0.2,0.1-0.3,0.3-0.4,0.5C55.4,110.1,55.4,110.6,55.4,111.3z"/>
	</g>
	<g>
		<g>
			<path class="st0" d="M32.3,98.5l0.2-0.1c2.2-0.6,6.8,3.5,5.8,5.8c-5.9,14,9,14.7,18.8,17.4c2,8-2.6,12.9-3.8,12.8
				c-9.1-1.2-16.8-6.7-21.2-14.6L32.3,98.5z"/>
		</g>
		<g>
			<g>
				<path class="st7" d="M26.7,106.9l4.4-6.2l1.7-2.4c0,0,5.6,3.8,4.5,7c-1,2.9-2.1,6.3-2.3,8.2c-2.4,0.2-5.2,0.9-6.7,2.6
					c-1,1.1-1.6,2.6-1.9,4C22.5,111.9,26.7,106.9,26.7,106.9z"/>
				<path class="st7" d="M28.3,116.1c1.6-1.7,4.3-2.4,6.7-2.6c0,0.1,0,0.2,0,0.2c-0.3,3.2,4.4,4.2,6,4.4c0.3,0,0.5,0.1,0.5,0.1
					l6.4,1.3l0.2,0c0,0,6.4-2.5,9.5,5c0.1,4.5-1.1,9.2-3.4,9.9c-2.2,0.6-5.6,0.1-7.4-0.2c-0.8-0.2-1.3-0.3-1.3-0.3
					s-6.2-1.1-11.8-5.1c-2.3-1.7-4.5-3.8-6.2-6.6c-0.4-0.7-0.8-1.4-1.1-2.1C26.7,118.7,27.2,117.2,28.3,116.1z"/>
				<path class="st0" d="M48,119.5c0,0,7.6-4.3,8.9,0.6c0.4,1.3,0.5,2.8,0.6,4.3C54.4,116.9,48,119.5,48,119.5z"/>
				<path class="st23" d="M35,113.4"/>
				<path class="st0" d="M27.5,119.7c1.7,2.8,3.9,4.9,6.2,6.6c5.6,4,11.8,5.1,11.8,5.1s0.5,0.1,1.3,0.3c1.8,0.4,5.2,0.8,7.4,0.2
					c1.9-0.5,3-3.9,3.3-7.5c0,0,0,0.1,0.1,0.1c0.1,4.5-1.1,9.2-3.4,9.9c-2.2,0.6-5.6,0.1-7.4-0.2c-0.8-0.2-1.3-0.3-1.3-0.3
					s-6.2-1.1-11.8-5.1c-2.3-1.7-4.5-3.8-6.2-6.6c-0.4-0.7-0.8-1.4-1.1-2.1c0.1-0.5,0.3-1.1,0.5-1.6
					C27.1,118.9,27.3,119.3,27.5,119.7z"/>
				<path class="st9" d="M27,121.4c0,0,1.1-3.9,1.9-4.7c1.1-1.2,3.7-2,6.1-2.3c0-0.6,0-0.9,0.2-1.7c-1.8,0.2-5.7,0.9-7.5,2.9
					c-0.8,0.9-1.4,2.3-1.7,3.5C26.2,120.1,27,121.4,27,121.4z"/>
			</g>
			<ellipse transform="matrix(0.1926 -0.9813 0.9813 0.1926 -81.604 154.0361)" class="st24" cx="52.8" cy="126.6" rx="5" ry="3"/>
			<path class="st0" d="M47.1,113.9c-1.7-0.9-4.1,0.4-5.3,2.7c-1.2,2.4,0.3,5.5,1,5.9c1.5,0.9,4.1-0.4,5.3-2.7
				C49.2,117.4,48.8,114.8,47.1,113.9z"/>
			<path class="st7" d="M46.6,115c-1.6-0.8-3.8,0.5-5,2.9c-1.2,2.4,0.1,5.4,0.7,5.7c1.4,0.8,3.8-0.5,5-2.9
				C48.5,118.3,48.2,115.8,46.6,115z"/>
		</g>
	</g>
</g>
<g>
	<path class="st18" d="M87.8,38.1c-0.4-0.6-0.7-1-1-1.5c-0.2-0.3-0.4-0.7-0.7-1.1c-0.6-1.1-1.4-2.3-2.5-2.9l0-0.3
		c0.2-8.8-10.3-22.9-18.2-24.3l-0.6-0.1c-0.3-1.2-0.9-2.2-1.7-3c-1.4-1.3-3.4-1.8-6.1-1.4l-0.2,0C56,1.2,54-0.1,51.5,0
		c-2.6,0.1-4.9,0.4-7,0.8c-2.1,0.4-4.3,1.6-4.6,4.7l-0.1,0c-2.6,0.3-4.4,1.2-5.5,2.8c-0.6,0.9-0.9,1.9-1,3L32,12.3
		c-8,6.1-12.8,18.2-11,27.6l0.1,0.4c-0.3,0.2-0.5,0.5-0.7,0.9c-0.7,1.6-1.2,3.2-1.8,4.9L17.2,50l2.3,0.5c0.4,0.1,0.8,0.2,1.3,0.3
		c1,0.2,2,0.5,3.1,0.5c1.3,0,2.6,0.1,3.9,0.2c4.2,0.2,8.5,0.4,12.7,0.2c5.4-0.3,10.4-0.7,15.2-1.3c9.5-1.2,17.9-3.1,25.9-5.7
		c1.5-0.5,2.9-1.1,4.2-1.7c0.6-0.3,1.2-0.6,1.9-0.8l2.3-1L87.8,38.1z"/>
	<g>
		<g>
			<g>
				<path class="st25" d="M20,48.5c0.8-2.3,1.5-4.4,2.4-6.5c0.1-0.3,0.9-0.5,1.4-0.6c8.8-0.6,17.7-0.8,26.4-1.9
					c9.3-1.1,18.4-3.1,27.7-4.6c1.5-0.3,3.3-1.2,4.6-0.7c1.2,0.4,1.8,2.3,2.7,3.5c0.5,0.7,1,1.4,1.7,2.4c-2,0.9-3.9,1.9-5.9,2.5
					c-13.1,4.4-26.7,6.2-40.5,6.9c-5.5,0.3-10.9-0.1-16.4-0.3C22.7,49.2,21.4,48.8,20,48.5z"/>
			</g>
			<path class="st26" d="M82.4,34.2c-1.3-0.5-3,0.4-4.6,0.7c-9.2,1.6-18.4,3.5-27.7,4.6c-8.7,1.1-17.6,1.3-26.4,1.9
				c-0.5,0-1.3,0.2-1.4,0.6c-0.5,1.3-1,2.7-1.5,4c1,0.2,1.9,0.5,2.8,0.5c5.5,0.2,11,0.6,16.4,0.3c13.8-0.7,27.4-2.5,40.5-6.9
				c1.6-0.5,3.1-1.3,4.7-2c-0.1-0.1-0.1-0.2-0.2-0.2C84.2,36.5,83.6,34.7,82.4,34.2z"/>
			<g>
				<path class="st27" d="M22.9,42.2c9.2-0.7,18.5-0.9,27.7-2c9.7-1.2,19.3-3.2,29-4.8c1.1-0.2,2.4-0.7,3.5-0.8
					c-0.2-0.1-0.4-0.3-0.6-0.3c-1.3-0.5-3,0.4-4.6,0.7c-9.2,1.6-18.4,3.5-27.7,4.6c-8.7,1.1-17.6,1.3-26.4,1.9
					c-0.5,0-1.3,0.2-1.4,0.6c0,0.1-0.1,0.2-0.1,0.3C22.4,42.3,22.7,42.2,22.9,42.2z"/>
			</g>
			<g>
				<path class="st26" d="M43.8,30.5c-1.3-7.7-2.6-15.3-3.8-22.9c-3.9,0.4-5.4,2.6-4.5,6.3c0.6,2.3,1,4.6,1.5,6.8
					c0.1,0.5,0,1.1,0.1,1.7c-0.4-0.1-0.7-0.1-0.7-0.2c-1-2.7-2.1-5.5-3.1-8.3c-6.8,5.1-10.6,14.3-10.5,22
					C36.3,40.7,41.9,34,43.8,30.5z"/>
				<path class="st26" d="M79.7,25c-3.1-6.9-9.7-14.1-14.7-15C65,13,65.2,16.1,64,19c-0.4-0.5-0.7-1-0.7-1.6
					c-0.1-2.3-0.3-4.6-0.2-6.9c0.1-4-1.7-5.7-5.8-5.2c0.6,7.1,1.2,14.2,1.8,21.4l0,0C66,35.2,74.6,29.8,79.7,25z"/>
				<path class="st26" d="M47.3,38c2.6-0.3,5-0.6,7.4-0.9c0.5-0.1,0.8-0.1,1.2-0.2L47.3,38C47.3,38,47.3,38,47.3,38z"/>
				<path class="st26" d="M57.4,32.7c-0.7-9.1-1.5-18.3-2.2-27.4C55,3.2,53.7,1.9,51.6,2c-2.2,0.1-4.5,0.3-6.6,0.8
					c-2.6,0.6-3.4,2-3,4.6c1,6,2,12.1,3,18.1c0.5,2.8,1,5.5,1.5,8.3C51,37.3,55.4,34.4,57.4,32.7z"/>
				<g>
					<path class="st25" d="M23.1,39.5c7.3-0.4,14.6-0.9,22.1-1.3c-0.4-2.6-0.9-5.2-1.3-7.8c-1.9,3.5-7.5,10.3-21.1,5.5
						C22.7,37.2,22.8,38.4,23.1,39.5z"/>
				</g>
				<g>
					<path class="st25" d="M81.5,32.2c0-2.1-0.7-4.7-1.8-7.2C74.6,29.8,66,35.2,59,26.8l0,0c0.3,3.2,0.5,6.4,0.8,9.6
						C67.2,35,74.4,33.6,81.5,32.2z"/>
				</g>
				<g>
					<path class="st25" d="M57.4,33.6c0-0.3,0-0.6-0.1-0.9c-2,1.7-6.4,4.5-10.9,1.1c0.2,1.4,0.5,2.7,0.7,4.1l8.6-1.1
						C57.7,36.6,57.7,36.2,57.4,33.6z"/>
				</g>
				<g>
					<g>
						<path class="st28" d="M33.4,15.2c1,2.8,2.1,5.6,3.1,8.3c0,0.1,0.3,0.1,0.7,0.2c0-0.7,0.1-1.2-0.1-1.7c0-0.2-0.1-0.3-0.1-0.5
							c0,0.3,0,0.6,0,0.9c-0.4-0.1-0.7-0.1-0.7-0.2c-1-2.7-2.1-5.5-3.1-8.3c-6.8,5.1-10.6,14.3-10.5,22c0.1,0,0.1,0,0.2,0.1
							C23.2,28.6,27,20.1,33.4,15.2z"/>
						<path class="st28" d="M40.2,8.9c1.2,7.2,2.4,14.3,3.6,21.6c0,0,0-0.1,0-0.1c-1.3-7.7-2.6-15.3-3.8-22.9
							c-3.8,0.4-5.3,2.4-4.6,5.8C35.4,10.8,36.9,9.3,40.2,8.9z"/>
					</g>
				</g>
				<g>
					<g>
						<path class="st29" d="M63.4,18c0,0.3,0,0.5,0,0.8c0,0.5,0.3,1,0.7,1.6c1.2-2.9,1-6,1.1-9.1c4.7,0.9,10.9,7.4,14.2,14
							c0.1-0.1,0.2-0.2,0.3-0.3c-3.1-6.9-9.7-14.1-14.7-15C65,13,65.2,16.1,64,19C63.7,18.7,63.5,18.4,63.4,18z"/>
						<path class="st29" d="M57.4,6.7c3.3-0.4,5.1,0.7,5.6,3.1c-0.2-3.5-2-4.9-5.8-4.5c0.6,7.1,1.2,14.2,1.8,21.4c0,0,0,0,0.1,0.1
							C58.5,20.1,57.9,13.4,57.4,6.7z"/>
					</g>
				</g>
				<g>
					<path class="st30" d="M45.1,4.2c2.2-0.5,4.4-0.7,6.6-0.8c1.8-0.1,3,0.9,3.4,2.5c0-0.2,0-0.4,0-0.6C55,3.2,53.7,1.9,51.6,2
						c-2.2,0.1-4.5,0.3-6.6,0.8c-2.6,0.6-3.4,2-3,4.6c0,0.1,0,0.2,0.1,0.4C42,5.8,42.9,4.7,45.1,4.2z"/>
				</g>
			</g>
		</g>
	</g>
</g>
</svg>
