<?xml version="1.0" encoding="utf-8"?>
<!-- Generator: Adobe Illustrator 26.0.0, SVG Export Plug-In . SVG Version: 6.00 Build 0)  -->
<svg version="1.1" id="Capa_1" xmlns="http://www.w3.org/2000/svg" xmlns:xlink="http://www.w3.org/1999/xlink" x="0px" y="0px"
	 viewBox="0 0 134.9 182.7" style="enable-background:new 0 0 134.9 182.7;" xml:space="preserve">
<style type="text/css">
	.st0{fill:#E62C24;}
	.st1{fill:#F39234;}
	.st2{fill:#F6E616;}
	.st3{opacity:0.18;fill:#020203;}
	.st4{fill:#D5232A;}
	.st5{fill:#E62D2A;}
	.st6{fill:#E62D2C;}
	.st7{fill:#DC191D;}
	.st8{fill:#F4A39D;}
	.st9{fill:#FFFFFF;}
	.st10{fill:#44A2DB;}
	.st11{fill:#E62F2A;}
	.st12{fill:#F4A5A9;}
	.st13{fill:#2B193A;}
	.st14{fill:#E73331;}
	.st15{fill:none;stroke:#005885;stroke-width:0.5232;stroke-miterlimit:10;}
	.st16{fill:#3DA5DD;}
	.st17{fill:#278DCA;}
	.st18{fill:#A7DCF7;}
	.st19{fill:#DFE5E9;}
	.st20{fill:#BFD4DD;}
	.st21{fill:#ABCADC;}
	.st22{fill:#B8D1DD;}
	.st23{fill:#F9B140;}
	.st24{fill:#E89122;}
	.st25{fill:#F4ED86;}
	.st26{fill:#005885;}
	.st27{fill:#A9C8DB;}
	.st28{fill:#F9BD8F;}
	.st29{fill:#F8CE5E;}
	.st30{fill:#ED6F74;}
	.st31{fill:#E94164;}
	.st32{fill:#020203;}
	.st33{fill:none;}
	.st34{opacity:0.45;fill:#FFFFFF;}
	.st35{fill:none;stroke:#005885;stroke-width:2;stroke-miterlimit:10;}
</style>
<g>
	<g>
		<g>
			<path class="st0" d="M37.1,152.9c0,0-6.1,27.6-36.3,29.7c0,0-7.6-23.4,23.4-41.3L37.1,152.9z"/>
			<path class="st1" d="M35.7,151.8c-0.7-0.6-3.6,21.7-28.7,23.3c0,0-6.3-17.7,19.5-31.1C26.4,144,36.4,152.4,35.7,151.8z"/>
			<path class="st2" d="M33,151.6c0,0-3,12.8-18.2,13.8c0,0-3.8-10.9,11.7-19.2L33,151.6z"/>
			<path class="st3" d="M24.2,141.4c-0.1,0-0.1,0.1-0.2,0.1c1,2.8,1.6,5.9,1.6,9.1c0,12.6-8.8,22.9-19.6,22.9c-2,0-4-0.4-5.9-1
				c-0.7,6.1,0.6,10.3,0.6,10.3c30.3-2.1,36.3-29.7,36.3-29.7L24.2,141.4z"/>
		</g>
		<g>
			<path class="st4" d="M88,136.9c-0.7-5.1-2.5-7.7-2.5-7.7l-18.3,10.8c8.6,4.6,4.8,21,2.4,24.8c-2.4,3.8,0.5,2.7,0.5,2.7
				s2.6-1.1,5.8-3.3C78.1,148,83.2,140.4,88,136.9z"/>
			<path class="st5" d="M87.4,148.5c1-4.7,1-8.6,0.6-11.6c-4.8,3.6-10,11.1-12,27.1C80.4,161,85.9,155.8,87.4,148.5z"/>
		</g>
		<g>
			<path class="st6" d="M32.2,113.4l6.5-20.2c0,0-7.6-3-19.3,2.4C7.7,101,4.8,116.5,4.8,116.5s-0.4,3.1,2.7-0.1S25.9,106,32.2,113.4
				z"/>
			<path class="st7" d="M19.4,95.6c-0.3,0.1-0.5,0.3-0.8,0.4c0.8,2.2,1.3,4.8,1.2,7c-0.1,3.1-1,5.9-2.5,8.3
				c5.3-1.6,11.4-1.9,14.9,2.1l6.5-20.2C38.8,93.2,31.2,90.2,19.4,95.6z"/>
			<path class="st8" d="M22.3,97.9c0,0-7.8,4.1-14.5,15.5c0,0,2-13.1,14-17.7L22.3,97.9z"/>
		</g>
		<path class="st9" d="M134.5,33.6c0,0-0.4-4.4-5.1-4c-7.2,0.6-61,17.8-75.1,36.2C42.4,80,22.6,117,22.3,142.3l14,12.9
			c0,0,44.4-10.2,68.6-41.2s25.6-46,28.3-60.8S134.5,33.6,134.5,33.6z"/>
		<path class="st10" d="M24.4,126c-1.3,5.8-2,11.3-2.1,16.3l14,12.9c0,0,6.1-1.4,14.9-4.7C44.6,147,30.6,137.6,24.4,126z"/>
		<path class="st11" d="M134.5,33.6c0,0-0.4-4.4-5.1-4c-2.4,0.2-10.5,2.5-20.6,6.1c7.6,1.3,21.6,15,23.8,20.6c0.2-1,0.4-2,0.5-3
			C135.9,38.4,134.5,33.6,134.5,33.6z"/>
		<path class="st12" d="M132.2,32.4c0,0-12.2,3.2-18,5.4l-3.5-1.8l18.2-5.3C128.9,30.7,132.4,30.1,132.2,32.4z"/>
		<path class="st3" d="M132.2,32.4c0,0-7.3,26.1-13.3,35.4c-2.1,3.2-4.3,8.3-7.3,14c-0.1-7.7-5-15-5-15L76.8,82.2
			c0,0,6.5,21.7,25.1,13.5c0.5-0.2,0.9-0.4,1.3-0.6c-5.4,6.9-12.6,13.3-22.8,17C55.1,121.4,52,97.4,52,97.4L47.6,75
			c-4.9,6.3-17.9,31.9-20.9,43.6c0,0,16.3,11.3,13.3,20c-3,8.7-17.2-3.7-17.2-3.7l-0.4,7.4l10.3,9.5c0,0,41.1-10,60.3-31.8
			s35.5-45.1,38.3-66.5C134.1,32.2,132.2,32.4,132.2,32.4z"/>
		<g>
			<ellipse class="st13" cx="93" cy="75.3" rx="17.6" ry="17.3"/>
			<ellipse class="st14" cx="93" cy="75.3" rx="16.1" ry="15.8"/>
			<ellipse class="st13" cx="93" cy="75.3" rx="12.6" ry="12.3"/>
			<ellipse class="st15" cx="93" cy="75.3" rx="10.8" ry="10.6"/>
			<path class="st12" d="M93,61.1c8.6,0,15.7,6.7,16.1,15c0-0.3,0-0.5,0-0.8c0-8.7-7.2-15.8-16.1-15.8s-16.1,7.1-16.1,15.8
				c0,0.3,0,0.5,0,0.8C77.3,67.8,84.3,61.1,93,61.1z"/>
			<ellipse class="st16" cx="93" cy="75.3" rx="10.8" ry="10.6"/>
			<path class="st17" d="M93,82c-5.3,0-9.7-3.7-10.6-8.6c-0.1,0.6-0.2,1.3-0.2,2c0,5.9,4.8,10.6,10.8,10.6c6,0,10.8-4.7,10.8-10.6
				c0-0.7-0.1-1.3-0.2-2C102.7,78.3,98.3,82,93,82z"/>
			<path class="st18" d="M93,64.7c-2.1,0-4,0.6-5.6,1.5c3.2,0.4,7.6,0.5,7.8,1.9c0.1,0.7-1,1.1-0.9,2.1c0.1,1.7,3.2,3.3,4.5,2.5
				c1.3-0.8,0.4-3.8,1.1-4c0.9-0.3,2.6,4.6,3.9,5.9C103.4,69.1,98.7,64.7,93,64.7z"/>
		</g>
	</g>
	<g>
		<g>
			<g>
				<polygon class="st19" points="67.6,64.3 56.2,71.1 49.3,91.1 56.1,100 				"/>
				<polygon class="st20" points="41.5,61.4 53.5,54.2 67.6,64.3 56.2,71.1 				"/>
				<polygon class="st21" points="29.4,62.6 41.5,61.4 53.5,54.2 39.3,55.5 				"/>
				<polygon class="st20" points="36.3,102.4 54,103.9 49.3,91.1 31.7,89.9 				"/>
				<polygon class="st21" points="26.2,92.3 36.3,102.4 31.7,89.9 22.7,81.9 				"/>
				<polygon class="st22" points="31.8,89.4 41.5,61.4 56.2,71.1 49.3,91.1 31.7,89.9 				"/>
				<polygon class="st21" points="22.7,81.9 29.4,62.6 41.5,61.4 31.7,89.9 				"/>
			</g>
			<g>
				<g>
					<g>
						<path class="st19" d="M73.6,1.7C56.7-4.2,37.9,6,32.2,22.5c-2,5.8-2.4,11.7-0.7,17c2.5,7.9,9.5,14.8,22.4,19.3
							C67.2,63.4,77,62.3,84,56.9c4.4-3.4,7.7-8.5,9.9-14.9C99.6,25.6,90.5,7.5,73.6,1.7z"/>
						<path class="st21" d="M64.1,57.8c-20.6-7.1-32.3-27.5-26-45.5c0-0.1,0-0.1,0.1-0.2c-2.5,3-4.6,6.5-5.9,10.3
							c-2,5.8-2.4,11.7-0.7,17c2.5,7.9,9.5,14.8,22.4,19.3c9.7,3.4,17.6,3.7,23.9,1.5C73.2,60.2,68.6,59.4,64.1,57.8z"/>
						
							<ellipse transform="matrix(0.3267 -0.9451 0.9451 0.3267 5.529 61.0687)" class="st23" cx="45.6" cy="26.7" rx="14" ry="9.4"/>
						<g>
							<path class="st24" d="M57.5,24.7C57.5,24.7,57.5,24.7,57.5,24.7c-1,2.8-2.3,5.2-3.9,7.3c-2.7,5.6-7.4,8.9-11.6,8.2
								c0.3,0.2,0.6,0.3,0.9,0.4c4.9,1.7,11-2.9,13.5-10.2C57.1,28.4,57.5,26.5,57.5,24.7z"/>
							<path class="st25" d="M57.5,24.7c0.2-5.1-1.8-9.4-5.4-10.6c-0.3-0.1-0.6-0.2-1-0.3c4.2,2.3,5.8,9.1,3.4,16
								c-0.3,0.8-0.6,1.5-0.9,2.2C55.2,29.9,56.6,27.4,57.5,24.7C57.5,24.7,57.5,24.7,57.5,24.7z"/>
						</g>
						<path class="st25" d="M38,27.9c0,0-3.8,3.1,0.1,5.4C42.1,33.3,38,27.9,38,27.9z"/>
					</g>
					<g>
						<path class="st26" d="M53.5,62c4.3,1.5,8.5,1.3,10.5-0.3c-5.8-1.1-12-3.5-18.6-6.7C45.8,57.5,49,60.4,53.5,62z"/>
					</g>
				</g>
			</g>
			<path class="st27" d="M82.8,54.6c0,0,4.3,0.1,7-1.9c2.7-2,8.6-16.2,5.8-26S79.9,14.5,79.9,14.5s-12.8-3.1-21.4,13.7
				s6.3,21.6,6.3,21.6S78,54.6,82.8,54.6z"/>
			<path class="st26" d="M83.2,53.1c0,0,4.2,0.2,6.8-1.7c2.6-1.9,8.3-15.3,5.4-24.7S79.8,14.8,79.8,14.8S67.2,11.7,59,27.7
				s6.4,20.7,6.4,20.7S78.4,53.1,83.2,53.1z"/>
			<path class="st28" d="M83.3,52.4c0,0,4.1,0.2,6.6-1.6c2.6-1.8,8-14.7,5.1-23.6S80,15.7,80,15.7s-12.2-3.1-20.1,12.2
				s6.3,19.8,6.3,19.8S78.8,52.3,83.3,52.4z"/>
			<g>
				<path class="st23" d="M31.7,89.9l17.6,1.2l2.2,2.3L62,105.6c0,0,3.4,0.2,3.8,0.8c0.5,0.7-9.1,8.3-10.7,7.7
					c-0.8-0.3-3.2-1.6-5.5-3c-2.6-1.5-13.4-8.7-13.4-8.7L31.7,89.9z"/>
				<g>
					<path class="st24" d="M49,107.5c2.5,2.2,5.4,3.6,7.8,3.9c0.1,0.7,0.4,1.3,0.7,2c-1.1,0.6-1.9,1-2.3,0.8c-0.8-0.3-3.2-1.6-5.5-3
						c-2.6-1.5-13.4-8.8-13.4-8.8l-4.6-12.6l3.4,0.2l8.6,11.2C44.6,102.6,47.5,106.3,49,107.5z"/>
				</g>
				<path class="st29" d="M64.9,106.8c0.2,0.9-2.3,3-3.9,2.3c-0.8-0.4-1.3-1.4-1.1-2.1c0.4-1,2.4-0.9,2.9-0.9
					C63.3,106.1,64.7,106.2,64.9,106.8z"/>
			</g>
			<g>
				<circle class="st30" cx="69" cy="40.9" r="3.3"/>
				<g>
					<path class="st26" d="M80.2,36.7c-0.2,0.5-0.4,1-0.5,1.5c-0.5,2.2-0.1,4.4,0.9,5.9c0.7,1,1.6,1.8,2.8,2
						c2.5,0.5,5.1-1.4,6.3-4.4c0.2-0.4,0.3-0.8,0.4-1.3c0.1-0.6,0.2-1.5,0.2-1.5L80.2,36.7z"/>
					<path class="st31" d="M88.1,43.5c0.3-1.2-0.5-2.4-1.8-2.6c0,0-1.2-0.3-1.6-0.1c-0.2-0.3-1.5-0.6-1.5-0.6
						c-1.2-0.3-2.5,0.5-2.7,1.6l-0.7,3.4c-0.4,1.9,0.9,3.8,2.9,4.2l0.4,0.1c2,0.4,3.9-0.7,4.3-2.6L88.1,43.5z"/>
				</g>
				<path class="st32" d="M70.3,31.2c0.1,0,0.3,0.1,0.4,0c3.9-1,12.2,1.4,12.3,1.4c0.4,0.1,0.7-0.1,0.9-0.4c0.2-0.3,0.1-0.7-0.2-0.9
					l-9.2-6.6c-0.3-0.2-0.8-0.2-1,0.2c-0.2,0.3-0.2,0.8,0.2,1l6.1,4.4c-2.9-0.6-6.8-1.1-9.3-0.5c-0.4,0.1-0.6,0.5-0.5,0.9
					C69.8,30.9,70,31.1,70.3,31.2z"/>
				<g>
					<path class="st33" d="M96,36.7l0.2-0.5L95,36.2C95.3,36.4,95.6,36.5,96,36.7z"/>
					<path class="st32" d="M95,36.2l0.7,0.1l0.2-1.5l-4.6-0.2c-0.4,0-0.7,0.2-0.8,0.6c-0.1,0.4,0.1,0.7,0.5,0.9c0,0,2.1,0.8,4.5,2.1
						l0.3-1.5C95.7,36.5,95.3,36.4,95,36.2z"/>
				</g>
			</g>
			<path class="st34" d="M95.1,27.1c-1.1-3.4-3.5-5.9-6.2-7.6c0.6,8.2-0.6,17.8-4,27.6c-0.6,1.8-1.3,3.6-2.1,5.3c0.2,0,0.3,0,0.5,0
				c0,0,4.1,0.2,6.6-1.6C92.5,49,97.9,36.1,95.1,27.1z"/>
		</g>
		<g>
			<path class="st19" d="M67.6,85.7l-6.1-2.8l-9-4.2l-7.6-3.5c0.6-2.7,2.2-5.6,3.5-7.9l0.5-0.2l5,1l14.6,2.8l3.8,0.7
				c2,0.5,7.4,1.4,7.4,1.4s0.2,0,0.5,0.1c1.6,0.3,6.6,1.5,5.6,6.4c-1.1,5.9-4.9,8.1-9.2,11c-0.2,0.2-0.5,0.3-0.7,0.4
				C71.7,92.6,67.6,85.7,67.6,85.7z"/>
			<path class="st19" d="M78.9,73.1l0.4-0.2c0,0-1.6-5.6-4.7-3.4c-1.1,0.8-2,1.6-2.6,2.3c-1.2,1.3-1.7,2.3-1.7,2.8
				c0,0.7,0.4,2.2,1.8,1.6L78.9,73.1z"/>
			<path class="st21" d="M48.3,67.3l0.5-0.2l-8.3-2.6l-2.6,7.5l7,3.2C45.4,72.5,47,69.5,48.3,67.3z"/>
			<path class="st35" d="M52.1,78.6"/>
			<path class="st35" d="M47.8,67.1"/>
			<path class="st21" d="M72.9,85.8c-4.4-1.5-7.8-4.5-9.3-7.7L39,68.6l-1.2,3.4l7,3.2l7.6,3.5l9,4.2l6.1,2.8c0,0,4.1,6.9,8.2,5.2
				c0.2-0.1,0.5-0.2,0.7-0.4c2-1.3,3.8-2.5,5.4-4C79.2,87.1,76.1,86.9,72.9,85.8z"/>
			<path class="st26" d="M51.3,78.2c-0.3-1.9-0.7-6.1,0.1-8.1c0.2-0.6,0.7-1.6,1.2-2.4c0.3,0.1,0.9,0.1,1.4,0.3
				c-0.5,0.8-1.1,1.9-1.3,2.6c-0.7,1.9-0.2,6.5,0.1,8.3C52.2,78.6,51.9,78.7,51.3,78.2z"/>
		</g>
	</g>
</g>
</svg>
