<?xml version="1.0" encoding="utf-8"?>
<!-- Generator: Adobe Illustrator 26.0.0, SVG Export Plug-In . SVG Version: 6.00 Build 0)  -->
<svg version="1.1" id="Capa_1" xmlns="http://www.w3.org/2000/svg" xmlns:xlink="http://www.w3.org/1999/xlink" x="0px" y="0px"
	 viewBox="0 0 102 187.9" style="enable-background:new 0 0 102 187.9;" xml:space="preserve">
<style type="text/css">
	.st0{fill:#391C47;}
	.st1{fill:#FFD827;}
	.st2{fill:#B4931A;}
	.st3{fill:#22142B;}
	.st4{fill:#F5C33B;}
	.st5{fill:#F9B140;}
	.st6{fill:#E89122;}
	.st7{fill:#F8CE5E;}
	.st8{fill:#DFE5E9;}
	.st9{fill:#BFD4DD;}
	.st10{fill:#ABCADC;}
	.st11{fill:#B8D1DD;}
	.st12{fill:#F4ED86;}
	.st13{fill:#005885;}
	.st14{fill:#A9C8DB;}
	.st15{fill:#0D76BB;}
	.st16{fill:#F9BD8F;}
	.st17{opacity:0.45;fill:#FFFFFF;}
	.st18{fill:#66AADE;}
	.st19{opacity:7.000000e-02;fill:#050606;}
	.st20{fill:#ED6F74;}
	.st21{fill:#020203;}
	.st22{fill:none;stroke:#005885;stroke-width:1.9875;stroke-miterlimit:10;}
	.st23{fill:#5EC5EC;}
</style>
<g>
	<ellipse transform="matrix(0.9525 -0.3047 0.3047 0.9525 -39.751 22.1201)" class="st0" cx="51" cy="138.4" rx="51.2" ry="49.2"/>
	<ellipse transform="matrix(0.9525 -0.3047 0.3047 0.9525 -39.751 22.1201)" class="st1" cx="51" cy="138.4" rx="47" ry="45.2"/>
	<path class="st2" d="M61.6,171.5c-21.7,7-44.7-3.4-53-23.3c0.3,1.2,0.6,2.3,0.9,3.5c7.1,22.1,31.4,34,54.3,26.7
		c22.9-7.3,35.8-31.2,28.8-53.3c-0.4-1.2-0.8-2.3-1.3-3.4C96,142.8,83.3,164.5,61.6,171.5z"/>
	<g>
		<ellipse transform="matrix(0.988 -0.1545 0.1545 0.988 -21.5781 4.3851)" class="st3" cx="17.4" cy="141.1" rx="8.2" ry="8.9"/>
		<ellipse transform="matrix(0.988 -0.1545 0.1545 0.988 -21.6291 4.1697)" class="st1" cx="16" cy="141.3" rx="8.2" ry="8.9"/>
		<ellipse transform="matrix(0.988 -0.1545 0.1545 0.988 -21.6409 4.1199)" class="st3" cx="15.7" cy="141.3" rx="7" ry="7.7"/>
		<ellipse transform="matrix(0.988 -0.1545 0.1545 0.988 -21.6764 3.9701)" class="st1" cx="14.7" cy="141.5" rx="6" ry="6.6"/>
		<path class="st2" d="M13.5,135c0.1,0,0.3,0,0.4,0c-0.1,0-0.1,0-0.2,0c-3.1,1-4.8,4.6-3.8,8.1c0.8,3,3.4,4.9,6,4.8
			c-0.1,0-0.2,0.1-0.4,0.1c-3.2,0.5-6.2-2-6.8-5.6C8.2,138.8,10.3,135.5,13.5,135z"/>
	</g>
	<g>
		
			<ellipse transform="matrix(0.2174 -0.9761 0.9761 0.2174 -129.3124 174.8679)" class="st3" cx="44.4" cy="168.1" rx="13.3" ry="14.4"/>
		
			<ellipse transform="matrix(0.2174 -0.9761 0.9761 0.2174 -131.904 176.1414)" class="st1" cx="43.9" cy="170.3" rx="13.3" ry="14.4"/>
		
			<ellipse transform="matrix(0.2174 -0.9761 0.9761 0.2174 -132.503 176.4358)" class="st3" cx="43.8" cy="170.8" rx="11.4" ry="12.4"/>
		
			<ellipse transform="matrix(0.2174 -0.9761 0.9761 0.2174 -134.3045 177.321)" class="st1" cx="43.4" cy="172.4" rx="9.8" ry="10.6"/>
		<path class="st2" d="M33.4,168.9c-0.1,0.2-0.1,0.5-0.1,0.7c0-0.1,0.1-0.2,0.1-0.3c2.3-4.7,8.2-5.1,13.5-2.7
			c4.6,2.1,7.3,5.1,6.5,9.3c0.1-0.2,0.2-0.4,0.3-0.6c1.6-5-1.7-10.4-7.3-12.2S35,164,33.4,168.9z"/>
	</g>
	<g>
		
			<ellipse transform="matrix(6.454477e-02 -0.9979 0.9979 6.454477e-02 -90.3523 130.4589)" class="st3" cx="24.4" cy="113.4" rx="6.4" ry="6.9"/>
		
			<ellipse transform="matrix(6.454477e-02 -0.9979 0.9979 6.454477e-02 -91.5192 131.4191)" class="st1" cx="24.3" cy="114.5" rx="6.4" ry="6.9"/>
		
			<ellipse transform="matrix(6.454477e-02 -0.9979 0.9979 6.454477e-02 -91.789 131.6411)" class="st3" cx="24.3" cy="114.8" rx="5.4" ry="5.9"/>
		
			<ellipse transform="matrix(6.454477e-02 -0.9979 0.9979 6.454477e-02 -92.6001 132.3085)" class="st1" cx="24.3" cy="115.5" rx="4.7" ry="5.1"/>
		<path class="st2" d="M19.2,115.4c0-0.1,0-0.2,0.1-0.3c0,0.1,0,0.1,0,0.2c0.2,2.5,2.6,4.4,5.4,4.3c2.4-0.1,4.3-1.7,4.6-3.7
			c0,0.1,0,0.2,0,0.3c-0.2,2.5-2.6,4.4-5.4,4.2C21.2,120,19,117.9,19.2,115.4z"/>
	</g>
	<g>
		
			<ellipse transform="matrix(6.454477e-02 -0.9979 0.9979 6.454477e-02 -58.9597 195.8122)" class="st3" cx="75" cy="129.4" rx="5" ry="5.5"/>
		
			<ellipse transform="matrix(6.454477e-02 -0.9979 0.9979 6.454477e-02 -59.8816 196.5708)" class="st1" cx="74.9" cy="130.2" rx="5" ry="5.5"/>
		
			<ellipse transform="matrix(6.454477e-02 -0.9979 0.9979 6.454477e-02 -60.0947 196.7462)" class="st3" cx="74.9" cy="130.4" rx="4.3" ry="4.7"/>
		
			<ellipse transform="matrix(6.454477e-02 -0.9979 0.9979 6.454477e-02 -60.7355 197.2735)" class="st1" cx="74.9" cy="131" rx="3.7" ry="4"/>
		<path class="st2" d="M70.8,130.9c0-0.1,0-0.2,0-0.3c0,0,0,0.1,0,0.1c0.2,2,2.1,3.5,4.3,3.4c1.9-0.1,3.4-1.4,3.7-3
			c0,0.1,0,0.2,0,0.2c-0.1,2-2,3.4-4.2,3.3C72.4,134.6,70.7,132.9,70.8,130.9z"/>
	</g>
	<g>
		<ellipse transform="matrix(0.4007 -0.9162 0.9162 0.4007 -79.1388 164.3978)" class="st3" cx="86.1" cy="142.7" rx="5.5" ry="5"/>
		<ellipse transform="matrix(0.4007 -0.9162 0.9162 0.4007 -78.98 165.3401)" class="st1" cx="86.9" cy="143" rx="5.5" ry="5"/>
		
			<ellipse transform="matrix(0.4007 -0.9162 0.9162 0.4007 -78.9433 165.5579)" class="st3" cx="87.1" cy="143.1" rx="4.7" ry="4.3"/>
		<ellipse transform="matrix(0.4007 -0.9162 0.9162 0.4007 -78.833 166.2129)" class="st1" cx="87.6" cy="143.4" rx="4" ry="3.7"/>
		<path class="st2" d="M86.1,147.1c-0.1,0-0.1-0.1-0.2-0.1c0,0,0.1,0,0.1,0c1.9,0.5,4-0.8,4.6-2.9c0.6-1.8-0.1-3.6-1.5-4.5
			c0.1,0,0.2,0,0.2,0.1c1.8,0.8,2.5,3.1,1.7,5.1C90.1,146.9,88,147.9,86.1,147.1z"/>
	</g>
</g>
<g>
	<g>
		<path class="st4" d="M17.8,112c0,5.4,14.5,5.8,32.5,5.8s32.5-0.3,32.5-5.8S68.3,99.2,50.3,99.2S17.8,106.6,17.8,112z"/>
		<g>
			<path class="st5" d="M47.9,96.3l0-4.7l-2.1,0.3L29.2,94c0,0-2.9-1.8-3.8-1.6c-0.9,0.2,2.6,10.7,4.3,11.3c0.8,0.3,3.7,0.7,6.5,1.1
				c3.1,0.4,15.6,1.5,15.6,1.5L47.9,96.3z"/>
			<g>
				<path class="st6" d="M39.1,102.7c-3.5,0-6.7-0.7-9-1.8c-0.5,0.4-1.1,0.7-1.8,0.9c0.5,1,1,1.7,1.4,1.9c0.8,0.3,3.7,0.7,6.5,1.1
					c3.1,0.4,17.5,1.6,17.5,1.6l-6.2-4.7C45.9,102,41.1,102.7,39.1,102.7z"/>
			</g>
			<path class="st7" d="M26.1,93.1c-0.7,0.4,0,3.3,1.9,3.7c0.9,0.2,2-0.2,2.2-0.8c0.3-0.9-1.5-2-1.9-2.2
				C27.8,93.6,26.6,92.8,26.1,93.1z"/>
		</g>
		<g>
			<polygon class="st8" points="39.6,75.5 48.9,64.7 58,75.5 58,97.8 48.8,109 45,108 39.6,97.9 			"/>
			<polygon class="st9" points="76,70.8 66.5,59.4 48.9,64.7 58,75.5 			"/>
			<polygon class="st10" points="87.7,76.2 76,70.8 66.5,59.4 80.2,65.7 			"/>
			<polygon class="st9" points="67,113.6 48.8,109 58,97.8 76,102.7 			"/>
			<polygon class="st10" points="80.6,107 67,113.6 76,102.7 87.7,97.8 			"/>
			<polygon class="st11" points="76,102.1 76,70.8 58,75.5 58,97.8 76,102.7 			"/>
			<polygon class="st10" points="87.7,97.8 87.7,76.2 76,70.8 76,102.7 			"/>
		</g>
		<g>
			<g>
				<g>
					<path class="st8" d="M64.5,0c18.9,0,34.3,16.7,34.3,35.1c0,6.5-1.6,12.5-5.2,17.3C88.4,59.4,79,63.9,64.5,63.9
						c-14.9,0-24.4-4.5-29.5-12.2c-3.3-4.9-4.8-11.1-4.8-18.3C30.2,15,45.5,0,64.5,0z"/>
					<path class="st10" d="M54.6,59.4c23.1,0,41.8-16.3,41.8-36.5c0-0.1,0-0.1,0-0.2c1.5,3.9,2.3,8.1,2.3,12.3
						c0,6.5-1.6,12.5-5.2,17.3C88.4,59.4,79,63.9,64.5,63.9c-10.9,0-18.9-2.4-24.4-6.7C44.6,58.6,49.5,59.4,54.6,59.4z"/>
					<ellipse class="st5" cx="83.9" cy="34.7" rx="10" ry="14.9"/>
					<g>
						<path class="st6" d="M72.6,28.5C72.6,28.6,72.6,28.6,72.6,28.5c0,3.1,0.5,6,1.4,8.7c0.8,6.5,4.3,11.5,8.8,12.2
							c-0.3,0.1-0.7,0.1-1.1,0.1c-5.5,0-10-6.7-10-14.9C71.7,32.5,72.1,30.4,72.6,28.5z"/>
						<path class="st12" d="M72.6,28.5c1.6-5.2,5.1-8.7,9.1-8.7c0.4,0,0.7,0,1.1,0.1c-5,0.8-9,7.1-9,14.8c0,0.9,0.1,1.7,0.2,2.6
							C73.1,34.6,72.6,31.7,72.6,28.5C72.6,28.6,72.6,28.6,72.6,28.5z"/>
					</g>
					<path class="st12" d="M91.1,38.6c0,0,2.7,4.4-1.9,5.4C85.1,42.5,91.1,38.6,91.1,38.6z"/>
				</g>
				<g>
					<path class="st13" d="M63.8,67.3c-4.9,0-8.8-2.1-10.3-4.3c6.2,0.9,13.1,1.1,20.8,0.2C73.1,65.5,68.8,67.3,63.8,67.3z"/>
				</g>
			</g>
		</g>
		<path class="st14" d="M42,58c0,0-4.5-0.5-7-3c-2.6-2.5-6.7-18.2-2.3-28.1s18.2-10.6,18.2-10.6s13.9-1.4,20.4,17.5
			s-9.7,21.8-9.7,21.8S47.1,58.7,42,58z"/>
		<g>
			<g>
				<path class="st10" d="M47.1,70.6c-0.1,0-0.3,0-0.4,0c-0.2,0.1-0.4,0.3-0.6,0.4c-1.7,1.6-3.3,3.2-5,4.8c-0.5,0.5-0.8,1.3-0.8,2.3
					c0,3.3,0,6.6,0,10c0,0.9,0.3,1.6,0.8,2.1c1.7,1.6,3.4,3.3,5.1,4.9c0.5,0.5,1.1,0.5,1.6,0c1.7-1.6,3.3-3.2,5-4.8
					c0.5-0.5,0.8-1.3,0.8-2.3c0-3.3,0-6.7,0-10c0-0.9-0.3-1.6-0.7-2C50.9,74.1,48.9,72.3,47.1,70.6z"/>
				<path class="st15" d="M47,71.7c-0.1,0-0.2,0-0.4,0c-0.2,0.1-0.4,0.2-0.6,0.4c-1.5,1.5-3,2.9-4.6,4.4c-0.5,0.5-0.8,1.2-0.8,2.1
					c0,3,0,6.1,0,9.1c0,0.8,0.3,1.5,0.7,1.9c1.6,1.5,3.1,3,4.7,4.5c0.5,0.5,1,0.4,1.5,0c1.5-1.5,3-2.9,4.6-4.4
					c0.5-0.5,0.8-1.2,0.8-2.1c0-3.1,0-6.1,0-9.2c0-0.8-0.3-1.4-0.7-1.8C50.5,74.9,48.8,73.3,47,71.7z"/>
				<path class="st8" d="M48,82.4c-0.2-0.1-0.3-0.2-0.5-0.3c-0.5-0.4-1.1-0.5-1.6-0.3c-1,0.4-1.5,1.7-1.4,3.6c0,1.2,0.3,2.1,0.9,2.7
					c0.7,0.6,1.4,0.6,2.1-0.1c0.6-0.6,0.8-1.7,0.8-2.8c0-2.8,0-5.6,0-8.3c0-1.5,0-1.5,0.9-1.5c0.2,0,0.3,0.1,0.3,0.5
					c0,3.3,0,6.5,0,9.8c0,1.2-0.2,2.3-0.7,3.2c-0.9,1.6-2,1.9-3.2,1.4c-1.3-0.5-2.4-2.1-2.4-5.4c0-3.9,2.4-6.3,4.6-4.6
					c0.1,0.1,0.2,0.3,0.2,0.5C48.1,81.3,48,81.8,48,82.4z"/>
			</g>
		</g>
		<path class="st13" d="M41.9,56.4c0,0-4.4-0.4-6.9-2.8c-2.5-2.4-6.5-17.3-2.1-26.7s18-10.2,18-10.2s13.7-1.5,20,16.5
			S61.2,54,61.2,54S46.9,57,41.9,56.4z"/>
		<path class="st16" d="M41.8,55.6c0,0-4.3-0.4-6.7-2.7c-2.4-2.2-6.2-16.5-2-25.5s17.5-9.8,17.5-9.8S63.9,16.2,70,33.4
			s-9.5,19.9-9.5,19.9S46.6,56.2,41.8,55.6z"/>
		<path class="st17" d="M33.2,27.5c1.6-3.4,4.6-5.7,7.6-7.1c-1.8,8.5-1.9,18.8,0.2,29.5c0.4,2,0.9,3.9,1.4,5.9c-0.2,0-0.4,0-0.5,0
			c0,0-4.3-0.4-6.7-2.7C32.7,50.7,28.9,36.4,33.2,27.5z"/>
		<g>
			<path class="st5" d="M76,102.7l-18-4.8l-3,1.5L40.2,108c0,0-3.4-1-4.1-0.5c-0.7,0.5,6.3,11.4,8.1,11.4c0.8,0,3.7-0.5,6.5-1.1
				c3.1-0.6,16.4-4.1,16.4-4.1L76,102.7z"/>
			<g>
				<path class="st6" d="M52.6,114.4c-3.3,1.3-6.6,1.7-9.1,1.2c-0.3,0.7-0.8,1.2-1.4,1.7c0.9,1,1.6,1.6,2,1.6c0.8,0,3.7-0.5,6.5-1.1
					c3.1-0.6,16.4-4.2,16.4-4.2l9-11l-3.5-0.9l-12.5,8.2C58.7,111,54.5,113.6,52.6,114.4z"/>
			</g>
			<path class="st7" d="M37,108.1c-0.5,0.8,1.2,3.8,3.1,3.6c0.9-0.1,1.8-0.9,1.8-1.7c0-1.1-2.1-1.7-2.6-1.9
				C38.8,108,37.3,107.6,37,108.1z"/>
		</g>
		<g>
			<path class="st0" d="M47.1,63.9l-0.4-1.2c0,0-13.1-2.6-19.9,3.5c0,0-2.1-5.3-9.7-6v1.1l-0.5-0.5c0,0-1.4-0.6-1,1.2
				c0.4,1.8,5.2,26.3,5.2,26.3s-0.1,0.4,1.2,1.3c1.3,0.9,7.4,5.6,7.4,5.6s0.7,2.2,2.8,1.6c2.1-0.6,2.7-1,2.7-1l19.8-3.9L49,63.4
				L47.1,63.9z"/>
			<g>
				<polygon class="st18" points="23.6,67.8 17.5,63.1 22.2,88.3 28.4,92.7 				"/>
				<path class="st18" d="M25.4,68.9l2.3,0.2L33,95c0,0-2.4,1.1-2.9-1.3C29.6,91.3,25.4,68.9,25.4,68.9z"/>
				<polygon class="st18" points="29.2,68.6 47.8,65.2 52.8,90.4 34.4,94.5 				"/>
			</g>
			<path class="st18" d="M27.5,67.3l1.7,0.2l16.5-3.3c0,0-7.4-0.6-10.3,0C32.4,64.7,29.2,65,27.5,67.3z"/>
			<path class="st18" d="M25.4,66.9c0,0-0.3-3.6-6.6-4.9C18.8,61.9,23.8,66.5,25.4,66.9z"/>
			<g>
				<path class="st19" d="M28.4,92.7l-0.8-4.3c-1,0.5-3.8,1.6-4.6-2.7c-1-5.3,1.7-2.8,0.5-7.2c-0.8-3.1-2.7-3.8-3.8-3.9l2.5,13.8
					L28.4,92.7z"/>
				<path class="st18" d="M31.4,87.4l-3.8-18.3l-2.3-0.2c0,0,2.1,10.9,3.5,18.3L29,87C29.9,88.3,30.9,87.8,31.4,87.4z"/>
				<path class="st19" d="M33,95l-1.6-7.6c-0.6,0.5-1.5,0.9-2.5-0.3l-0.1,0.1c0.6,3.2,1.1,5.8,1.3,6.5C30.7,96.1,33,95,33,95z"/>
				<path class="st19" d="M52.8,90.4L51,81.1c-3,2.5-7.9,6.6-9.3,7.9c-1.9,1.9-6.9,1-8.7-1.4l1.4,6.9L52.8,90.4z"/>
			</g>
			<g>
				<ellipse class="st0" cx="41.5" cy="78.5" rx="9.5" ry="9.2"/>
				<ellipse class="st1" cx="41.5" cy="78.5" rx="8.7" ry="8.4"/>
				<path class="st2" d="M41.5,85c-4.2,0-7.7-3.1-8.1-7.1c0,0.2,0,0.4,0,0.7c0,4.3,3.6,7.8,8.1,7.8s8.1-3.5,8.1-7.8
					c0-0.2,0-0.5,0-0.7C49.2,81.9,45.7,85,41.5,85z"/>
				<g>
					
						<ellipse transform="matrix(0.1539 -0.9881 0.9881 0.1539 -44.1972 100.8501)" class="st3" cx="36.8" cy="76.2" rx="2.2" ry="2"/>
					
						<ellipse transform="matrix(0.1539 -0.9881 0.9881 0.1539 -44.4401 100.457)" class="st1" cx="36.4" cy="76.2" rx="2.2" ry="2"/>
					
						<ellipse transform="matrix(0.1539 -0.9881 0.9881 0.1539 -44.4962 100.3662)" class="st3" cx="36.4" cy="76.2" rx="1.9" ry="1.7"/>
					
						<ellipse transform="matrix(0.1539 -0.9881 0.9881 0.1539 -44.6651 100.093)" class="st1" cx="36.1" cy="76.1" rx="1.6" ry="1.5"/>
					<path class="st2" d="M36.3,74.5c0,0,0.1,0,0.1,0C36.4,74.5,36.4,74.5,36.3,74.5c-0.8,0-1.4,0.7-1.5,1.6c0,0.8,0.4,1.4,1.1,1.6
						c0,0-0.1,0-0.1,0c-0.8-0.1-1.3-0.9-1.2-1.8C34.8,75,35.5,74.4,36.3,74.5z"/>
				</g>
				<g>
					<ellipse transform="matrix(0.5044 -0.8635 0.8635 0.5044 -52.1983 75.1084)" class="st3" cx="39.3" cy="83" rx="3" ry="3.2"/>
					
						<ellipse transform="matrix(0.5044 -0.8635 0.8635 0.5044 -52.7127 75.1044)" class="st1" cx="39.1" cy="83.5" rx="3" ry="3.2"/>
					
						<ellipse transform="matrix(0.5044 -0.8635 0.8635 0.5044 -52.8316 75.1035)" class="st3" cx="39" cy="83.6" rx="2.5" ry="2.8"/>
					
						<ellipse transform="matrix(0.5044 -0.8635 0.8635 0.5044 -53.1891 75.1008)" class="st1" cx="38.8" cy="83.9" rx="2.2" ry="2.4"/>
					<path class="st2" d="M36.9,82.5c0,0,0,0.1-0.1,0.1C36.9,82.6,36.9,82.6,36.9,82.5c0.8-0.8,2.1-0.5,3,0.4
						c0.8,0.8,1.2,1.6,0.7,2.4c0,0,0.1-0.1,0.1-0.1c0.7-1,0.4-2.3-0.7-3.1C39,81.4,37.6,81.5,36.9,82.5z"/>
				</g>
				<g>
					<ellipse transform="matrix(0.3655 -0.9308 0.9308 0.3655 -41.2983 83.3)" class="st3" cx="40.5" cy="71.9" rx="1.5" ry="1.6"/>
					
						<ellipse transform="matrix(0.3655 -0.9308 0.9308 0.3655 -41.5826 83.3648)" class="st1" cx="40.4" cy="72.2" rx="1.5" ry="1.6"/>
					
						<ellipse transform="matrix(0.3655 -0.9308 0.9308 0.3655 -41.6483 83.3798)" class="st3" cx="40.3" cy="72.2" rx="1.3" ry="1.4"/>
					
						<ellipse transform="matrix(0.3655 -0.9308 0.9308 0.3655 -41.846 83.4249)" class="st1" cx="40.3" cy="72.4" rx="1.1" ry="1.2"/>
					<path class="st2" d="M39.1,72C39.2,72,39.2,72,39.1,72C39.2,72,39.2,72,39.1,72c-0.1,0.5,0.3,1.1,0.9,1.3
						c0.5,0.1,1.1-0.1,1.3-0.5c0,0,0,0,0,0.1c-0.2,0.5-0.9,0.8-1.5,0.5S38.9,72.6,39.1,72z"/>
				</g>
			</g>
		</g>
		<g>
			<circle class="st20" cx="58.5" cy="45.3" r="3.2"/>
		</g>
		<g>
			<g>
				<path class="st21" d="M31.3,39.6c2.6-0.7,2.4-2.7,2.4-2.9c0-0.4,0.2-0.7,0.6-0.7c0,0,0.1,0,0.1,0c0.4,0,0.7,0.3,0.7,0.7
					c0,1.3-0.5,3.7-3.7,4.5L31.3,39.6z"/>
				<path class="st21" d="M30.8,41.3"/>
				<path class="st21" d="M57.8,32c-0.3,0.1-0.6,0.4-0.6,0.7c0,0.3-0.1,2.6-3.1,3.2c0,0,0,0,0,0c-3.1,0.6-4-1.6-4-1.9
					c-0.1-0.4-0.5-0.6-0.9-0.4c-0.4,0.1-0.6,0.5-0.4,0.9c0.4,1.2,2.2,3.4,5.7,2.8c0,0,0,0,0,0c3.5-0.7,4.3-3.3,4.3-4.6
					c0-0.4-0.3-0.7-0.7-0.7C57.9,32,57.9,32,57.8,32z"/>
				<path class="st13" d="M36.7,50.6c-0.2-0.4-0.3-0.9-0.4-1.3c-0.4-2-0.5-6.2,2.6-6.7c3-0.5,7.9,0.7,8.6,3.4
					c0.1,0.4,0.3,0.8,0.3,1.2c0.1,0.5,0.2,1.1-0.7,1.9c-0.9,0.7-3.9-0.2-7.1,0.5C38.5,49.7,37.2,50.3,36.7,50.6z"/>
				<path class="st21" d="M30.1,29.1"/>
				<path class="st21" d="M24.6,30.1"/>
				<path class="st21" d="M31.2,32.8c-0.1,0-0.3-0.1-0.4-0.2c-0.2-0.2-0.1-0.5,0.1-0.7c1.3-1,2-2.4,1.7-3.8c0-0.3,0.1-0.5,0.4-0.6
					c0.3-0.1,0.5,0.1,0.6,0.4c0.3,1.7-0.5,3.5-2.1,4.7C31.4,32.8,31.3,32.8,31.2,32.8z"/>
				<path class="st21" d="M52.3,29.9c-1.1,0-2.2-0.3-3.1-0.8c-1.3-0.7-2.2-1.8-2.4-3.2c0-0.3,0.1-0.5,0.4-0.6c0.3,0,0.5,0.1,0.6,0.4
					c0.2,1,0.9,1.9,2,2.5c1.1,0.6,2.5,0.8,3.8,0.5c0.2,0,0.5-0.1,0.7-0.2c0.3-0.1,0.5,0.1,0.6,0.3c0.1,0.3-0.1,0.5-0.3,0.6
					c-0.3,0.1-0.5,0.1-0.8,0.2C53.2,29.9,52.7,29.9,52.3,29.9z"/>
			</g>
		</g>
	</g>
	<g>
		<path class="st8" d="M57.4,91.6l6.2-0.7l9.2-1l7.8-0.9c0.3-2.9-0.2-6.4-0.7-9.1l-0.3-0.4l-4.7-0.8l-13.7-2.3l-3.6-0.6
			c-1.9-0.2-6.9-1.1-6.9-1.1s-0.2-0.1-0.5-0.1c-1.5-0.3-6.3-0.7-6.9,4.5c-0.8,6.3,1.8,9.8,4.8,14.2c0.2,0.3,0.3,0.5,0.5,0.7
			C51.6,97,57.4,91.6,57.4,91.6z"/>
		<path class="st10" d="M50.8,73.9l-0.2-0.3c0,0,4.9-5.8,6.1-2.5c0.5,1.2,1.6,3.9,1.7,4.9c0.2,1.8-0.9,1.5-1.2,2.1
			c-0.4,0.8-1.4,2.1-2.2,1L50.8,73.9z"/>
		<path class="st8" d="M51.7,74.2l-0.3-0.3c0,0,3.7-4.7,5.4-1.2c0.6,1.2,1,2.4,1.3,3.4c0.4,1.7,0.4,3,0.3,3.4
			c-0.3,0.7-1.2,2-2.2,0.8L51.7,74.2z"/>
		<path class="st10" d="M80,79.8l-0.3-0.4l4.1,0.4v8.4l-3.1,0.7C80.9,86,80.4,82.5,80,79.8z"/>
		<path class="st22" d="M73.2,89.8"/>
		<path class="st22" d="M80.5,79.8"/>
		<path class="st10" d="M52.6,89.8c4.4,0,8.2-1.8,10.6-4.5l20.5-0.8v3.8l-3.1,0.6l-7.8,0.9l-9.2,1l-6.2,0.7c0,0-5.8,5.5-8.9,2.4
			c-0.2-0.2-0.4-0.4-0.5-0.7c-1.3-2-2.6-3.9-3.5-5.9C46.7,88.9,49.5,89.8,52.6,89.8z"/>
		<path class="st13" d="M69.3,90.2c0,0,2.9-6.9,2.9-9.2c0-0.7-0.1-1.8-0.3-2.8c-0.3,0-0.9-0.2-1.4-0.2c0.2,1,0.4,2.3,0.4,3.1
			c0.1,2.1-2.3,7.6-3.1,9.3C68.3,90.3,69.3,90.2,69.3,90.2z"/>
	</g>
	<ellipse transform="matrix(0.9759 -0.2182 0.2182 0.9759 -16.8099 6.4534)" class="st8" cx="20.8" cy="79.3" rx="3.8" ry="7.3"/>
	<path class="st10" d="M21.6,83.5c-1.4,0.3-2.9-0.4-4-1.6c1.1,3,3,5,4.8,4.6c1.8-0.4,2.8-3.4,2.3-6.8C24.3,81.6,23.2,83.1,21.6,83.5
		z"/>
	<path class="st23" d="M62.3,22.4c0.3,1.7-1.1,3.3-3.2,3.7c-2.1,0.4-4-0.7-4.3-2.4c-1-4,0.7-10,2-10.2
		C58.1,13.3,61.5,18.1,62.3,22.4z"/>
</g>
</svg>
