<?xml version="1.0" encoding="utf-8"?>
<!-- Generator: Adobe Illustrator 26.0.0, SVG Export Plug-In . SVG Version: 6.00 Build 0)  -->
<svg version="1.1" id="Capa_1" xmlns="http://www.w3.org/2000/svg" xmlns:xlink="http://www.w3.org/1999/xlink" x="0px" y="0px"
	 viewBox="0 0 67.5 46.3" style="enable-background:new 0 0 67.5 46.3;" xml:space="preserve">
<style type="text/css">
	.st0{fill:#183F73;}
	.st1{fill:#29292E;}
	.st2{fill:#6999D1;}
	.st3{fill:#555C66;}
	.st4{fill:#E58125;}
	.st5{fill:#F9B03D;}
</style>
<g>
	<path class="st0" d="M27.1,2.6H4c-0.2,0-0.3-0.2-0.3-0.3V1.5C3.6,0.7,4.3,0,5.2,0h20.7c0.8,0,1.5,0.7,1.5,1.5v0.8
		C27.4,2.5,27.3,2.6,27.1,2.6z"/>
	<polygon class="st1" points="44.1,29.3 1.5,29.3 5.1,36.3 44.1,36.3 	"/>
	<polygon class="st2" points="25.1,2.6 5,2.6 1.5,23.7 1.5,29.3 29.6,29.3 29.6,18.4 	"/>
	<path class="st1" d="M1.5,25.8v3.5H20c-1.6-1.6-4.1-3.5-7-3.5C11.4,25.8,4.5,25.8,1.5,25.8z"/>
	<path class="st2" d="M29.6,18.4v10.8h17v-3.6C46.6,21.5,35.2,18.6,29.6,18.4z"/>
	<path class="st3" d="M21.4,36.3c0,5.5-4.5,10-10,10c-5.5,0-10-4.5-10-10c0-5.5,4.5-10,10-10C17,26.4,21.4,30.8,21.4,36.3z"/>
	<path class="st4" d="M58.2,32.4l-4.9,12.2c0,0,0.8,0.8,2.1,1.3c1.3,0.5,4,0.5,4,0.5l2-14.7C61.3,31.6,58.7,31.2,58.2,32.4z"/>
	<path class="st5" d="M60.6,36.8l-1.3,9.5c0,0,1.9,0,2.9,0c1.9,0,5.2-1.5,5.2-1.5L60.6,36.8z"/>
	<path class="st4" d="M53.3,44.6L40.5,28.3L31,22.8c-0.5-0.3-0.8-1-0.6-1.5c0.1-0.3,0.3-0.6,0.6-0.7c0.3-0.1,0.7-0.1,1,0l11.2,4.4
		l12,14.9L53.3,44.6z"/>
	<polygon class="st3" points="47.7,30.4 57.8,33.4 57.4,34.3 48.9,31.9 	"/>
	<path class="st5" d="M16.6,36.3c0,2.8-2.3,5.1-5.1,5.1c-2.8,0-5.1-2.3-5.1-5.1c0-2.8,2.3-5.1,5.1-5.1
		C14.3,31.2,16.6,33.5,16.6,36.3z"/>
	<path class="st3" d="M50.2,39.4c0,3.8-3.1,6.9-6.9,6.9c-3.8,0-6.9-3.1-6.9-6.9c0-3.8,3.1-6.9,6.9-6.9
		C47.1,32.4,50.2,35.5,50.2,39.4z"/>
	<path class="st5" d="M46.5,39.4c0,1.8-1.4,3.2-3.2,3.2c-1.8,0-3.2-1.4-3.2-3.2c0-1.8,1.4-3.2,3.2-3.2C45,36.1,46.5,37.6,46.5,39.4z
		"/>
	<path class="st4" d="M22,31.7c0,0-3.8-5.9-9-5.9c-2.1,0-13,0-13,0s0.2-2.9,1.6-2.9s9.8,0,11.4,0c4,0,7.5,2.8,8.8,5.7
		C22.8,30.8,22,31.7,22,31.7z"/>
	<path class="st0" d="M22,31.7c0,0-3.8-5.9-9-5.9c-2.1,0-13,0-13,0s0.2-2.9,1.6-2.9s9.8,0,11.4,0c4,0,7.5,2.8,8.8,5.7
		C22.8,30.8,22,31.7,22,31.7z"/>
	<path class="st3" d="M23.7,4.1c-0.1-0.2-0.3-0.4-0.6-0.4h-8.8c-0.3,0-0.6,0.3-0.6,0.6v17.4c0,0.3,0.2,0.5,0.5,0.6
		c3.5,0.5,6.4,3,7.6,5.6c0,0,0,0,0,0c0.1,0.2,0.3,0.3,0.5,0.3h4.8c0.3,0,0.6-0.3,0.6-0.6v-9.3L23.7,4.1z"/>
	<path class="st3" d="M12,16.7c0.3,0,0.6-0.3,0.6-0.6V4.3c0-0.3-0.3-0.6-0.6-0.6H6.8c-0.3,0-0.5,0.2-0.6,0.5L4.3,16
		c0,0.2,0,0.3,0.1,0.5c0.1,0.1,0.3,0.2,0.4,0.2H12z"/>
	<rect x="12.4" y="18.5" class="st2" width="17.1" height="1.3"/>
</g>
</svg>
