<?xml version="1.0" encoding="utf-8"?>
<!-- Generator: Adobe Illustrator 26.0.0, SVG Export Plug-In . SVG Version: 6.00 Build 0)  -->
<svg version="1.1" id="Capa_1" xmlns="http://www.w3.org/2000/svg" xmlns:xlink="http://www.w3.org/1999/xlink" x="0px" y="0px"
	 viewBox="0 0 40 29.9" style="enable-background:new 0 0 40 29.9;" xml:space="preserve">
<style type="text/css">
	.st0{fill:#519ACC;}
</style>
<g>
	<g>
		<path class="st0" d="M39.1,22.6c-0.1,0-0.6,0.1-0.8,0.2c-0.3-0.1-0.7-0.2-1-0.4c-0.6-0.4-1.1-0.9-1.6-1.4l0,0l0,0c0,0,0,0,0,0
			c0,0-0.5-0.8-0.6-0.9c-0.1-0.1-0.1-0.2-0.2-0.2c-0.3,0-0.5,0-0.8,0c-0.2,0-0.5,0-0.7,0c-0.1,0-0.1,0-0.2,0.1c-0.1,0.7,0,0.9,0.8,1
			c0,0,0,0,0.1,0c0.5,0.2,1.1,0.3,1.6,0.5c0.2,0.1,0.4,0.2,0.5,0.4c0.2,0.5,0.4,1,0.6,1.5c0,0.1,0.2,0.6,0.3,0.7
			c0.1,0.4,0.3,0.7,0.4,1.1c0.1,0.4,0.4,0.8,0.4,1.3c-0.1,0.2-0.2,0.3-0.4,0.3c-0.2,0-0.4-0.1-0.6-0.3c-0.6-0.4-1.1-0.8-1.5-1.3
			c0,0,0-0.1-0.1-0.1l0,0c0,0,0-0.1,0-0.1c0,0,0,0-0.1-0.1c-0.1-0.2-0.2-0.4-0.4-0.6c-0.3-0.3-0.2-0.8-0.6-1
			c-0.3-0.2-0.8-0.1-1.1-0.2c-0.2,0-0.3,0-0.3,0.2c-0.2,0.2-0.1,0.3,0.1,0.4c0.4,0.2,0.8,0.4,1.2,0.6c0.1,0.1,0.3,0.2,0.4,0.3
			c0.3,0.4,0.3,0.8,0.5,1.3c0,0,0,0.1,0,0.1c0.1,0.4,0.2,0.9,0.3,1.3c0.1,0.4,0.2,0.9,0.2,1.3c0,0.2,0.1,0.4,0.1,0.6
			c0,0.4-0.2,0.6-0.6,0.5c-0.1,0-0.2,0-0.2-0.1c-0.5-0.3-0.9-0.7-1.3-1.1c0,0,0-0.1-0.1-0.1c0,0,0-0.1-0.1-0.1c0,0,0,0,0,0
			c-0.2-0.4-0.5-0.8-0.7-1.1c0-0.2-0.4-1.2-0.6-1.3c-0.2-0.1-0.4-0.2-0.5-0.3c-0.1-0.1-0.2,0-0.3,0.1c-0.4,0.4-0.9,0.8-1.3,1.2
			c0,0,0,0-0.1,0.1c-0.8,0.6-1.7,1.1-2.7,1.5c-0.9,0.3-1.7,0.6-2.6,0.8c-0.4,0.1-0.9,0.2-1.3,0.2c-0.4,0-0.8,0.1-1.3,0.1
			c-0.4,0-0.9,0-1.3,0c-0.4,0-0.8,0-1.3,0c-0.4,0-0.9-0.1-1.3-0.1c-0.4-0.1-0.8-0.1-1.2-0.2c-0.3-0.1-0.7-0.2-1-0.3
			c-0.1,0-0.8-0.2-1-0.3c-0.1-0.1-0.3-0.1-0.5-0.1c0,0-0.6-0.2-0.7-0.3c-0.7-0.3-1.3-0.6-1.9-0.9c-0.9-0.5-1.7-1.1-2.4-1.8
			c0,0-0.1-0.1-0.1-0.1l0,0l0,0c0,0,0,0,0,0l0,0l0,0c0,0,0,0-0.1-0.1l0,0c0,0,0,0-0.1-0.1c-0.3-0.3-0.6-0.6-0.8-0.9
			c-0.3-0.6-0.3-0.5-0.9-0.4c-0.2,0.1-0.4,0.2-0.5,0.4c-0.1,0.2-0.2,0.4-0.4,0.6c0,0.1-0.4,0.7-0.5,0.9c-0.1,0.1-0.2,0.3-0.4,0.4
			c0,0-0.1,0.1-0.1,0.1c-0.4,0.3-0.7,0.7-1.2,0.9c-0.3,0.1-0.6,0.3-0.9,0.2c0,0,0,0,0,0c0,0,0,0-0.1,0c-0.1-0.1-0.1-0.1-0.2-0.2
			c0-0.1,0-0.3,0-0.4l0,0c0.1-0.1,0.1-0.2,0.1-0.2l0,0c0.1-0.1,0.1-0.2,0.1-0.2l0,0c0.1-0.1,0.1-0.3,0.1-0.4
			c0.3-0.8,0.5-1.7,0.8-2.5c0.2-0.6,0.6-1,1.2-1.2c0.1-0.1,0.3-0.1,0.4-0.2c0.2-0.1,0.3-0.1,0.5-0.2c0.4-0.2,0.4-0.2,0.2-0.7
			c-0.4-0.1-0.9,0-1.3,0c-0.1,0-0.1,0.1-0.2,0.1c-0.7,1.3-1.8,2.2-3.2,2.8c-0.1,0-0.2,0-0.3,0c0,0-0.1-0.1-0.1,0c0,0,0,0-0.1,0
			c0,0,0,0-0.1,0c0,0,0,0,0,0c0,0,0,0,0,0l0,0c-0.1-0.2,0-0.5,0.1-0.7C1.6,22.8,2,22,2.4,21.2c0,0,0.7-1.2,0.7-1.3
			c0.1-0.3,0.4-0.5,0.7-0.6c0.6-0.2,1.1-0.2,1.7-0.3c0.1,0,0.3,0,0.4-0.1c0.2,0,0.4,0,0.4-0.3c0-0.1,0-0.2,0-0.3
			c0.1-0.4,0.1-0.4-0.4-0.4c-0.4,0-0.8-0.1-1.2-0.1c-0.2-0.1-0.2,0-0.3,0.1c-0.6,0.8-1.3,1.5-2.2,2c-0.5,0.3-1,0.5-1.5,0.4
			c0,0-0.1,0-0.1,0c-0.2-0.1-0.3-0.1-0.5-0.2c0,0,0-0.1-0.1-0.1c0-0.1,0-0.2,0.1-0.3c0.2-0.4,0.4-0.8,0.6-1.2l0,0
			c0.1,0,0.1-0.1,0.1-0.1c0,0,0,0,0,0c0.3-0.3,0.5-0.7,0.7-1.1l0,0c0.1,0,0.1-0.1,0.1-0.1l0,0c0.1,0,0.1-0.1,0.1-0.1l0,0
			c0,0,0.1,0,0.1-0.1l0,0c0.1,0,0.1-0.1,0.1-0.2l0,0c0.1,0,0.1-0.1,0.1-0.2l0,0l0,0c0.1,0,0.1,0,0.1-0.1l0,0c0,0,0.1,0,0.1-0.1l0,0
			l0,0c0.1,0,0.1-0.1,0.1-0.1c0,0,0.1-0.1,0.1-0.2c0.4-0.4,0.8-0.7,1.3-0.7c0.1,0,0.8-0.1,0.9-0.1c0.6-0.1,1.2-0.1,1.9-0.2
			c0.3,0,0.6-0.1,1-0.1c0.2,0,0.3,0,0.4-0.1c0.2-0.3,0.4-0.5,0.6-0.8c0.1-0.1,0.1-0.2,0-0.3c-0.4-0.9-0.9-1.7-1.4-2.6
			C6.9,11.1,6.8,11,6.5,11c-0.4-0.1-0.8-0.3-1.2-0.4C4.8,10.4,4.4,10.2,4,10c-0.1,0-0.1-0.1-0.2-0.1C3.6,9.8,3.4,9.6,3.2,9.5
			C3.1,9.4,2.7,9,2.6,9c0,0,0,0-0.1,0l0,0c0,0,0,0,0,0c0,0,0,0,0,0C2.4,8.8,1.9,8.3,1.9,8.3C1.8,8.1,1.7,8,1.6,7.9c0,0,0,0,0,0
			c0,0,0-0.1-0.1-0.1c0,0-0.1-0.1-0.1-0.1C1.3,7.2,1,6.8,0.9,6.3C0.8,5.7,0.8,5.1,0.9,4.6c0-0.8,0.4-1.6,0.7-2.3
			C1.8,2,2,1.8,2.1,1.5C2.3,1.3,2.5,1,2.7,0.8C3,0.6,3.2,0.4,3.5,0.2C3.7,0.2,3.9,0.1,4.1,0c0.3-0.1,0.4,0,0.4,0.3
			c0,0.2-0.1,0.4-0.1,0.6c0,0.4-0.1,0.9-0.1,1.3c0,0.3-0.1,0.5,0.2,0.7C4.6,3,4.8,3.1,4.9,3.3c0.2,0.2,0.5,0.3,0.7,0.6
			c0,0.4,0,0.7-0.1,1.1c0,0.1,0,0.2,0,0.3c-0.1,0.3,0,0.5,0.3,0.6C6,5.8,6.2,6,6.4,6.1c0.2,0.1,0.3,0.2,0.4,0.4C6.9,6.7,6.9,7,7,7.1
			C7.5,6.6,7.5,6.5,7.2,6C7,5.7,6.9,5.4,7.2,5.1C7.6,4.6,7.7,4,7.4,3.4C7.3,3.3,7.3,3.1,7.3,3c-0.1-0.2,0-0.4,0.2-0.4
			c0.1,0,0.2,0,0.2,0c0.2,0.1,0.4,0.2,0.6,0.4c0.3,0.3,0.6,0.6,0.9,1C9.2,4,9.3,4.1,9.3,4.3c0,0.1,0.3,0.8,0.4,0.9
			c0.1,0.4,0.1,0.9,0.2,1.3c0,0.4-0.1,0.8-0.1,1.3C9.7,8.2,9.6,8.6,9.4,9C9.3,9.2,9.2,9.3,9.4,9.5c0.2,0.3,0.3,0.6,0.5,0.9
			c0.1,0.3,0.3,0.6,0.4,0.8c0.1,0.2,0.2,0.4,0.3,0.5c0.1,0.2,0.2,0.3,0.2,0.5c0.1,0.1,0.1,0.1,0.2,0.1c0.6-0.4,1.3-0.7,2-1
			c0.4-0.1,0.7-0.3,1.1-0.4c0.1,0,0.1-0.1,0.1-0.2c0-0.2-0.1-0.5-0.1-0.7c0-0.3-0.2-0.5-0.5-0.5c-0.2,0-0.4-0.1-0.6-0.1
			c-0.1-0.1-0.2-0.1-0.4-0.2c-0.3-0.2-0.6-0.4-0.8-0.6c-0.1-0.1-0.2-0.2-0.3-0.3c0,0,0-0.1-0.1-0.1l0,0c0-0.1,0-0.1-0.1-0.1
			c0,0,0,0,0,0c0,0,0-0.1,0-0.1l0,0c0,0,0-0.1,0-0.1l0,0c0-0.1-0.1-0.2-0.1-0.3c-0.2-0.4-0.3-0.8-0.3-1.2c0-0.9,0.3-1.8,0.9-2.5l0,0
			c0,0,0.1,0,0.1-0.1C12,3.8,12,3.7,12.1,3.7c0.5-0.3,0.9-0.5,1.5-0.6C14,3,14.4,3,14.7,3c0.1,0,0.2,0,0.3,0c0.3,0.1,0.6,0.3,1,0.4
			c0.5,0.4,0.9,0.8,1.1,1.3c0,0.1,0.2,0.2,0,0.3c-0.2,0-0.4-0.1-0.5-0.3c-0.7-1.2-2.1-1.8-3.4-1.3c-1.3,0.4-2.1,1.7-2,3
			c0.1,1.4,1.3,2.5,2.6,2.6c1.8,0.2,3.4-1.5,3.1-3.3c0-0.2-0.1-0.3,0.2-0.3c0.1,0,0.2,0.1,0.2,0.2c0,0.4,0,0.9,0,1.3
			c-0.2,0.7-0.5,1.4-1.2,1.8c-0.3,0.2-0.3,0.4-0.1,0.6c0,0.1,0.1,0.3,0.1,0.4c0.1,0.5,0.1,0.5,0.7,0.4c0.2,0,0.5,0,0.7-0.1
			c0.1,0,0.2,0,0.3,0c0.1,0,0.1,0,0.2,0c0.6,0,1.2,0,1.8,0c0.2,0,0.5,0,0.7,0c0.4,0.1,0.9,0.1,1.3,0.2c0.4,0.1,0.8,0.2,1.2,0.2
			c1.1,0.3,1.1,0.3,1.4-0.6c0,0,0,0,0-0.1l0,0c0-0.1,0.2-0.2,0-0.3c0,0-0.1-0.1-0.1-0.1c0,0,0,0,0,0c0,0,0,0,0,0
			c-0.1-0.1-0.2-0.3-0.3-0.4c0,0,0,0,0,0c0,0,0,0,0,0l0,0l0,0c0,0,0-0.1,0-0.1l0,0c0,0,0-0.1-0.1-0.1l0,0c0-0.1,0-0.1-0.1-0.1l0,0
			l0,0c0-0.1,0-0.1-0.1-0.2l0,0c0,0,0-0.1,0-0.1l0,0c-0.1-0.5-0.3-0.9-0.2-1.4c0-0.8,0.3-1.5,0.8-2.1l0,0c0,0,0.1,0,0.1-0.1l0,0
			c0,0,0.1,0,0.1-0.1l0,0c0,0,0.1,0,0.1-0.1c0.2-0.1,0.4-0.3,0.5-0.4c0.3-0.1,0.5-0.3,0.8-0.3c0.1,0,0.2-0.1,0.2,0.1
			c0,0.1,0.1,0.3-0.1,0.3c-0.1,0-0.2,0.1-0.3,0.1c-1.4,0.5-2.1,2-1.8,3.4c0.4,1.4,1.7,2.4,3.1,2.2c1.5-0.2,2.7-1.5,2.6-2.8
			c0-1.7-1.2-2.9-2.9-3c-0.2,0-0.2-0.1-0.3-0.2c0-0.2,0.2-0.2,0.3-0.2c0.8,0,1.5,0.2,2.1,0.7c0.2,0.2,0.4,0.5,0.6,0.7
			c0.2,0.3,0.3,0.6,0.5,0.9c0,0.1,0.1,0.3,0.1,0.4c0,0.4,0,0.9,0,1.3c-0.2,0.9-0.8,1.6-1.5,2.1c-0.2,0.1-0.3,0.2-0.5,0.2
			c-0.3,0.1-0.6,0.1-0.8,0.2c-0.3-0.1-0.4,0-0.4,0.3c0,0.2-0.1,0.5-0.2,0.7c-0.1,0.2-0.1,0.3,0.1,0.4c0.1,0,0.3,0.1,0.4,0.2
			c0.4,0.2,0.7,0.4,0.9,0.5c0.1,0.1,0.2,0.1,0.3,0.2c0.1,0.1,0.3,0.2,0.4,0.3c0.2,0.1,0.4,0.3,0.6,0.4c0.1,0.1,0.1,0.1,0.2,0
			c0.4-0.6,0.8-1.1,1.1-1.7l0,0c0.1,0,0.1-0.1,0.1-0.1c0.1-0.1,0.2,0,0.2,0c0.1,0.1,0.2,0,0.2,0c0.1-0.1,0.1-0.2,0-0.3
			c-0.1-0.1-0.2-0.1-0.1-0.3c0.2-0.2,0.2-0.5,0.1-0.8c-0.1-0.3-0.1-0.6-0.2-0.8c-0.1-1.4,0.2-2.8,0.9-4l0,0c0.1,0,0.1-0.1,0.1-0.2
			l0,0c0.1,0,0.1,0,0.1-0.1l0,0c0,0,0.1,0,0.1-0.1l0,0c0,0,0.1,0,0.1-0.1l0,0c0,0,0.1,0,0.1-0.1l0,0c0,0,0.1,0,0.1,0l0,0
			c0,0,0.1,0,0.1,0l0,0c0,0,0,0,0.1,0c0,0,0,0,0,0c0,0,0,0,0.1,0c0.3-0.2,0.5-0.3,0.8-0.5c0.2-0.1,0.4-0.2,0.6,0c0,0,0,0.1,0.1,0.1
			c-0.1,0.2-0.1,0.4-0.2,0.6c-0.1,0.2-0.2,0.4-0.3,0.7c0,0.1-0.1,0.2,0,0.4c0.1,0.3,0.3,0.6,0.4,0.9c0.2,0.3-0.1,0.5-0.2,0.7
			c-0.4,0.5-0.4,0.7,0.1,1.1c0.1-0.3,0.3-0.6,0.4-0.9l0,0c0,0,0.1,0,0.1-0.1c0.4-0.1,0.8-0.3,1.2-0.4c0.2,0,0.1-0.1,0.1-0.2
			c0-0.3,0-0.5,0-0.8c-0.1-0.6,0.1-1,0.7-1.2c0,0,0.1-0.1,0.1-0.1c0,0,0,0,0.1,0c0,0,0,0,0.1,0c0.2-0.1,0.3-0.1,0.5-0.3
			c0.2,0,0.1-0.2,0.1-0.3c0-0.7,0-1.4,0-2.2C37,2,37.1,1.9,37.4,2c0.4,0.2,0.8,0.4,1.1,0.8c0.5,0.6,0.9,1.3,1.2,2
			c0.3,0.8,0.4,1.6,0.3,2.5c0,0.2-0.2,1-0.2,1.1c-0.1,0.5-0.3,1-0.6,1.4c0,0.1-0.4,0.5-0.5,0.6c-0.4,0.4-0.9,0.7-1.4,1.1
			c-0.4,0.2-0.9,0.4-1.3,0.6c0,0-0.1,0-0.1,0c-0.4,0.1-0.9,0.3-1.3,0.4c-0.3,0-0.7,0.1-1,0.1c-0.1,0-0.2,0-0.2,0.1
			c-0.4,0.5-0.7,1.1-1.1,1.6c-0.2,0.2-0.4,0.5-0.5,0.7c-0.4,0.5-0.4,0.5-0.1,1c0,0,0.1,0.1,0.1,0.1c0.2,0.5,0.6,0.7,1.2,0.7
			c0.4,0.1,0.9,0.2,1.3,0.3c0.1,0.1,0.3,0.1,0.4,0.1c0.6,0.2,1.3,0.3,1.9,0.5c0.2,0.1,0.4,0.1,0.5,0.4c0.4,0.6,1.7,3.1,1.9,3.4
			c0.1,0.2,0.2,0.5,0.3,0.7C39.3,22.4,39.3,22.5,39.1,22.6z"/>
		<path class="st0" d="M28.2,6.6c-0.1,0.9-0.9,1.7-1.8,1.6c-0.9-0.1-1.6-0.9-1.6-1.8c0.1-0.9,0.9-1.6,1.8-1.5
			C27.6,4.9,28.3,5.6,28.2,6.6z M26.8,6c0.2,0,0.4-0.1,0.4-0.4c0-0.2-0.1-0.4-0.3-0.4c-0.2,0-0.4,0.1-0.4,0.3
			C26.5,5.8,26.6,6,26.8,6z"/>
		<path class="st0" d="M13.8,4.3c0.9,0.1,1.6,0.9,1.5,1.8c-0.1,1-0.9,1.7-1.8,1.6c-0.9-0.1-1.6-1-1.6-1.9
			C12.1,4.9,12.9,4.2,13.8,4.3z M14.4,5.1c0-0.2-0.1-0.4-0.4-0.4c-0.2,0-0.4,0.1-0.4,0.3c0,0.2,0.1,0.4,0.3,0.4
			C14.2,5.5,14.3,5.3,14.4,5.1z"/>
	</g>
</g>
</svg>
