<?xml version="1.0" encoding="utf-8"?>
<!-- Generator: Adobe Illustrator 26.0.0, SVG Export Plug-In . SVG Version: 6.00 Build 0)  -->
<svg version="1.1" id="Capa_1" xmlns="http://www.w3.org/2000/svg" xmlns:xlink="http://www.w3.org/1999/xlink" x="0px" y="0px"
	 viewBox="0 0 58.1 75.7" style="enable-background:new 0 0 58.1 75.7;" xml:space="preserve">
<style type="text/css">
	.st0{fill:#0A222E;}
	.st1{fill:#4F97C6;}
	.st2{fill:#2183B5;}
	.st3{fill:#1B597A;}
	.st4{fill:#35ABDB;}
	.st5{fill:none;stroke:#FFFFFF;stroke-width:0.3182;stroke-miterlimit:10;}
	.st6{opacity:0.18;fill:#020203;}
</style>
<g>
	<g>
		<g>
			<g>
				<path class="st0" d="M57.9,32C46.7,23.7,33.7,0,33.7,0c-1.5,0.3-3.5,0.5-4.9,0.6c0,0,12.4,23.1,23.5,31.4c0,0,2.7,16.5-3.1,27.7
					c-5.1,9.8-12.8,14.1-19.1,15.6l0,0c6.6-0.8,17.8-4.6,23.6-15.8C59.5,48.3,57.9,32,57.9,32z"/>
			</g>
			<g>
				<path class="st0" d="M7.5,6.1c0,0,0,0.1,0,0.2c5.9,0,15.1-1,21.3-5.7C18.9,6.2,7.5,6.1,7.5,6.1z"/>
			</g>
		</g>
	</g>
	<path class="st1" d="M28.8,0.6c0,0,12.4,23.1,23.5,31.4c0,0,2.7,16.5-3.1,27.7s-15,15.3-21.6,16.1c0,0-16.5-10.7-21-21.5
		c0,0-7.7-14.7-6.5-29.9S2,6.1,2,6.1S19.1,8,28.8,0.6z"/>
	<path class="st2" d="M26.5,7c1.1,4.2,10.9,19.8,20.2,26.3c0,0,1.6,12.7-2.4,21.6C39.8,65.1,31.7,70,26.5,69.4
		c0,0-12.1-10.2-15.5-18.6c0,0-7.2-11.5-6.3-23.5c1-11.9,0.9-15.8,0.9-15.8S18.9,12.8,26.5,7z"/>
	<path class="st3" d="M13.4,52.6c0,0-7.2-11.5-6.3-23.5C8.1,17.2,8,13.3,8,13.3s11.9,1.2,19.6-3.6C27,8.6,26.7,7.7,26.5,7
		c-7.6,5.8-20.9,4.5-20.9,4.5s0,3.8-0.9,15.8C3.7,39.2,11,50.8,11,50.8c3.5,8.4,15.5,18.6,15.5,18.6c0.1,0,0.3,0,0.4,0
		C23.3,66.1,16,58.9,13.4,52.6z"/>
	<path class="st4" d="M46.7,33.3c0,0,1.6,12.7-2.4,21.6c-3.6,8.2-9.6,13-14.5,14.2C35.5,68,42.8,63.1,45.4,55
		C48.3,45.6,46.7,33.3,46.7,33.3z"/>
	<path class="st5" d="M26.2,11.4"/>
	<path class="st6" d="M29.7,75.4c6.4-1.4,14.3-5.7,19.5-15.7C55,48.5,52.3,32,52.3,32C41.9,24.2,30.3,3.3,29,0.9
		C23.6,11.8,18,56.2,29.7,75.4z"/>
</g>
</svg>
