<?xml version="1.0" encoding="utf-8"?>
<!-- Generator: Adobe Illustrator 26.0.0, SVG Export Plug-In . SVG Version: 6.00 Build 0)  -->
<svg version="1.1" id="Capa_1" xmlns="http://www.w3.org/2000/svg" xmlns:xlink="http://www.w3.org/1999/xlink" x="0px" y="0px"
	 viewBox="0 0 449.9 156.7" style="enable-background:new 0 0 449.9 156.7;" xml:space="preserve">
<style type="text/css">
	.st0{fill:#107633;}
</style>
<path class="st0" d="M411.7,36v58.5h-69.6V62.8h-71.3v67.6h-46V36h-54.8v22h-46.6V42.8H81v18.9H47.4V0H0v156.7h449.9V36H411.7z
	 M20.4,37.8H3V26h17.4V37.8z M20.4,17.7H3V5.9h17.4V17.7z M43.4,37.8H25.9V26h17.4V37.8z M43.4,17.7H25.9V5.9h17.4V17.7z M195.8,130
	h-17.4v-11.8h17.4V130z M195.8,110.9h-17.4V99.1h17.4V110.9z M195.8,91.8h-17.4V80h17.4V91.8z M195.8,72.7h-17.4V60.9h17.4V72.7z
	 M195.8,53.6h-17.4V41.8h17.4V53.6z M218.8,130h-17.4v-11.8h17.4V130z M218.8,110.9h-17.4V99.1h17.4V110.9z M218.8,91.8h-17.4V80
	h17.4V91.8z M218.8,72.7h-17.4V60.9h17.4V72.7z M218.8,53.6h-17.4V41.8h17.4V53.6z M295.3,110.1h-14.1v-9.5h14.1V110.1z M295.3,94.7
	h-14.1v-9.5h14.1V94.7z M295.3,79.3h-14.1v-9.5h14.1V79.3z M313.8,110.1h-14.1v-9.5h14.1V110.1z M313.8,94.7h-14.1v-9.5h14.1V94.7z
	 M313.8,79.3h-14.1v-9.5h14.1V79.3z M330.9,110.1h-14.1v-9.5h14.1V110.1z M330.9,94.7h-14.1v-9.5h14.1V94.7z M330.9,79.3h-14.1v-9.5
	h14.1V79.3z"/>
</svg>
