<?xml version="1.0" encoding="utf-8"?>
<!-- Generator: Adobe Illustrator 26.0.0, SVG Export Plug-In . SVG Version: 6.00 Build 0)  -->
<svg version="1.1" id="Capa_1" xmlns="http://www.w3.org/2000/svg" xmlns:xlink="http://www.w3.org/1999/xlink" x="0px" y="0px"
	 viewBox="0 0 200.1 70.3" style="enable-background:new 0 0 200.1 70.3;" xml:space="preserve">
<style type="text/css">
	.st0{fill:#839F29;}
</style>
<path class="st0" d="M200.1,32.1c0-12.3-9.2-22.2-20.6-22.2c-7.4,0-13.8,4.2-17.5,10.5c-3.7-4.2-9-6.9-14.9-6.9
	c-6.3,0-11.9,3.1-15.7,7.9C129.8,11,121.4,3.1,111.3,3.1c-9.8,0-18,7.4-20.1,17.4c-1.2-0.5-2.4-1-3.6-1.3C86.2,8.4,77.6,0,67.2,0
	c-10.4,0-19,8.3-20.4,19.1c-2.5,0.2-4.9,0.8-7.1,1.8C36.8,12.6,29.3,6.6,20.6,6.6C9.2,6.6,0,16.6,0,28.8c0,2.6,0.4,5,1.2,7.3
	c-0.5,1.2-0.7,2.5-0.7,3.8v19.7c0,5.9,4.8,10.7,10.6,10.7h177.6c5.8,0,10.6-4.8,10.6-10.7V39.9c0-0.4,0-0.9-0.1-1.3
	C199.8,36.6,200.1,34.4,200.1,32.1z"/>
</svg>
