<?xml version="1.0" encoding="utf-8"?>
<!-- Generator: Adobe Illustrator 26.0.0, SVG Export Plug-In . SVG Version: 6.00 Build 0)  -->
<svg version="1.1" id="Capa_1" xmlns="http://www.w3.org/2000/svg" xmlns:xlink="http://www.w3.org/1999/xlink" x="0px" y="0px"
	 viewBox="0 0 40.7 80.6" style="enable-background:new 0 0 40.7 80.6;" xml:space="preserve">
<style type="text/css">
	.st0{fill:#676767;}
	.st1{fill:#29292E;}
	.st2{fill:#B9BCBA;}
	.st3{fill:#F9B03D;}
	.st4{fill:#E58125;}
</style>
<g>
	<rect x="33.1" class="st0" width="1.9" height="33.7"/>
	<rect x="5.7" class="st0" width="1.9" height="33.7"/>
	<ellipse transform="matrix(0.9736 -0.2283 0.2283 0.9736 -6.5987 5.4667)" class="st1" cx="20.3" cy="31.3" rx="14.8" ry="14.8"/>
	<ellipse transform="matrix(0.9251 -0.3798 0.3798 0.9251 -10.347 10.0627)" class="st2" cx="20.3" cy="31.3" rx="12.5" ry="12.5"/>
	<path class="st1" d="M18.4,59.9c0,0,0,1.6,0,2.7c0,4.5,6.6,4.4,5.8,9.8c-0.3,2.1-4,2.7-5.6,0.8c-1.2-1.5-0.8-3.4-2.2-4.8
		c-1.4-1.4-4.3-1.5-4.2-0.9c0,0.6,0.7,0.4,1.6,1.9c0.7,1.1-0.7,4.7,1.5,7.9c2.9,4.5,10.8,3.9,13.3,0.2c2.1-3.1,2.5-6.9,0.1-10.6
		c-2.2-3.4-6-3.7-6-6.1v-1.1H18.4z"/>
	<polygon class="st0" points="25.4,25.5 20.3,25.5 15.2,25.5 0,37.9 15.2,62.4 20.3,62.4 25.4,62.4 40.7,37.9 	"/>
	<polygon class="st3" points="0,37.9 2.8,42.5 11.5,28.6 	"/>
	<polygon class="st3" points="20.3,25.5 19.3,25.5 5.8,47.2 8.7,51.9 25.2,25.5 	"/>
	<polygon class="st3" points="29.2,28.6 11.7,56.6 14.6,61.4 33.1,31.8 	"/>
	<polygon class="st3" points="25.4,62.4 40.7,37.9 37,35 19.9,62.4 20.3,62.4 	"/>
	<path class="st1" d="M22.2,59.1c0,1-0.8,1.9-1.9,1.9c-1,0-1.9-0.8-1.9-1.9c0-1,0.8-1.9,1.9-1.9C21.4,57.2,22.2,58.1,22.2,59.1z"/>
	<path class="st4" d="M22.8,31.3c0,1.4-1.1,2.5-2.5,2.5c-1.4,0-2.5-1.1-2.5-2.5s1.1-2.5,2.5-2.5C21.7,28.8,22.8,29.9,22.8,31.3z"/>
	<path class="st4" d="M4.3,38.4c0,0.7-0.5,1.2-1.2,1.2c-0.7,0-1.2-0.5-1.2-1.2s0.5-1.2,1.2-1.2C3.8,37.2,4.3,37.8,4.3,38.4z"/>
	<path class="st4" d="M36.3,38.4c0,0.7,0.5,1.2,1.2,1.2c0.7,0,1.2-0.5,1.2-1.2s-0.5-1.2-1.2-1.2C36.9,37.2,36.3,37.8,36.3,38.4z"/>
</g>
</svg>
