<?xml version="1.0" encoding="utf-8"?>
<!-- Generator: Adobe Illustrator 26.0.0, SVG Export Plug-In . SVG Version: 6.00 Build 0)  -->
<svg version="1.1" id="Capa_1" xmlns="http://www.w3.org/2000/svg" xmlns:xlink="http://www.w3.org/1999/xlink" x="0px" y="0px"
	 viewBox="0 0 34.7 45.2" style="enable-background:new 0 0 34.7 45.2;" xml:space="preserve">
<style type="text/css">
	.st0{fill:#1B597A;}
	.st1{fill:#2183B5;}
	.st2{fill:#085880;}
	.st3{fill:#4F97C6;}
</style>
<g>
	<g>
		<polygon class="st0" points="6.2,21.7 2.5,27.2 8,22.6 		"/>
		<path class="st0" d="M25.1,11.9L5.7,0.3c0,0-1.7-0.8-2.8,0C2.7,0.5,2.5,0.7,2.4,0.9c0.8,0,1.4,0.3,1.4,0.3l19.4,11.2
			c1.5,1.3,1.8,2.4,1.7,3.9l-0.7,13c-0.1,0.2-0.2,0.4-0.3,0.6c1.1,0.5,1.9,0.4,2.3-0.6l0.7-13.3C26.9,14.4,26.6,13.2,25.1,11.9z"/>
	</g>
	<path class="st1" d="M0,3.2c0,0-0.2-1.2,1-2s2.8,0,2.8,0l19.4,11.2c1.5,1.3,1.8,2.4,1.7,3.9l-0.7,13c-0.3,1.1-1.3,1.1-2.6,0.5
		l-15.4-8l-3.7,5.5L2.3,19c0,0-1.8-0.1-1.8-2.4S0,3.2,0,3.2z"/>
	<path class="st2" d="M16.6,20.4c0.1-0.6,0.6-1.5,2-1.4c0.7,0.4,14.6,8.6,14.6,8.6c1.1,1,1.6,2,1.5,3v7.7c0,1.3-0.5,2.1-1.8,1.8
		l-1.5,0l-1.3,5.1l-3-7.6l-8.9-4.7c-1.3-0.8-1.6-1.9-1.6-3.1V20.4z"/>
	<path class="st3" d="M15.3,20.7c0.1-0.6,0.6-1.5,2-1.4c0.7,0.4,14.6,8.6,14.6,8.6c1.1,1,1.6,2,1.5,3v7.7c0,1.3-0.5,2.1-1.8,1.8
		l-1.5,0L30,44.7l-4.2-6.9l-8.9-4.7c-1.3-0.8-1.6-1.9-1.6-3.1V20.7z"/>
</g>
</svg>
