<?xml version="1.0" encoding="utf-8"?>
<!-- Generator: Adobe Illustrator 26.0.0, SVG Export Plug-In . SVG Version: 6.00 Build 0)  -->
<svg version="1.1" id="Capa_1" xmlns="http://www.w3.org/2000/svg" xmlns:xlink="http://www.w3.org/1999/xlink" x="0px" y="0px"
	 viewBox="0 0 93.2 86.3" style="enable-background:new 0 0 93.2 86.3;" xml:space="preserve">
<style type="text/css">
	.st0{fill:#0A222E;}
	.st1{fill:#085880;}
	.st2{fill:#4F97C6;}
</style>
<g>
	<g>
		<path class="st0" d="M32.9,8.2c1-1.1,2.2-2.2,3.6-3.2c-2.3-1.3-8.3-3.9-13.6-1c-1.1,0.6-1.9,1.3-2.6,2.1
			C26.3,3.3,32.9,8.2,32.9,8.2z"/>
		<path class="st0" d="M93,65.2C91.5,47.6,78,43,78,43s1.3-21.6-12.8-34.8C53.6-2.6,45.9-0.9,40.6,3c4.4-1.2,10.2,0.1,17.7,7.8
			c13,13.2,11.8,34.8,11.8,34.8s12.5,4.6,13.9,22.3c0.6,8.1-1.6,12.7-4.3,15.3c0.9,0.5,1.4,0.7,1.4,0.7S94.6,82.8,93,65.2z"/>
		<path class="st0" d="M14.8,19.3c0,0-0.5-2.6,0.1-5.5c-2.9-2.3-7.3-4.2-10.8,1.5C8.9,11.1,14.8,19.3,14.8,19.3z"/>
	</g>
	<path class="st1" d="M73.2,86.3c0,0,12.3-0.9,10.9-18.5c-1.4-17.6-13.9-22.3-13.9-22.3s1.2-21.6-11.8-34.8S37.7,3.1,32.9,8.2
		c0,0-7.2-5.3-13.4-1.6s-4.6,12.8-4.6,12.8s-7.9-11.1-13-0.9s2.3,26,2.3,26s2.1,4.6,6.7,6.9C15.5,53.6,73.2,86.3,73.2,86.3z"/>
	<polyline class="st2" points="43.2,69.3 43.2,40.3 46.5,40.3 39.5,24.5 32.2,32.9 35.3,34.5 35.3,64.9 43.1,70.3 	"/>
	<g>
		<polygon class="st0" points="39.5,24.5 38.6,25.6 45.1,40.3 46.5,40.3 		"/>
		<polygon class="st0" points="41.8,69.3 41.8,69.4 43.1,70.3 43.2,69.3 43.2,40.3 41.8,40.3 		"/>
	</g>
</g>
</svg>
