<?xml version="1.0" encoding="utf-8"?>
<!-- Generator: Adobe Illustrator 26.0.0, SVG Export Plug-In . SVG Version: 6.00 Build 0)  -->
<svg version="1.1" id="Capa_1" xmlns="http://www.w3.org/2000/svg" xmlns:xlink="http://www.w3.org/1999/xlink" x="0px" y="0px"
	 viewBox="0 0 49.9 37" style="enable-background:new 0 0 49.9 37;" xml:space="preserve">
<style type="text/css">
	.st0{fill:#FFFFFF;}
	.st1{fill:#EB602F;}
	.st2{fill:#FFDF0C;}
	.st3{fill:#EAA350;}
	.st4{fill:#070711;}
</style>
<g>
	<g>
		<path class="st0" d="M49.9,19.7c0,0-3.3,12.3-20.2,13.4C29.7,33.1,46.8,37.7,49.9,19.7z"/>
		<path class="st0" d="M13.4,30.4c0,0-8.8-1.1-9.4-9.2C4,21.2,2.2,31.5,13.4,30.4z"/>
		<path class="st0" d="M0,30.5c0,0,4,5.8,10.5,5c6.6-0.9,1.5,0,1.5,0S3.1,41.2,0,30.5z"/>
	</g>
	<g>
		<path class="st1" d="M39,8.5c0-2.1-0.8-4-2-5.5c0.7-0.8,5.1-0.8,5.8,0.1c0.4,0.6-0.9,5.9-3,5.9c-0.3,0-0.6,0-0.8-0.1
			C38.9,8.8,39,8.6,39,8.5z"/>
		<path class="st2" d="M14.3,10.4c0.2,0,0.5,0,0.7,0.1c0,0,0,0,0-0.1c0-1.7,1.3-3.2,2.8-3.2c1,0,1.8,0.5,2.3,1.4
			c0.3-0.1,0.6-0.1,0.9-0.1c0.7,0,1.3,0.2,1.7,0.4c0-0.1,0-0.3,0-0.4c0-4.7,3.8-8.5,8.5-8.5c4.7,0,8.5,3.8,8.5,8.5
			c0,1.5-0.4,2.8-1,4c0.2,0.8,0.3,1.6,0.3,2.4c0,6.4-6.5,11.6-14.6,11.6S9.7,21.4,9.7,14.9C9.7,12.4,11.8,10.4,14.3,10.4z"/>
		<g>
			<g>
				<path class="st3" d="M24.3,23.1c7.3,0,13.4-4.3,14.4-9.9c0.1,0.6,0.2,1.1,0.2,1.7c0,6.4-6.5,11.6-14.6,11.6S9.7,21.4,9.7,14.9
					c0-0.6,0.1-1.2,0.2-1.7C11,18.8,17,23.1,24.3,23.1z"/>
			</g>
		</g>
		<path class="st4" d="M25.5,11.5c0.4,0,0.9,0.1,1.3,0.2v0.4c-0.1,0-0.3,0-0.4,0c-2.7,0-4.9,1.9-4.9,4.3c0,2.4,2.2,4.3,4.9,4.3
			c0.1,0,0.3,0,0.4,0v0.4c-0.4,0.1-0.8,0.2-1.3,0.2c-2.7,0-4.9-2.2-4.9-4.9C20.6,13.7,22.8,11.5,25.5,11.5z"/>
		<circle class="st4" cx="33.7" cy="6.9" r="1.6"/>
	</g>
</g>
</svg>
