<?xml version="1.0" encoding="utf-8"?>
<!-- Generator: Adobe Illustrator 26.0.0, SVG Export Plug-In . SVG Version: 6.00 Build 0)  -->
<svg version="1.1" id="Capa_1" xmlns="http://www.w3.org/2000/svg" xmlns:xlink="http://www.w3.org/1999/xlink" x="0px" y="0px"
	 viewBox="0 0 48.2 56.7" style="enable-background:new 0 0 48.2 56.7;" xml:space="preserve">
<style type="text/css">
	.st0{fill:#555C66;}
	.st1{fill:#F9B03D;}
	.st2{fill:#FFFFFF;}
	.st3{fill:#E58125;}
</style>
<g>
	<polygon class="st0" points="48.2,18.1 48.2,17.2 25,17.2 25,18.1 36.6,23.5 	"/>
	<polygon class="st1" points="48.2,17.2 36.6,12.1 36.6,12.1 36.6,12.1 25,17.2 36.6,22.6 36.6,22.6 36.6,22.6 	"/>
	<g>
		<g>
			<path class="st2" d="M38.6,0.5c-0.7,0.1-1.3,0.1-2,0.1c-0.7,0-1.3,0-2-0.1c-2.1,5.8-4.2,11.2-6.1,16.1c2.5,1.5,5.3,2.3,8,2.3
				c2.8,0,5.6-0.8,8-2.3C42.7,11.7,40.7,6.3,38.6,0.5z"/>
		</g>
		<g>
			<g>
				<path class="st3" d="M28.5,16.6c2.5,1.5,5.3,2.3,8,2.3c2.8,0,5.6-0.8,8-2.3c-0.4-1-0.8-2-1.2-3.1c-4.3,2.2-9.4,2.2-13.8,0
					C29.3,14.6,28.9,15.6,28.5,16.6z"/>
			</g>
		</g>
		<g>
			<g>
				<path class="st3" d="M30.9,10.5c3.7,1.5,7.8,1.5,11.4,0c-0.4-1.1-0.8-2.2-1.2-3.3c-2.9,0.9-6,0.9-9,0
					C31.7,8.3,31.3,9.4,30.9,10.5z"/>
			</g>
		</g>
		<g>
			<g>
				<path class="st3" d="M38.6,0.5c-0.7,0.1-1.3,0.1-2,0.1c-0.7,0-1.3,0-2-0.1c-0.4,1.2-0.9,2.3-1.3,3.5c2.1,0.5,4.4,0.5,6.5,0
					C39.4,2.8,39,1.6,38.6,0.5z"/>
			</g>
		</g>
	</g>
	<ellipse class="st0" cx="36.6" cy="0.5" rx="2" ry="0.5"/>
</g>
<g>
	<polygon class="st0" points="33.6,48.8 33.6,47.5 0,47.5 0,48.8 16.8,56.7 	"/>
	<polygon class="st1" points="33.6,47.5 16.8,40.1 16.8,40.1 16.8,40.1 0,47.5 16.8,55.3 16.8,55.3 16.8,55.3 	"/>
	<g>
		<g>
			<path class="st2" d="M19.7,23.2c-1,0.1-1.9,0.2-2.9,0.2c-1,0-1.9-0.1-2.9-0.2c-3.1,8.4-6,16.2-8.8,23.4c3.6,2.2,7.6,3.3,11.6,3.3
				c4,0,8.1-1.1,11.6-3.3C25.7,39.5,22.7,31.7,19.7,23.2z"/>
		</g>
		<g>
			<g>
				<path class="st3" d="M5.1,46.6c3.6,2.2,7.6,3.3,11.6,3.3c4,0,8.1-1.1,11.6-3.3c-0.6-1.4-1.1-2.9-1.7-4.4
					c-6.3,3.1-13.7,3.1-19.9,0C6.3,43.7,5.7,45.2,5.1,46.6z"/>
			</g>
		</g>
		<g>
			<g>
				<path class="st3" d="M8.5,37.7c5.3,2.1,11.2,2.1,16.5,0c-0.6-1.5-1.2-3.1-1.8-4.7c-4.2,1.3-8.7,1.3-13,0
					C9.7,34.6,9.1,36.2,8.5,37.7z"/>
			</g>
		</g>
		<g>
			<g>
				<path class="st3" d="M19.7,23.2c-1,0.1-1.9,0.2-2.9,0.2c-1,0-1.9-0.1-2.9-0.2c-0.6,1.7-1.2,3.4-1.8,5c3.1,0.7,6.3,0.7,9.4,0
					C20.9,26.6,20.3,24.9,19.7,23.2z"/>
			</g>
		</g>
	</g>
	<ellipse class="st0" cx="16.8" cy="23.2" rx="2.9" ry="0.7"/>
</g>
</svg>
