<?xml version="1.0" encoding="utf-8"?>
<!-- Generator: Adobe Illustrator 26.0.0, SVG Export Plug-In . SVG Version: 6.00 Build 0)  -->
<svg version="1.1" id="Capa_1" xmlns="http://www.w3.org/2000/svg" xmlns:xlink="http://www.w3.org/1999/xlink" x="0px" y="0px"
	 viewBox="0 0 37.7 36.6" style="enable-background:new 0 0 37.7 36.6;" xml:space="preserve">
<style type="text/css">
	.st0{fill:#391C47;}
	.st1{fill:#EF7A4A;}
	.st2{fill:#DA4014;}
	.st3{opacity:0.18;fill:#020203;}
</style>
<g>
	<ellipse transform="matrix(0.9525 -0.3047 0.3047 0.9525 -4.6747 6.6188)" class="st0" cx="18.9" cy="18.3" rx="18.9" ry="18.2"/>
	<ellipse transform="matrix(0.9525 -0.3047 0.3047 0.9525 -4.6747 6.6188)" class="st1" cx="18.9" cy="18.3" rx="17.4" ry="16.7"/>
	<g>
		<path class="st2" d="M3.7,19.6c1.1-0.9,2.9-0.4,3.9-1.3C7.9,18,8,17.7,8.4,17.6c0.2-0.1,0.5,0,0.7,0c0.8,0.1,1.6,0.3,2.4,0.4
			c-0.1-0.6,0.2-1.3,0.7-1.7c0.5-0.4,1.1-0.6,1.8-0.7c3-0.7,6.1-0.9,9-1.7c0.4-0.1,0.9-0.3,1.2-0.5c0.4-0.3,0.6-0.8,0.5-1.2
			c-0.1-0.5-0.7-0.9-1.3-0.9c-0.6,0-1.1,0.2-1.6,0.4c-0.3,0.2-0.7,0.3-0.9,0.7c-0.2,0.3-0.2,0.7-0.4,1c-0.2,0.1-0.4,0.1-0.6,0.1
			c-1,0-1.9,0-2.9,0c-0.2,0-0.4-0.1-0.3-0.3c1-0.1,2.1-0.1,3.1,0.1c0.6-1.3,1.3-2.6,2.5-3.3c0.7-0.4,1.5-0.5,2.2-0.6
			c1.5-0.3,3-1,4.3-1.9c0-0.4-0.3-0.7-0.7-0.9c-1,0.1-1.9,0.3-2.8,0.5c-0.7,0.2-1.4,0.4-2,0.7c-1.2,0.6-2.4,1.3-3.4,2.2
			c-0.6,0.5-1.1,1.1-1.9,1.1C18.1,11,18,10.8,18,10.5c-1.2,0.7-2.5,1.4-3.8,2c0-0.5,0-1-0.1-1.4c0-0.2,0-0.4-0.2-0.5
			c-0.1-0.1-0.2,0-0.4,0c-1.9,0.5-3.6,1.5-4.9,3c-0.5,0.6-1,1.4-1.8,1.5c-0.8,0.1-1.4-0.3-2,0.4c-0.2,0.2-0.3,0.4-0.5,0.5
			c-0.2,0.1-0.4,0-0.6,0c-0.9,0-1.6,0.8-2,1.6c-0.1,1,0,2.1,0.1,3.1C1.9,21,2,21,2.2,21C2.9,20.9,3.2,20.1,3.7,19.6z"/>
		<path class="st2" d="M16.4,2.8c-0.1,0.2-0.1,0.3-0.2,0.5c-0.1,0.3-0.4,0.4-0.7,0.6c-0.9,0.5-1.7,1-2.6,1.6c-0.1-0.7-0.2-1.3-0.2-2
			c-0.4,0.8-1.4,1.2-2.2,1.7C9.7,5.7,9,6.7,9.5,7.5c0.1,0.1,0.1,0.2,0.2,0.2c0.3,0.1,0.5-0.2,0.6-0.4c0.5-0.9,0.9-1.8,1.4-2.8
			c-0.2,0.6-0.2,1.3-0.2,2c0.5-0.3,1-0.6,1.5-0.8c0.1,0,0.1-0.1,0.2-0.1c0.4-0.1,0.5,0.5,0.6,0.9c0.1,0.7,0.9,1.3,1.5,1
			c0.4-0.2,0.5-0.7,0.6-1.1c0.5-1.4,1.9-2.2,3.2-2.7C20.4,3.2,22,2.9,23,1.9c-1.2-0.3-2.5-0.4-3.8-0.4c-0.5,0.2-0.9,0.4-1.4,0.6
			C17.3,2.2,16.6,2.3,16.4,2.8z"/>
		<path class="st2" d="M31.3,13.2c-0.2,0.3-0.4,0.6-0.7,0.8c-0.1,0.1-0.3,0.2-0.4,0.3c0.1,0,0.2-0.1,0.4-0.1
			c1.6-0.5,3.1-1.5,4.5-2.5c-0.1-0.4-0.3-0.7-0.5-1.1c-0.2,0-0.3,0.1-0.5,0.2C32.9,11.5,32,12.3,31.3,13.2z"/>
		<path class="st2" d="M10.9,23.4c1.9-0.9,4-1.3,6.1-1.7c-1.1,1-2.3,1.8-3.7,2.5c-0.6,0.3-1.3,0.7-1.9,1c-0.7,0.5-1.4,1.1-2,1.7
			c0.7-0.6,1.5-0.9,2.3-1.2c2.9-1.2,5.9-2.4,8.8-3.5c0.9-0.4,1.9-0.8,2.4-1.7c-0.7,0.3-1.4,0.5-2.2,0.8c0.1-0.2,0.1-0.5,0.2-0.7
			c1.5-1.3,3.3-2.2,5.3-2.5c0.3-0.1,0.7-0.1,0.9-0.3c0.5-0.4,0.4-1.2,0.6-1.8c0-0.1,0.1-0.2,0.2-0.3c-1.9,1.3-3.7,2.8-5.9,3.3
			c-0.4,0.1-0.8,0.1-1,0.4c-0.1,0.1-0.1,0.2-0.2,0.3c-0.4,0.3-0.9-0.2-1.3-0.4c-0.6-0.3-1.3-0.2-1.9,0.1c-0.6,0.3-1.1,0.7-1.7,0.9
			c-1.4,0.5-3.1-0.1-4.3,0.6c-0.4,0.2-0.8,0.6-1.2,0.6c-0.6,0-1.1-0.7-1.7-0.7c-0.2,0.6,0,0.9,0.1,1.4c0.1,0.7,0.2,0.6-0.6,1
			c-1.1,0.6-2.1,1.3-3,2.1c-0.5,0.4-1.1,0.8-1.6,1.2c0,0,0,0.1,0.1,0.1c1.8-0.5,3.6-1,5.2-1.9C9.5,24.2,10.2,23.7,10.9,23.4z"/>
		<path class="st2" d="M28,15.6c0.5-0.3,0.9-0.6,1.4-0.8c0.2-0.1,0.5-0.2,0.7-0.4C29.3,14.6,28.4,14.9,28,15.6z"/>
		<path class="st2" d="M23.1,30c0.1,0,0.3-0.1,0.4-0.2c0.1-0.1,0.1-0.2,0.1-0.4c0-0.5,0-0.9,0-1.4c-0.8,0.4-1.5,0.8-2.2,1.2
			c-0.9,0.6-1.9,1.1-2.8,1.7c-0.3,0.2-0.6,0.4-0.9,0.5c-0.3,0.1-0.6,0.1-1,0.1c-0.5,0-1,0-1.6,0c-0.2-0.4,0.3-0.7,0.7-0.8
			c0.7-0.2,1.5-0.2,2.3-0.2c-0.1-0.1-0.3-0.3-0.4-0.4c1.3-0.9,2.4-1.9,3.5-3c0.1-0.1,0.1-0.2,0.2-0.3c0.2-0.4-0.1-0.9-0.5-1
			c-0.4-0.1-0.9,0-1.2,0.2c-0.3,0.2-0.6,0.6-0.9,0.9c-0.7,0.8-1.6,1.4-2.6,1.4c-0.5,0-1.1-0.1-1.5,0.1c-0.8,0.3-1,1.4-1.8,1.6
			c-0.4,0.1-0.9-0.1-1.3,0c-0.4,0.1-0.6,0.4-0.9,0.6c-0.3,0.2-0.7,0.4-1,0.1c-0.1-0.1-0.5,0.8-0.7,1.4c1.5,1,3.1,1.8,4.9,2.3
			c1.9-1.3,4.3-1.5,6.3-2.6C21,31.2,22,30.3,23.1,30z"/>
		<path class="st2" d="M32.5,18.3c-1.1,1.2-1.7,3-3.1,3.9c-1,0.6-2.2,0.8-2.8,1.7c-0.4,0.7-0.4,1.7-1.1,2.2c0.4,0,0.7-0.3,0.9-0.7
			c0.2-0.4,0.3-0.7,0.6-1c0.6-0.6,1.7-0.5,2.2-1.1c0.2-0.2,0.3-0.5,0.5-0.7c0.3-0.2,0.6-0.2,1-0.4c0.4-0.2,0.6-0.6,0.9-0.9
			c0.3-0.3,0.8-0.5,1.1-0.2c0.3,0.3,0.1,0.8,0,1.1c-0.3,0.7-0.7,1.5-1,2.2c-0.3,0.7-0.6,1.3-1.1,1.8c-0.5,0.5-1.3,0.9-1.6,1.5
			c-0.3,0.6-0.3,1.4-0.2,2.1c0.6-1,1.4-1.9,2.4-2.5c0.4-0.3,0.9-0.5,1.3-0.9c0.7-0.6,1.1-1.4,1.5-2.1c0.4-0.8,0.9-1.6,1.3-2.5
			c0.3-0.6,0.6-1.2,0.9-1.8c0.2-1.5,0.2-3.1-0.1-4.7c-0.2,0-0.5,0.2-0.8,0.5C34.3,16.7,33.3,17.4,32.5,18.3z"/>
	</g>
	<path class="st3" d="M29,28.4c6.4-6.4,6.7-16.6,0.9-23.5c0.4,0.3,0.8,0.7,1.1,1c6.8,6.8,6.9,17.8,0.1,24.6s-17.7,6.8-24.6,0
		c-0.4-0.4-0.7-0.7-1-1.1C12.4,35.1,22.6,34.8,29,28.4z"/>
</g>
</svg>
