<?xml version="1.0" encoding="utf-8"?>
<!-- Generator: Adobe Illustrator 26.0.0, SVG Export Plug-In . SVG Version: 6.00 Build 0)  -->
<svg version="1.1" id="Capa_1" xmlns="http://www.w3.org/2000/svg" xmlns:xlink="http://www.w3.org/1999/xlink" x="0px" y="0px"
	 viewBox="0 0 32.3 31.3" style="enable-background:new 0 0 32.3 31.3;" xml:space="preserve">
<style type="text/css">
	.st0{fill:#391C47;}
	.st1{fill:#74B6E5;}
	.st2{fill:#3E79BD;}
	.st3{opacity:0.18;fill:#020203;}
</style>
<g>
	<ellipse transform="matrix(0.9525 -0.3047 0.3047 0.9525 -3.9974 5.6599)" class="st0" cx="16.1" cy="15.6" rx="16.2" ry="15.6"/>
	<ellipse transform="matrix(0.9525 -0.3047 0.3047 0.9525 -3.9974 5.6599)" class="st1" cx="16.1" cy="15.6" rx="14.9" ry="14.3"/>
	<path class="st2" d="M3.1,22.7c-0.4-0.8-0.8-1.6-1.1-2.5C-0.4,12.6,4,4.5,11.8,2c4-1.3,8.1-0.8,11.5,0.9c-0.2,0.3-0.4,0.6-0.7,0.9
		c-1,1.3-1.5,2.4-1.6,2.8c-0.8,2-0.2,2.5-0.8,3.2c-2.1,2.4-6.9-0.8-10.3,1.8c-1.2,0.9-1.8,2.1-2.8,4.2c-1.4,2.9-1.1,4.1-2.2,5.6
		C4.5,21.8,3.9,22.3,3.1,22.7z M26.6,7.9c-1.9,2.9,0,6.2-1.8,7.4c-0.3,0.2-0.4,0.2-3.2,0c-4.2-0.3-4.3-0.3-5-0.2
		c-2.3,0.4-3.9,1.6-4.6,2.2c-0.2,0.2-0.9,0.8-2.2,2.8c-2,3.1-2,3.9-3.4,6c-0.1,0.2-0.2,0.3-0.3,0.5c3.7,3.2,9.1,4.4,14.3,2.8
		c7.8-2.5,12.2-10.6,9.8-18.1c-0.5-1.7-1.4-3.2-2.4-4.5C27.4,6.9,27,7.4,26.6,7.9z"/>
	<path class="st3" d="M24.8,24.3c5.5-5.5,5.7-14.2,0.7-20.1c0.3,0.3,0.7,0.6,1,0.9c5.8,5.8,5.9,15.2,0.1,21s-15.2,5.8-21,0
		c-0.3-0.3-0.6-0.6-0.9-1C10.6,30,19.4,29.7,24.8,24.3z"/>
</g>
</svg>
