<?xml version="1.0" encoding="utf-8"?>
<!-- Generator: Adobe Illustrator 26.0.0, SVG Export Plug-In . SVG Version: 6.00 Build 0)  -->
<svg version="1.1" id="Capa_1" xmlns="http://www.w3.org/2000/svg" xmlns:xlink="http://www.w3.org/1999/xlink" x="0px" y="0px"
	 viewBox="0 0 42.8 43.2" style="enable-background:new 0 0 42.8 43.2;" xml:space="preserve">
<style type="text/css">
	.st0{fill:#069DD8;}
	.st1{fill:#6DCAF3;}
	.st2{fill:#9ED7EE;}
	.st3{fill:#73B732;}
	.st4{fill:#C4D557;}
	.st5{fill:#449535;}
</style>
<g>
	<ellipse class="st0" cx="21.4" cy="21.6" rx="21.4" ry="21.6"/>
	<g>
		<path class="st1" d="M30.2,16.2c0-5.6-1.2-10.7-3.1-15c-1.4-0.4-2.8-0.6-4.3-0.7c0.6,2.1,0.9,4.3,0.9,6.6c0,10.9-6.7,19.7-15,19.7
			c-2.9,0-5.6-1.1-7.9-3c1.1,8.7,7.5,15.7,15.9,17.7C24.4,39.1,30.2,28.7,30.2,16.2z"/>
	</g>
	<g>
		<path class="st2" d="M23.7,7.1c0-2.3-0.3-4.5-0.9-6.6c-0.5,0-0.9,0-1.4,0C10,0.4,0.6,9.8,0.6,21.3c0,0.9,0.1,1.7,0.2,2.6
			c2.3,1.9,5,3,7.9,3C17,26.8,23.7,18,23.7,7.1z"/>
	</g>
	<path class="st3" d="M37.4,15.2c-1.1,0.4-1.7,2.5-1.6,4c0.1,1.5,1,2.3,0.6,3.6c-0.2,0.6-0.6,1.3-1,1.3c-0.6,0-0.5-1.6-1.6-2.4
		c-0.8-0.5-1.9-0.5-2.6-0.2c-1.7,0.7-2.5,3.1-2,4.9c0.7,2.3,3.2,2.4,3.5,4.4c0.1,1.3-0.8,2.8-1.7,3c-0.4,0.1-0.8,0-3-1.8
		c-1.9-1.5-2.2-1.9-2.8-1.9c-1.1,0.1-2.4,1.9-2.1,3.2c0.3,1.4,2.2,1.3,3.5,3.5c0.2,0.4,0.8,1.4,0.7,2.6c0,0.8-0.2,1.4-0.5,1.8
		c4.3-1.1,8-3.6,10.7-6.9c-1.7,0.4-3.3,0.2-3.8-0.6c-0.4-0.7,0.4-1.3,0-2.6c-0.4-1.6-1.8-1.6-2.9-3.4c-0.8-1.3-1.4-3.5-0.4-4.6
		c0.5-0.6,1.6-0.9,2.4-0.7c1.3,0.4,1.2,1.9,2.6,2.2c0.6,0.1,1.3,0.1,1.7-0.4c0.6-0.7-0.2-1.8-0.3-3.9c0-0.6-0.3-3.4,0.8-4
		c1-0.5,2.8,1.3,3.5,2c0.3,0.3,0.8,0.8,1.3,1.4c0-0.6-0.1-1.2-0.2-1.9c-0.2-0.3-0.4-0.5-0.5-0.6C40.9,16.9,38.8,14.6,37.4,15.2z"/>
	<path class="st4" d="M42.3,20.1c-0.5-0.7-1-1.1-1.3-1.4c-0.7-0.7-2.4-2.5-3.5-2c-1.1,0.5-0.9,3.4-0.8,4c0.2,2.1,0.9,3.2,0.3,3.9
		c-0.4,0.5-1.2,0.5-1.7,0.4c-1.3-0.3-1.3-1.8-2.6-2.2c-0.8-0.3-1.8,0.1-2.4,0.7c-1,1.1-0.4,3.3,0.4,4.6c1.1,1.8,2.5,1.8,2.9,3.4
		c0.4,1.3-0.4,2,0,2.6c0.5,0.8,2.1,1,3.8,0.6c3-3.6,4.8-8.2,4.8-13.3C42.3,20.9,42.3,20.5,42.3,20.1z"/>
	<path class="st5" d="M16,4.1c0.1,0.2-1.2,0.7-1.2,1.4c0,0.7,1.1,1.6,2.3,1.8c1.4,0.3,1.8-0.4,4.1-0.7c1.5-0.1,2.8,0,3.5,0.1
		c2,0.2,2.7,0.6,3.3,0.1c0.7-0.6,0.2-1.5,1-2.1c0.6-0.4,1.5-0.2,2.1,0c1.3,0.4,1.5,1,2.1,1.1c0.5,0.1,1-0.1,1.5-0.5
		c-2-1.7-4.4-3-7-3.9C28,1.9,28,2.4,28,2.9c-0.1,1-0.4,2.6-1.4,2.9c-0.8,0.3-1.4-0.7-3-0.7c-0.5,0-1,0.1-2,0.3
		c-2.1,0.5-2.5,1-3.5,0.8c-0.8-0.1-1.7-0.5-1.7-1c0-0.5,1.2-0.7,1.2-1.4c0-0.4-0.3-0.8-0.7-1c-0.9-0.4-1.7,0.8-2.8,0.7
		c-0.6-0.1-1.2-0.6-1.4-1.1c-0.7,0.3-1.3,0.7-1.9,1c0.7,0.4,1.6,0.7,2.3,0.8C14.5,4.4,15.9,3.8,16,4.1z"/>
	<path class="st5" d="M11.5,35.1c0.5,0.1,0.4,0.8,1,1.2c0.9,0.7,2.8,0.3,3.5-0.8c0.9-1.3,0-3.2-0.5-4.4c-0.9-2-1.8-2.1-1.9-3.5
		c-0.1-1.9,1.6-3.5,1.8-3.6c1.3-1.2,2.2-0.7,3-1.6c1.2-1.4,1.1-4.1-0.2-5.6c-0.1-0.1-1.3-1.4-2.5-1.1c-0.9,0.2-1.1,1.2-1.5,1.1
		c-0.3-0.1-0.4-1-0.2-3.2c0.2-3.2,0.4-3.6,0-4.2c-0.8-1.1-2.8-1.5-4.2-0.9c-1.2,0.5-1.4,1.5-2.6,1.6c-0.1,0-1.2,0.2-1.9-0.4
		c-0.3-0.2-0.4-0.6-0.5-1C4.4,9.3,4,9.9,3.6,10.5c0.2,0.3,0.6,0.5,1,0.7c0.3,0.1,1.5,0.6,2.6,0.2c1.1-0.4,1-1.3,2.2-1.9
		c0.8-0.4,2.2-0.7,3.1-0.1c1.2,0.8,1.3,2.8,0.8,4c-0.3,0.8-0.7,1-0.8,1.8c-0.1,0.9,0.3,2.1,0.9,2.2c0.6,0.2,0.9-0.8,2-0.9
		c1.1-0.1,2,0.8,2.1,1c1,1,1.1,2.7,0.5,3.8c-0.8,1.2-2.1,0.6-3.4,1.8c-1.4,1.3-1.7,3.9-1.2,5.7c0.6,2.5,2.4,3,2.1,4.8
		c-0.2,1.3-1.3,2.5-2.1,2.4c-0.6-0.1-0.5-1.1-1.6-2c-0.3-0.2-1.2-1-1.9-0.7c-0.7,0.3-0.7,1.3-1.2,2.9c-0.1,0.3-0.3,0.7-0.5,1.2
		c0.2,0.2,0.5,0.4,0.7,0.6c0.1-0.6,0.4-1.3,0.9-2C10.2,35.8,10.9,34.9,11.5,35.1z"/>
	<path class="st3" d="M8.4,37.5c0.2-0.5,0.4-1,0.5-1.2c0.6-1.6,0.5-2.6,1.2-2.9c0.7-0.3,1.6,0.5,1.9,0.7c1.1,0.9,1.1,1.9,1.6,2
		c0.7,0.1,1.9-1.1,2.1-2.4c0.2-1.8-1.5-2.3-2.1-4.8c-0.4-1.8-0.2-4.3,1.2-5.7c1.3-1.2,2.6-0.6,3.4-1.8c0.7-1.1,0.5-2.8-0.5-3.8
		c-0.2-0.2-1.1-1.1-2.1-1c-1,0.1-1.4,1.1-2,0.9c-0.6-0.2-1-1.3-0.9-2.2c0.1-0.8,0.5-1,0.8-1.8c0.5-1.3,0.3-3.2-0.8-4
		c-0.9-0.6-2.3-0.3-3.1,0.1c-1.2,0.6-1.1,1.5-2.2,1.9c-1.2,0.4-2.4,0-2.6-0.2c-0.5-0.2-0.8-0.5-1-0.7c-1.9,3.1-3,6.8-3,10.8
		C0.6,27.8,3.7,33.6,8.4,37.5z"/>
	<path class="st4" d="M12.5,2.4c0.3,0.5,0.8,1,1.4,1.1c1.1,0.2,1.9-1,2.8-0.7c0.4,0.2,0.8,0.6,0.7,1c0,0.7-1.3,0.9-1.2,1.4
		c0,0.4,0.9,0.9,1.7,1c1.1,0.1,1.4-0.3,3.5-0.8c1-0.2,1.5-0.3,2-0.3c1.7,0.1,2.2,1,3,0.7c1-0.3,1.3-1.9,1.4-2.9c0-0.5,0-1-0.1-1.5
		c-2-0.6-4.2-1-6.4-1C18.3,0.4,15.2,1.2,12.5,2.4z"/>
	<g>
		<g>
			<path class="st4" d="M8.3,27.2c1.3-0.8,0.8-2.2,2.5-3.5c0.7-0.6,0.9-0.4,3.3-1.3c3.1-1.3,3.4-1.9,3.5-2.1c0.3-1-0.4-2.3-1.2-2.5
				c-0.5-0.1-0.8,0.3-2.2,1.2c-1.1,0.6-1.6,0.9-2,0.7c-0.8-0.4-0.5-2.7-0.2-4c0.5-2.1,1.2-2.6,0.9-3.6c-0.3-1-1.5-1.9-2.5-1.8
				c-1.1,0.1-1.1,1.4-2.8,2.4c-0.3,0.2-1.9,1.2-3.5,0.7c-0.7-0.2-1.1-0.6-1.4-1c-1.3,2.7-2,5.7-2,8.9c0,0.6,0,1.2,0.1,1.8
				C1,23.9,1.4,24.6,2,25.3C3.7,27,6.6,28.2,8.3,27.2z"/>
		</g>
	</g>
	<ellipse class="st4" cx="8.6" cy="30" rx="2.5" ry="2.3"/>
	<ellipse class="st4" cx="30.7" cy="36.8" rx="2.7" ry="2"/>
	<path class="st5" d="M27.2,39.6c0-1.3-0.5-2.3-0.7-2.6c-1.3-2.2-3.1-2-3.5-3.5c-0.3-1.3,0.9-3.1,2.1-3.2c0.6-0.1,0.9,0.3,2.8,1.9
		c2.2,1.8,2.6,1.9,3,1.8c1-0.2,1.9-1.7,1.7-3c-0.2-2-2.8-2.1-3.5-4.4c-0.5-1.8,0.3-4.2,2-4.9c0.7-0.3,1.8-0.4,2.6,0.2
		c1.1,0.8,1.1,2.4,1.6,2.4c0.4,0,0.8-0.7,1-1.3c0.4-1.4-0.4-2.1-0.6-3.6c-0.1-1.6,0.4-3.6,1.6-4c1.5-0.6,3.5,1.7,4.2,2.5
		c0.1,0.1,0.3,0.3,0.5,0.6c-0.3-1.7-0.7-3.4-1.4-5c0,1.3,0,2.4-0.5,2.5c-0.5,0.1-1-1.1-2.3-1.2c-1.2-0.1-2.2,0.9-2.3,1
		c-1.5,1.6-1,4.5-0.4,6.1c0.2,0.5,0.5,1.2,0.4,1.2c-0.1,0.1-0.7-1.3-1.9-2c-1.2-0.7-2.9-0.5-4.1,0.3c-1.9,1.3-2.4,4-1.6,5.7
		c0.7,1.4,2,1.2,2.7,3c0.4,1,0.7,2.6,0,3c-0.5,0.3-1.5,0.1-1.9-0.5c-0.4-0.6,0-1.1-0.2-1.8c-0.4-1.1-2.2-1.6-3.5-1.4
		c-1.9,0.3-3.5,2.2-3.4,4.3c0.1,1.8,1.7,3.1,2.2,3.5c1.2,1,1.9,0.9,2.1,1.6c0.4,1.1-1,2.2-1.8,3.2c0.9-0.1,1.7-0.3,2.5-0.5
		C27,41,27.2,40.4,27.2,39.6z"/>
</g>
</svg>
