<?xml version="1.0" encoding="utf-8"?>
<!-- Generator: Adobe Illustrator 26.0.0, SVG Export Plug-In . SVG Version: 6.00 Build 0)  -->
<svg version="1.1" id="Capa_1" xmlns="http://www.w3.org/2000/svg" xmlns:xlink="http://www.w3.org/1999/xlink" x="0px" y="0px"
	 viewBox="0 0 77.2 47" style="enable-background:new 0 0 77.2 47;" xml:space="preserve">
<style type="text/css">
	.st0{fill:#391C47;}
	.st1{fill:#FDC52B;}
	.st2{fill:none;}
	.st3{fill:#F1851A;}
	.st4{opacity:0.18;fill:#020203;}
	.st5{opacity:0.42;fill:#FFFFFF;}
	.st6{opacity:0.18;}
	.st7{fill:#020203;}
</style>
<g>
	<ellipse transform="matrix(0.9525 -0.3047 0.3047 0.9525 -5.7301 12.8173)" class="st0" cx="38.2" cy="24.8" rx="23" ry="22.1"/>
	<ellipse transform="matrix(0.9525 -0.3047 0.3047 0.9525 -5.7301 12.8173)" class="st1" cx="38.2" cy="24.8" rx="21.1" ry="20.3"/>
	<g>
		<path class="st2" d="M62,29.9c0.1-0.2-1-1.4-2.9-3.1c-0.1,0.6-0.2,1.1-0.3,1.7C60.7,29.5,61.9,30.1,62,29.9z"/>
		<path class="st1" d="M58.8,28.4c0.1-0.6,0.2-1.1,0.3-1.7c-2.6-2.3-6.7-5.7-11.5-9c-9.4-6.5-15.9-8.9-19.2-10.8
			c-0.6,0.3-1.2,0.7-1.8,1c3.9,1.4,8.3,4.9,15,9.5C48.2,22,55,26.3,58.8,28.4z"/>
		<path class="st1" d="M50,41.4c1.7-1.1,3.2-2.5,4.5-4c-6.6-1.6-8.3-9.3-20.1-16.3c-5.7-3.4-10.9-4.9-14.3-6.3
			c-0.3,0.6-0.6,1.1-0.9,1.7C28.4,19.6,37.9,37.6,50,41.4z"/>
		<path class="st1" d="M18.1,31.2c3.4,10.7,15.1,16.4,26.2,13c-8.1-5-18.5-15.7-27.1-19.8C17.1,26.6,17.4,28.9,18.1,31.2z"/>
		<path class="st3" d="M54.4,37.4c2.2-2.6,3.7-5.7,4.4-9C55,26.3,48.2,22,41.7,17.5C35,12.9,30.5,9.4,26.6,8c-2.7,1.8-5,4.2-6.6,6.9
			c3.4,1.4,8.7,2.9,14.3,6.3C46.1,28.1,47.9,35.8,54.4,37.4z"/>
		<path class="st3" d="M59.1,26.8c0.3-2.8,0.1-5.6-0.8-8.4C54.9,7.6,43.1,1.9,32,5.4c-1.3,0.4-2.5,0.9-3.6,1.5
			c3.3,1.9,9.8,4.4,19.2,10.8C52.4,21.1,56.5,24.4,59.1,26.8z"/>
		<path class="st3" d="M44.3,44.2C44.3,44.1,44.4,44.1,44.3,44.2c2.1-0.7,4-1.6,5.7-2.7c-12-3.9-21.5-21.8-30.8-24.9
			c-1.2,2.4-1.8,5.1-2,7.8C25.8,28.4,36.2,39.2,44.3,44.2z"/>
	</g>
	<path class="st4" d="M23.9,28.1C26,38.5,33.1,45.3,44,44.1c-0.6,0.2-1.2,0.3-1.8,0.4c-11.5,2.3-22.6-4.7-24.7-15.7
		s5.3-21.7,16.8-24c0.6-0.1,1.2-0.2,1.8-0.3C25.6,7.6,21.8,17.8,23.9,28.1z"/>
	<path class="st5" d="M48.9,37.9c-8.7,6.7-21.2,5.8-28.6-2.2c0.3,0.5,0.4,0.8,0.8,1.3c7.2,9.3,20.9,10.9,30.1,3.8
		s10.6-19.7,4.2-28.4c-0.4-0.5-1.8-2-2.2-2.4C59,19.1,57.6,31.2,48.9,37.9z"/>
	<g>
		<path class="st3" d="M76.1,4.9c-2.8-5.6-14.4-5.8-30-0.3C47.5,5,48.7,5.5,50,6.2c8.6-2.3,14-1.2,15.6,2.1
			c1.5,2.9-1.3,7.5-6.7,12.3c-1.1,1-2.3,1.9-3.6,2.9c-0.7,0.5-1.4,1-2.1,1.5c-2.4,1.7-5.2,3.3-8.1,4.9c-0.6,0.3-1.2,0.6-1.9,1
			c-1.8,0.9-3.5,1.7-5.2,2.4c-1.8,0.8-3.6,1.4-5.4,2c-4,1.3-7.7,2.2-10.9,2.5c-5.1,0.5-8.8-0.4-10-2.7c-1.3-2.7-0.3-6.3,4.4-10.7
			c0.1-1.7,0.5-3.3,1-4.9C4.6,28-1.5,36.7,1.1,42c2.5,5.1,13.4,5.2,27.1,1c3.1-0.9,6.3-2.1,9.5-3.5c1.6-0.7,3.2-1.4,4.8-2.1
			c0.8-0.4,1.6-0.7,2.3-1.1c1.4-0.7,2.7-1.4,4.1-2.1c3.4-1.9,10.2-6.1,10.8-6.7C71.9,19,78.7,10,76.1,4.9z"/>
		<g>
			<g>
				<path class="st0" d="M11.4,46.5c-5.5,0-9.3-1.4-10.7-4.3C-2.1,36.6,4,27.7,16.7,18.9l1.3-0.9l-0.5,1.5c-0.5,1.5-0.9,3.2-1,4.8
					l0,0.2l-0.2,0.1c-4.1,3.9-5.6,7.4-4.3,10.1c1,2.1,4.4,2.9,9.4,2.4c3.2-0.3,6.9-1.2,10.8-2.4c1.7-0.6,3.6-1.3,5.4-2
					c1.8-0.7,3.5-1.5,5.2-2.4c0.6-0.3,1.2-0.6,1.9-1c2.9-1.5,5.6-3.1,8.1-4.8c0.7-0.5,1.4-1,2.1-1.5c1.3-0.9,2.5-1.9,3.6-2.9
					c5.4-4.8,7.8-9.1,6.6-11.7c-1.6-3.3-7.1-3.9-15-1.9l-0.2,0.1l-0.2-0.1C48.5,6,47.3,5.5,46,5.1l-1.6-0.5l1.6-0.6
					c15.7-5.6,27.8-5.4,30.7,0.6l0,0C79.3,10,73,18.9,60.2,27.9c-0.6,0.5-7.4,4.8-10.9,6.7c-1.4,0.7-2.7,1.4-4.1,2.1
					c-0.8,0.4-1.6,0.8-2.4,1.1c-1.6,0.8-3.2,1.5-4.9,2.2c-3.3,1.4-6.5,2.5-9.6,3.5C21.8,45.5,16,46.5,11.4,46.5z M16.1,20.7
					c-11.2,8-16.9,16.2-14.5,21c2.3,4.7,12.7,4.9,26.5,0.7c3.1-0.9,6.3-2.1,9.5-3.4c1.6-0.7,3.2-1.4,4.8-2.1
					c0.8-0.4,1.6-0.7,2.3-1.1c1.3-0.7,2.7-1.4,4-2.1c3.5-1.9,10.2-6.1,10.7-6.6C71.7,18.5,78,9.9,75.6,5.1l0,0
					c-2.6-5.2-13.5-5.4-27.9-0.5c0.8,0.3,1.5,0.6,2.3,1c8.4-2.1,14.2-1.2,16.1,2.5c1.5,3.1-1,7.8-6.8,13c-1.1,1-2.3,2-3.6,2.9
					c-0.7,0.5-1.4,1-2.1,1.5c-2.5,1.7-5.3,3.4-8.2,4.9c-0.6,0.3-1.2,0.6-1.9,1c-1.7,0.9-3.5,1.7-5.3,2.4c-1.8,0.8-3.7,1.4-5.4,2
					c-4,1.3-7.8,2.2-11,2.5c-5.5,0.5-9.3-0.5-10.5-3C10.1,33,10,29.3,15.5,24C15.6,22.9,15.8,21.8,16.1,20.7z"/>
			</g>
		</g>
	</g>
	<g class="st6">
		<g>
			<g>
				<path class="st7" d="M75.7,4.1c-0.1-0.3-0.3-0.6-0.5-0.8c2.2,5.2-4.6,14-16.4,22.3c-0.6,0.5-7.4,4.8-10.8,6.7
					c-1.3,0.7-2.7,1.4-4.1,2.1c-0.8,0.4-1.6,0.8-2.3,1.1c-1.6,0.8-3.2,1.5-4.8,2.1c-3.3,1.4-6.5,2.5-9.5,3.5
					c-12.9,4-23.3,4.1-26.6-0.2c0,0.1,0.1,0.2,0.1,0.2c2.5,5.1,13.4,5.2,27.1,1c3.1-0.9,6.3-2.1,9.5-3.5c1.6-0.7,3.2-1.4,4.8-2.1
					c0.8-0.4,1.6-0.7,2.3-1.1c1.4-0.7,2.7-1.4,4.1-2.1c3.4-1.9,10.2-6.1,10.8-6.7C71.4,18.3,78.3,9.3,75.7,4.1z"/>
			</g>
		</g>
	</g>
</g>
</svg>
