<svg xmlns="http://www.w3.org/2000/svg" viewBox="0 0 105 110"><defs><style>.cls-1{fill:#dfe5e9;}.cls-2{fill:#aac9dc;}.cls-3{fill:#015784;}.cls-4{fill:#a8c8db;}.cls-5{fill:#e89022;}.cls-6{fill:#fbb13f;}.cls-7{fill:#dd7a26;}.cls-8{fill:#f6f182;}.cls-9{fill:#ee3f63;}.cls-10{fill:#f06d73;}.cls-11{fill:#f9ab78;}.cls-12{fill:#fabd8f;}.cls-13{fill:#fff;opacity:0.45;}.cls-14{fill:#0275bb;}</style></defs><g id="Capa_2" data-name="Capa 2"><g id="Capa_1-2" data-name="Capa 1"><path class="cls-1" d="M0,0Z"/><path class="cls-1" d="M0,0Z"/><path class="cls-2" d="M0,0Z"/><path class="cls-1" d="M0,0Z"/><path class="cls-1" d="M0,0Z"/><path class="cls-2" d="M0,0Z"/><path class="cls-3" d="M0,0Z"/><path class="cls-2" d="M0,0Z"/><path class="cls-1" d="M0,0Z"/><path class="cls-4" d="M0,0Z"/><path class="cls-3" d="M0,0Z"/><path class="cls-5" d="M0,0Z"/><path class="cls-6" d="M0,0Z"/><path class="cls-5" d="M0,0Z"/><path class="cls-6" d="M0,0Z"/><path class="cls-7" d="M0,0Z"/><path class="cls-8" d="M0,0Z"/><path class="cls-3" d="M0,0Z"/><path class="cls-3" d="M0,0Z"/><path class="cls-9" d="M0,0Z"/><circle class="cls-10" cx="36" cy="34" r="3"/><circle class="cls-10" cx="74" cy="33" r="3"/><path d="M0,0Z"/><path class="cls-11" d="M0,0Z"/><path class="cls-12" d="M0,0Z"/><path d="M0,0Z"/><circle class="cls-10" cx="36" cy="33" r="3"/><circle class="cls-10" cx="75" cy="32" r="3"/><path class="cls-3" d="M0,0Z"/><path class="cls-3" d="M0,0Z"/><path class="cls-13" d="M0,0Z"/><path class="cls-13" d="M0,0Z"/><path class="cls-1" d="M0,0Z"/><path class="cls-1" d="M0,0Z"/><path class="cls-2" d="M0,0Z"/><path class="cls-1" d="M0,0Z"/><path class="cls-1" d="M0,0Z"/><path class="cls-2" d="M0,0Z"/><path class="cls-3" d="M0,0Z"/><path class="cls-8" d="M0,0Z"/><path class="cls-5" d="M0,0Z"/><path class="cls-6" d="M0,0Z"/><path class="cls-5" d="M0,0Z"/><path class="cls-6" d="M0,0Z"/><path class="cls-2" d="M0,0Z"/><path class="cls-1" d="M0,0Z"/><path class="cls-2" d="M0,0Z"/><path class="cls-3" d="M0,0Z"/><path class="cls-1" d="M0,0Z"/><path class="cls-2" d="M0,0Z"/><path class="cls-14" d="M0,0Z"/><path class="cls-1" d="M0,0Z"/></g></g></svg>