<svg xmlns="http://www.w3.org/2000/svg" viewBox="0 0 68 46"><defs><style>.cls-1{fill:#003c78;}.cls-2{fill:#28292e;}.cls-3{fill:#619cec;}.cls-4{fill:#535b65;}.cls-5{fill:#e58126;}.cls-6{fill:#fbb03b;}</style></defs><g id="Capa_2" data-name="Capa 2"><g id="Capa_1-2" data-name="Capa 1"><path class="cls-1" d="M5,0H26a2,2,0,0,1,2,2V2a0,0,0,0,1,0,0H4A0,0,0,0,1,4,2V2A2,2,0,0,1,5,0Z"/><polygon class="cls-2" points="44 29 1 29 5 36 44 36 44 29"/><polygon class="cls-3" points="25 3 5 3 1 24 1 29 30 29 30 18 25 3"/><path class="cls-2" d="M0,0Z"/><path class="cls-3" d="M0,0Z"/><path class="cls-4" d="M0,0Z"/><path class="cls-5" d="M0,0Z"/><path class="cls-6" d="M0,0Z"/><path class="cls-5" d="M0,0Z"/><polygon class="cls-4" points="48 30 58 33 57 34 49 32 48 30"/><path class="cls-6" d="M0,0Z"/><path class="cls-4" d="M0,0Z"/><path class="cls-6" d="M0,0Z"/><path class="cls-5" d="M0,0Z"/><path class="cls-1" d="M0,0Z"/><path class="cls-4" d="M0,0Z"/><path class="cls-4" d="M0,0Z"/><rect class="cls-3" x="12" y="18" width="17" height="1.26"/></g></g></svg>