<svg xmlns="http://www.w3.org/2000/svg" viewBox="0 0 101 141"><defs><style>.cls-1{fill:#08212d;}.cls-2{fill:#fbb13f;}.cls-3{fill:#e89022;}.cls-4{fill:#f8ce5d;}.cls-5{fill:#dfe5e9;}.cls-6{fill:#bfd4dd;}.cls-7{fill:#aac9dc;}.cls-8{fill:#b8d1dd;}.cls-9{fill:#f6f182;}.cls-10{fill:#015784;}.cls-11{fill:#a8c8db;}.cls-12{fill:#fabd8f;}.cls-13,.cls-21{fill:#fff;}.cls-13{opacity:0.45;}.cls-14{fill:#f06d73;}.cls-15{fill:#ee3f63;}.cls-16{fill:#33aff2;}.cls-17{fill:#7fcdf7;}.cls-18{fill:#bd1d2f;}.cls-19{fill:#ff2019;}.cls-20{fill:#7dcaf9;}.cls-22{fill:#dadada;}</style></defs><g id="Capa_2" data-name="Capa 2"><g id="Capa_1-2" data-name="Capa 1"><path class="cls-1" d="M0,0Z"/><path class="cls-2" d="M0,0Z"/><path class="cls-3" d="M0,0Z"/><path class="cls-4" d="M0,0Z"/><polygon class="cls-5" points="38 80 48 67 68 79 68 105 48 118 44 117 38 105 38 80"/><polygon class="cls-6" points="82 74 69 61 48 67 68 79 82 74"/><polygon class="cls-7" points="93 81 82 74 69 61 84 68 93 81"/><polygon class="cls-6" points="69 123 48 118 68 105 79 111 69 123"/><polygon class="cls-7" points="85 116 69 123 79 111 93 105 85 116"/><polygon class="cls-8" points="82 112 82 74 68 79 68 105 79 111 82 112"/><polygon class="cls-7" points="93 105 93 81 82 74 82 112 93 105"/><path class="cls-2" d="M0,0Z"/><path class="cls-3" d="M0,0Z"/><path class="cls-4" d="M0,0Z"/><path class="cls-5" d="M0,0Z"/><path class="cls-7" d="M0,0Z"/><ellipse class="cls-2" cx="86" cy="36" rx="10" ry="15"/><path class="cls-3" d="M0,0Z"/><path class="cls-9" d="M0,0Z"/><path class="cls-9" d="M0,0Z"/><path class="cls-10" d="M0,0Z"/><path class="cls-11" d="M0,0Z"/><path class="cls-10" d="M0,0Z"/><path class="cls-12" d="M0,0Z"/><path class="cls-13" d="M0,0Z"/><circle class="cls-14" cx="60" cy="47" r="3"/><path class="cls-10" d="M0,0Z"/><path class="cls-10" d="M0,0Z"/><path class="cls-15" d="M0,0Z"/><path d="M0,0Z"/><path class="cls-10" d="M0,0Z"/><path d="M0,0Z"/><path d="M0,0Z"/><path class="cls-16" d="M0,0Z"/><polygon class="cls-16" points="67 92 48 91 50 100 67 92"/><polygon class="cls-17" points="57 94 50 97 49 93 57 94"/><path class="cls-18" d="M0,0Z"/><polygon class="cls-19" points="51 101 51 103 72 93 72 92 51 101"/><path class="cls-20" d="M0,0Z"/><path class="cls-19" d="M0,0Z"/><path class="cls-21" d="M0,0Z"/><path class="cls-22" d="M0,0Z"/><path class="cls-21" d="M0,0Z"/><path class="cls-7" d="M0,0Z"/><path class="cls-5" d="M0,0Z"/></g></g></svg>