<svg xmlns="http://www.w3.org/2000/svg" viewBox="0 0 36 48"><defs><style>.cls-1{fill:#08577f;}.cls-2{fill:#4e98c6;}.cls-3{fill:#18597a;}</style></defs><g id="Capa_2" data-name="Capa 2"><g id="Capa_1-2" data-name="Capa 1"><polygon class="cls-1" points="0 0 0 27 36 48 36 21 0 0"/><polygon class="cls-2" points="0 0 0 5 36 25 36 21 0 0"/><path class="cls-3" d="M0,0Z"/><ellipse class="cls-2" cx="9" cy="21" rx="1" ry="2" transform="translate(-6 4) rotate(-18)"/><ellipse class="cls-2" cx="13" cy="23" rx="1" ry="2" transform="translate(-6 5) rotate(-18)"/><ellipse class="cls-2" cx="17" cy="26" rx="1" ry="2" transform="translate(-7 7) rotate(-18)"/><ellipse class="cls-3" cx="2" cy="4" ry="1" transform="translate(-1 1) rotate(-18)"/><ellipse class="cls-3" cx="4" cy="5" ry="1" transform="translate(-1 1) rotate(-18)"/><ellipse class="cls-3" cx="5" cy="6" ry="1" transform="translate(-2 2) rotate(-18)"/><ellipse class="cls-2" cx="22" cy="28" rx="1" ry="2" transform="translate(-8 8) rotate(-18)"/><ellipse class="cls-2" cx="26" cy="31" rx="1" ry="2" transform="translate(-8 10) rotate(-18)"/></g></g></svg>