<svg xmlns="http://www.w3.org/2000/svg" viewBox="0 0 135 183"><defs><style>.cls-1{fill:#f51b19;}.cls-2{fill:#ff942a;}.cls-3{fill:#f7e60f;}.cls-4{opacity:0.18;}.cls-5{fill:#d52029;}.cls-6{fill:#fd1719;}.cls-7{fill:#fc1a1e;}.cls-8{fill:#dc151b;}.cls-9{fill:#ffa59d;}.cls-10,.cls-34{fill:#fff;}.cls-11{fill:#25a8f4;}.cls-12{fill:#fa1e1d;}.cls-13{fill:#ffa7a8;}.cls-14{fill:#2b1a3b;}.cls-15{fill:#ff2525;}.cls-16,.cls-33{fill:none;}.cls-16{stroke:#015784;stroke-miterlimit:10;stroke-width:0.52px;}.cls-17{fill:#21a9f1;}.cls-18{fill:#258dc9;}.cls-19{fill:#a6ddf8;}.cls-20{fill:#dfe5e9;}.cls-21{fill:#bfd4dd;}.cls-22{fill:#aac9dc;}.cls-23{fill:#b8d1dd;}.cls-24{fill:#fbb13f;}.cls-25{fill:#e89022;}.cls-26{fill:#f6f182;}.cls-27{fill:#015784;}.cls-28{fill:#a8c8db;}.cls-29{fill:#fabd8f;}.cls-30{fill:#f8ce5d;}.cls-31{fill:#f06d73;}.cls-32{fill:#ee3f63;}.cls-34{opacity:0.45;}</style></defs><g id="Capa_2" data-name="Capa 2"><g id="Capa_1-2" data-name="Capa 1"><path class="cls-1" d="M0,0Z"/><path class="cls-2" d="M0,0Z"/><path class="cls-3" d="M0,0Z"/><path class="cls-4" d="M0,0Z"/><path class="cls-5" d="M0,0Z"/><path class="cls-6" d="M0,0Z"/><path class="cls-7" d="M0,0Z"/><path class="cls-8" d="M0,0Z"/><path class="cls-9" d="M0,0Z"/><path class="cls-10" d="M0,0Z"/><path class="cls-11" d="M0,0Z"/><path class="cls-12" d="M0,0Z"/><path class="cls-13" d="M0,0Z"/><path class="cls-4" d="M0,0Z"/><ellipse class="cls-14" cx="93" cy="75" rx="18" ry="17"/><ellipse class="cls-15" cx="93" cy="75" rx="16" ry="16"/><ellipse class="cls-14" cx="93" cy="75" rx="13" ry="12"/><ellipse class="cls-16" cx="93" cy="75" rx="11" ry="11"/><path class="cls-13" d="M0,0Z"/><ellipse class="cls-17" cx="93" cy="75" rx="11" ry="11"/><path class="cls-18" d="M0,0Z"/><path class="cls-19" d="M0,0Z"/><polygon class="cls-20" points="68 64 56 71 49 91 56 100 68 64"/><polygon class="cls-21" points="42 61 53 54 68 64 56 71 42 61"/><polygon class="cls-22" points="29 63 42 61 53 54 39 55 29 63"/><polygon class="cls-21" points="36 102 54 104 49 91 32 90 36 102"/><polygon class="cls-22" points="26 92 36 102 32 90 23 82 26 92"/><polygon class="cls-23" points="32 89 42 61 56 71 49 91 32 90 32 89"/><polygon class="cls-22" points="23 82 29 63 42 61 32 90 23 82"/><path class="cls-20" d="M0,0Z"/><path class="cls-22" d="M0,0Z"/><ellipse class="cls-24" cx="46" cy="27" rx="14" ry="9" transform="translate(6 61) rotate(-71)"/><path class="cls-25" d="M0,0Z"/><path class="cls-26" d="M0,0Z"/><path class="cls-26" d="M0,0Z"/><path class="cls-27" d="M0,0Z"/><path class="cls-28" d="M0,0Z"/><path class="cls-27" d="M0,0Z"/><path class="cls-29" d="M0,0Z"/><path class="cls-24" d="M0,0Z"/><path class="cls-25" d="M0,0Z"/><path class="cls-30" d="M0,0Z"/><circle class="cls-31" cx="69" cy="41" r="3"/><path class="cls-27" d="M0,0Z"/><path class="cls-32" d="M0,0Z"/><path d="M0,0Z"/><path class="cls-33" d="M0,0Z"/><path d="M0,0Z"/><path class="cls-34" d="M0,0Z"/><path class="cls-20" d="M0,0Z"/><path class="cls-20" d="M0,0Z"/><path class="cls-22" d="M0,0Z"/><path class="cls-22" d="M0,0Z"/><path class="cls-27" d="M0,0Z"/></g></g></svg>