<svg xmlns="http://www.w3.org/2000/svg" viewBox="0 0 41 81"><defs><style>.cls-1{fill:#666;}.cls-2{fill:#28292e;}.cls-3{fill:#b9bcba;}.cls-4{fill:#fbb03b;}.cls-5{fill:#e58126;}</style></defs><g id="Capa_2" data-name="Capa 2"><g id="Capa_1-2" data-name="Capa 1"><rect class="cls-1" x="33" width="2" height="33.73"/><rect class="cls-1" x="6" width="2" height="33.73"/><circle class="cls-2" cx="20" cy="31" r="15" transform="translate(-7 5) rotate(-13)"/><circle class="cls-3" cx="20" cy="31" r="12" transform="translate(-10 10) rotate(-22)"/><path class="cls-2" d="M0,0Z"/><polygon class="cls-1" points="25 26 20 26 15 26 0 38 15 62 20 62 25 62 41 38 25 26"/><polygon class="cls-4" points="0 38 3 42 11 29 0 38"/><polygon class="cls-4" points="20 26 19 26 6 47 9 52 25 26 20 26"/><polygon class="cls-4" points="29 29 12 57 15 61 33 32 29 29"/><polygon class="cls-4" points="25 62 41 38 37 35 20 62 20 62 25 62"/><path class="cls-2" d="M0,0Z"/><path class="cls-5" d="M0,0Z"/><path class="cls-5" d="M0,0Z"/><path class="cls-5" d="M0,0Z"/></g></g></svg>