<svg xmlns="http://www.w3.org/2000/svg" viewBox="0 0 146 153"><defs><style>.cls-1{fill:#aac9dc;}.cls-2{fill:#331a06;}.cls-3{fill:#b48c5c;}.cls-4{fill:#9e6125;}.cls-5{fill:#663524;}.cls-6{fill:#ce781b;}.cls-7{fill:#894018;}.cls-8{fill:#dfe5e9;}.cls-9{fill:#a8c8db;}.cls-10{fill:#015784;}.cls-11{fill:#f9ab78;}.cls-12{fill:#fabd8f;}.cls-13{fill:#e89022;}.cls-14{fill:#fbb13f;}.cls-15{fill:#dd7a26;}.cls-16{fill:#f6f182;}.cls-17{fill:#ee3f63;}.cls-18{fill:#f06d73;}.cls-19{fill:#fff;opacity:0.45;}.cls-20{fill:#124912;}.cls-21{fill:#f8ce5d;}.cls-22{fill:#0275bb;}.cls-23{fill:#eef0ee;}.cls-24{fill:#fece00;}.cls-25{fill:#fdef03;}.cls-26{fill:#fcffff;}.cls-27{fill:#fcfffe;}.cls-28{fill:#fdffff;}.cls-29{fill:#fbfcff;}</style></defs><g id="Capa_2" data-name="Capa 2"><g id="Capa_1-2" data-name="Capa 1"><path class="cls-1" d="M0,0ZM0,0Z"/><polygon class="cls-2" points="146 93 5 93 5 86 10 84 5 83 5 76 10 73 5 71 5 63 12 63 5 60 5 51 146 51 146 59 142 60 146 61 146 80 141 81 146 82 146 93"/><path class="cls-3" d="M0,0Z"/><polygon class="cls-2" points="142 94 0 94 0 87 5 85 0 84 0 77 6 74 0 72 0 64 8 64 0 61 0 52 142 52 142 60 138 61 142 62 142 81 137 82 142 83 142 94"/><path class="cls-4" d="M0,0Z"/><path class="cls-5" d="M0,0Z"/><path class="cls-5" d="M0,0Z"/><path class="cls-5" d="M0,0Z"/><rect class="cls-6" x="2" y="54" width="139" height="3.46"/><path class="cls-7" d="M0,0Z"/><ellipse class="cls-1" cx="107" cy="53" rx="8" ry="12" transform="translate(39 151) rotate(-81)"/><path class="cls-8" d="M0,0Z"/><path class="cls-8" d="M0,0Z"/><path class="cls-8" d="M0,0Z"/><path class="cls-8" d="M0,0Z"/><path class="cls-8" d="M0,0Z"/><path class="cls-8" d="M0,0Z"/><path class="cls-8" d="M0,0Z"/><path class="cls-8" d="M0,0Z"/><path class="cls-8" d="M0,0Z"/><path class="cls-8" d="M0,0Z"/><path class="cls-8" d="M0,0Z"/><path class="cls-8" d="M0,0Z"/><path class="cls-8" d="M0,0Z"/><path class="cls-1" d="M0,0Z"/><path class="cls-8" d="M0,0Z"/><path class="cls-9" d="M0,0Z"/><path class="cls-10" d="M0,0Z"/><path class="cls-11" d="M0,0Z"/><path class="cls-12" d="M0,0Z"/><path class="cls-13" d="M0,0Z"/><path class="cls-14" d="M0,0Z"/><path class="cls-13" d="M0,0Z"/><path class="cls-14" d="M0,0Z"/><path class="cls-15" d="M0,0Z"/><path class="cls-16" d="M0,0Z"/><path class="cls-10" d="M0,0Z"/><path class="cls-10" d="M0,0Z"/><path class="cls-17" d="M0,0Z"/><circle class="cls-18" cx="37" cy="74" r="3"/><circle class="cls-18" cx="79" cy="73" r="3"/><path d="M0,0Z"/><path class="cls-19" d="M0,0Z"/><path class="cls-19" d="M0,0Z"/><path class="cls-20" d="M0,0Z"/><path class="cls-16" d="M0,0Z"/><path class="cls-13" d="M0,0Z"/><path class="cls-14" d="M0,0Z"/><path class="cls-21" d="M0,0Z"/><path class="cls-13" d="M0,0Z"/><path class="cls-14" d="M0,0Z"/><path class="cls-21" d="M0,0Z"/><path class="cls-1" d="M0,0Z"/><path class="cls-1" d="M0,0Z"/><path class="cls-10" d="M0,0Z"/><path class="cls-8" d="M0,0Z"/><path class="cls-1" d="M0,0Z"/><path class="cls-22" d="M0,0Z"/><path class="cls-8" d="M0,0Z"/><path class="cls-1" d="M0,0Z"/><path class="cls-8" d="M0,0Z"/><path class="cls-8" d="M0,0Z"/><path class="cls-1" d="M0,0Z"/><path class="cls-1" d="M0,0Z"/><path class="cls-10" d="M0,0Z"/><ellipse class="cls-23" cx="53" cy="127" rx="5" ry="3" transform="matrix(0.19, -0.98, 0.98, 0.19, -81.6, 154.04)"/><path class="cls-1" d="M0,0Z"/><path class="cls-8" d="M0,0Z"/><path d="M0,0Z"/><path class="cls-24" d="M0,0Z"/><path class="cls-25" d="M0,0Z"/><path class="cls-26" d="M0,0Z"/><path class="cls-25" d="M0,0Z"/><path class="cls-25" d="M0,0Z"/><path class="cls-25" d="M0,0Z"/><path class="cls-25" d="M0,0Z"/><path class="cls-24" d="M0,0Z"/><path class="cls-24" d="M0,0Z"/><path class="cls-24" d="M0,0Z"/><path class="cls-27" d="M0,0Z"/><path class="cls-27" d="M0,0Z"/><path class="cls-28" d="M0,0Z"/><path class="cls-28" d="M0,0Z"/><path class="cls-29" d="M0,0Z"/></g></g></svg>