<svg xmlns="http://www.w3.org/2000/svg" viewBox="0 0 149 166"><defs><style>.cls-1{fill:#dfe5e9;}.cls-2{fill:#7589b9;}.cls-3{fill:#00558c;}.cls-4{fill:#f7251c;}.cls-5{fill:#c61a1a;}.cls-6{fill:#ffaaa6;}.cls-7{fill:#aac9dc;}.cls-8{fill:#015784;}.cls-9{fill:#a8c8db;}.cls-10{fill:#e89022;}.cls-11{fill:#fbb13f;}.cls-12{fill:#dd7a26;}.cls-13{fill:#f6f182;}.cls-14{fill:#fabd8f;}.cls-15{fill:#f06d73;}.cls-16{fill:#f9ab78;}.cls-17{fill:#ee3f63;}.cls-18,.cls-22{fill:#fff;}.cls-18{opacity:0.45;}.cls-19{fill:#f8ce5d;}.cls-20{fill:#0275bb;}.cls-21{fill:#eef0ee;}.cls-23{fill:#230b30;}.cls-24{fill:#def4f4;}.cls-25{fill:#fcfcf9;}.cls-26{fill:#fadf00;}.cls-27{fill:#d32ad3;}.cls-28{opacity:0.11;}</style></defs><g id="Capa_2" data-name="Capa 2"><g id="Capa_1-2" data-name="Capa 1"><path class="cls-1" d="M0,0Z"/><ellipse class="cls-2" cx="76" cy="86" rx="53" ry="65" transform="translate(-32 48) rotate(-29)"/><ellipse class="cls-3" cx="75" cy="81" rx="53" ry="65" transform="translate(-30 46) rotate(-29)"/><ellipse class="cls-4" cx="75" cy="81" rx="51" ry="63" transform="translate(-30 46) rotate(-29)"/><path class="cls-5" d="M0,0Z"/><path class="cls-6" d="M0,0Z"/><path class="cls-6" d="M0,0Z"/><polygon class="cls-5" points="67 117 67 118 54 103 37 111 56 95 67 117"/><polygon class="cls-5" points="92 130 94 121 105 116 114 118 105 106 86 116 91 129 92 130"/><path class="cls-1" d="M0,0Z"/><path class="cls-1" d="M0,0Z"/><path class="cls-1" d="M0,0Z"/><path class="cls-7" d="M0,0Z"/><path class="cls-8" d="M0,0Z"/><path class="cls-7" d="M0,0Z"/><path class="cls-1" d="M0,0Z"/><path class="cls-9" d="M0,0Z"/><path class="cls-8" d="M0,0Z"/><path class="cls-10" d="M0,0Z"/><path class="cls-11" d="M0,0Z"/><path class="cls-10" d="M0,0Z"/><path class="cls-11" d="M0,0Z"/><path class="cls-12" d="M0,0Z"/><path class="cls-13" d="M0,0Z"/><path class="cls-14" d="M0,0Z"/><circle class="cls-15" cx="44" cy="56" r="4"/><circle class="cls-15" cx="85" cy="32" r="4"/><path class="cls-16" d="M0,0Z"/><circle class="cls-15" cx="44" cy="56" r="4"/><circle class="cls-15" cx="85" cy="32" r="4"/><path d="M0,0Z"/><path d="M0,0Z"/><path class="cls-8" d="M0,0Z"/><path class="cls-17" d="M0,0Z"/><path class="cls-18" d="M0,0Z"/><path class="cls-18" d="M0,0Z"/><path class="cls-13" d="M0,0Z"/><path class="cls-10" d="M0,0Z"/><path class="cls-11" d="M0,0Z"/><path class="cls-19" d="M0,0Z"/><path class="cls-10" d="M0,0Z"/><path class="cls-11" d="M0,0Z"/><path class="cls-19" d="M0,0Z"/><path class="cls-7" d="M0,0Z"/><path class="cls-1" d="M0,0Z"/><path class="cls-7" d="M0,0Z"/><path class="cls-8" d="M0,0Z"/><path class="cls-7" d="M0,0Z"/><path class="cls-20" d="M0,0Z"/><path class="cls-1" d="M0,0Z"/><path class="cls-1" d="M0,0Z"/><path class="cls-1" d="M0,0Z"/><path class="cls-7" d="M0,0Z"/><path class="cls-7" d="M0,0Z"/><path class="cls-8" d="M0,0Z"/><ellipse class="cls-21" cx="99" cy="100" rx="3" ry="6" transform="translate(-41 87) rotate(-40)"/><path class="cls-7" d="M0,0Z"/><path class="cls-21" d="M0,0Z"/><path class="cls-22" d="M0,0Z"/><path class="cls-22" d="M0,0Z"/><path class="cls-22" d="M0,0Z"/><path class="cls-22" d="M0,0Z"/><path class="cls-23" d="M0,0Z"/><path class="cls-24" d="M0,0Z"/><path class="cls-25" d="M0,0Z"/><path class="cls-26" d="M0,0Z"/><path class="cls-27" d="M0,0Z"/><g class="cls-28"><path class="cls-23" d="M0,0Z"/><path class="cls-23" d="M0,0Z"/><path class="cls-24" d="M0,0Z"/></g></g></g></svg>