<svg xmlns="http://www.w3.org/2000/svg" viewBox="0 0 102 188"><defs><style>.cls-1{fill:#391b47;}.cls-2{fill:#ffd826;}.cls-3{fill:#b39219;}.cls-4{fill:#22102b;}.cls-5{fill:#f4c33b;}.cls-6{fill:#fbb13f;}.cls-7{fill:#e89022;}.cls-8{fill:#f8ce5d;}.cls-9{fill:#dfe5e9;}.cls-10{fill:#bfd4dd;}.cls-11{fill:#aac9dc;}.cls-12{fill:#b8d1dd;}.cls-13{fill:#f6f182;}.cls-14{fill:#015784;}.cls-15{fill:#a8c8db;}.cls-16{fill:#0275bb;}.cls-17{fill:#fabd8f;}.cls-18{fill:#fff;opacity:0.45;}.cls-19{fill:#62ace8;}.cls-20{fill:#050505;opacity:0.07;}.cls-21{fill:#f06d73;}.cls-22{fill:#38d6fe;}</style></defs><g id="Capa_2" data-name="Capa 2"><g id="Capa_1-2" data-name="Capa 1"><ellipse class="cls-1" cx="51" cy="138" rx="51" ry="49" transform="translate(-40 22) rotate(-18)"/><ellipse class="cls-2" cx="51" cy="138" rx="47" ry="45" transform="translate(-40 22) rotate(-18)"/><path class="cls-3" d="M0,0Z"/><ellipse class="cls-4" cx="17" cy="141" rx="8" ry="9" transform="translate(-22 4) rotate(-9)"/><ellipse class="cls-2" cx="16" cy="141" rx="8" ry="9" transform="translate(-22 4) rotate(-9)"/><ellipse class="cls-4" cx="16" cy="141" rx="7" ry="8" transform="translate(-22 4) rotate(-9)"/><ellipse class="cls-2" cx="15" cy="141" rx="6" ry="7" transform="translate(-22 4) rotate(-9)"/><path class="cls-3" d="M0,0Z"/><ellipse class="cls-4" cx="44" cy="168" rx="13" ry="14" transform="translate(-129 175) rotate(-77)"/><ellipse class="cls-2" cx="44" cy="170" rx="13" ry="14" transform="translate(-132 176) rotate(-77)"/><ellipse class="cls-4" cx="44" cy="171" rx="11" ry="12" transform="translate(-133 176) rotate(-77)"/><ellipse class="cls-2" cx="43" cy="172" rx="10" ry="11" transform="translate(-134 177) rotate(-77)"/><path class="cls-3" d="M0,0Z"/><ellipse class="cls-4" cx="24" cy="113" rx="6" ry="7" transform="translate(-90 130) rotate(-86)"/><ellipse class="cls-2" cx="24" cy="115" rx="6" ry="7" transform="translate(-92 131) rotate(-86)"/><ellipse class="cls-4" cx="24" cy="115" rx="5" ry="6" transform="translate(-92 132) rotate(-86)"/><ellipse class="cls-2" cx="24" cy="116" rx="5" ry="5" transform="translate(-93 132) rotate(-86)"/><path class="cls-3" d="M0,0Z"/><ellipse class="cls-4" cx="75" cy="129" rx="5" ry="5" transform="translate(-59 196) rotate(-86)"/><ellipse class="cls-2" cx="75" cy="130" rx="5" ry="5" transform="matrix(0.06, -1, 1, 0.06, -59.88, 196.57)"/><ellipse class="cls-4" cx="75" cy="130" rx="4" ry="5" transform="translate(-60 197) rotate(-86)"/><ellipse class="cls-2" cx="75" cy="131" rx="4" ry="4" transform="translate(-61 197) rotate(-86)"/><path class="cls-3" d="M0,0Z"/><ellipse class="cls-4" cx="86" cy="143" rx="5" ry="5" transform="translate(-79 164) rotate(-66)"/><ellipse class="cls-2" cx="87" cy="143" rx="5" ry="5" transform="translate(-79 165) rotate(-66)"/><ellipse class="cls-4" cx="87" cy="143" rx="5" ry="4" transform="translate(-79 166) rotate(-66)"/><ellipse class="cls-2" cx="88" cy="143" rx="4" ry="4" transform="translate(-79 166) rotate(-66)"/><path class="cls-3" d="M0,0Z"/><path class="cls-5" d="M0,0Z"/><path class="cls-6" d="M0,0Z"/><path class="cls-7" d="M0,0Z"/><path class="cls-8" d="M0,0Z"/><polygon class="cls-9" points="40 75 49 65 58 75 58 98 49 109 45 108 40 98 40 75"/><polygon class="cls-10" points="76 71 67 59 49 65 58 75 76 71"/><polygon class="cls-11" points="88 76 76 71 67 59 80 66 88 76"/><polygon class="cls-10" points="67 114 49 109 58 98 76 103 67 114"/><polygon class="cls-11" points="81 107 67 114 76 103 88 98 81 107"/><polygon class="cls-12" points="76 102 76 71 58 75 58 98 76 103 76 102"/><polygon class="cls-11" points="88 98 88 76 76 71 76 103 88 98"/><path class="cls-9" d="M0,0Z"/><path class="cls-11" d="M0,0Z"/><ellipse class="cls-6" cx="84" cy="35" rx="10" ry="15"/><path class="cls-7" d="M0,0Z"/><path class="cls-13" d="M0,0Z"/><path class="cls-13" d="M0,0Z"/><path class="cls-14" d="M0,0Z"/><path class="cls-15" d="M0,0Z"/><path class="cls-11" d="M0,0Z"/><path class="cls-16" d="M0,0Z"/><path class="cls-9" d="M0,0Z"/><path class="cls-14" d="M0,0Z"/><path class="cls-17" d="M0,0Z"/><path class="cls-18" d="M0,0Z"/><path class="cls-6" d="M0,0Z"/><path class="cls-7" d="M0,0Z"/><path class="cls-8" d="M0,0Z"/><path class="cls-1" d="M0,0Z"/><polygon class="cls-19" points="24 68 18 63 22 88 28 93 24 68"/><path class="cls-19" d="M0,0Z"/><polygon class="cls-19" points="29 69 48 65 53 90 34 95 29 69"/><path class="cls-19" d="M0,0Z"/><path class="cls-19" d="M0,0Z"/><path class="cls-20" d="M0,0Z"/><path class="cls-19" d="M0,0Z"/><path class="cls-20" d="M0,0Z"/><path class="cls-20" d="M0,0Z"/><ellipse class="cls-1" cx="41" cy="79" rx="10" ry="9"/><ellipse class="cls-2" cx="41" cy="79" rx="9" ry="8"/><path class="cls-3" d="M0,0Z"/><ellipse class="cls-4" cx="37" cy="76" rx="2" ry="2" transform="translate(-44 101) rotate(-81)"/><ellipse class="cls-2" cx="36" cy="76" rx="2" ry="2" transform="translate(-44 100) rotate(-81)"/><ellipse class="cls-4" cx="36" cy="76" rx="2" ry="2" transform="translate(-44 100) rotate(-81)"/><ellipse class="cls-2" cx="36" cy="76" rx="2" ry="2" transform="translate(-45 100) rotate(-81)"/><path class="cls-3" d="M0,0Z"/><ellipse class="cls-4" cx="39" cy="83" rx="3" ry="3" transform="translate(-52 75) rotate(-60)"/><ellipse class="cls-2" cx="39" cy="83" rx="3" ry="3" transform="translate(-53 75) rotate(-60)"/><ellipse class="cls-4" cx="39" cy="84" rx="3" ry="3" transform="translate(-53 75) rotate(-60)"/><ellipse class="cls-2" cx="39" cy="84" rx="2" ry="2" transform="translate(-53 75) rotate(-60)"/><path class="cls-3" d="M0,0Z"/><ellipse class="cls-4" cx="40" cy="72" rx="1" ry="2" transform="translate(-41 83) rotate(-69)"/><ellipse class="cls-2" cx="40" cy="72" rx="1" ry="2" transform="translate(-42 83) rotate(-69)"/><ellipse class="cls-4" cx="40" cy="72" rx="1" ry="1" transform="translate(-42 83) rotate(-69)"/><ellipse class="cls-2" cx="40" cy="72" rx="1" ry="1" transform="translate(-42 83) rotate(-69)"/><path class="cls-3" d="M0,0Z"/><circle class="cls-21" cx="58" cy="45" r="3"/><path d="M0,0Z"/><path d="M0,0Z"/><path class="cls-14" d="M0,0Z"/><path d="M0,0Z"/><path d="M0,0Z"/><path class="cls-9" d="M0,0Z"/><path class="cls-11" d="M0,0Z"/><path class="cls-9" d="M0,0Z"/><path class="cls-11" d="M0,0Z"/><path class="cls-11" d="M0,0Z"/><path class="cls-14" d="M0,0Z"/><ellipse class="cls-9" cx="21" cy="79" rx="4" ry="7" transform="matrix(0.98, -0.22, 0.22, 0.98, -16.81, 6.45)"/><path class="cls-11" d="M0,0Z"/><path class="cls-22" d="M0,0Z"/></g></g></svg>