<?xml version="1.0" encoding="utf-8"?>
<!-- Generator: Adobe Illustrator 26.0.0, SVG Export Plug-In . SVG Version: 6.00 Build 0)  -->
<svg version="1.1" id="Capa_1" xmlns="http://www.w3.org/2000/svg" xmlns:xlink="http://www.w3.org/1999/xlink" x="0px" y="0px"
	 viewBox="0 0 36.4 48.1" style="enable-background:new 0 0 36.4 48.1;" xml:space="preserve">
<style type="text/css">
	.st0{fill:#085880;}
	.st1{fill:#4F97C6;}
	.st2{fill:#1B597A;}
</style>
<g>
	<polygon class="st0" points="0,0 0,27.3 35.8,48.1 36.4,20.5 	"/>
	<polygon class="st1" points="0,0 0,4.5 36.3,25.2 36.4,20.5 	"/>
	<path class="st2" d="M4.5,18.4c0.5-1.8,1.5-3,4.2-2.3l19,10.8c0,0,3.7,2,3.5,6.2c-0.2,4.2-3,3.6-3,3.6L5.8,22.7
		C5.8,22.7,4.3,21.1,4.5,18.4z"/>
	<ellipse transform="matrix(0.9509 -0.3095 0.3095 0.9509 -6.0235 3.8782)" class="st1" cx="9.2" cy="20.9" rx="1.1" ry="1.9"/>
	<ellipse transform="matrix(0.9509 -0.3095 0.3095 0.9509 -6.4556 5.1837)" class="st1" cx="13.1" cy="22.9" rx="1.1" ry="1.9"/>
	<ellipse transform="matrix(0.9509 -0.3095 0.3095 0.9509 -7.1543 6.6767)" class="st1" cx="17.5" cy="25.9" rx="1.1" ry="1.9"/>
	<ellipse transform="matrix(0.9509 -0.3095 0.3095 0.9509 -1.029 0.7449)" class="st2" cx="1.8" cy="3.6" rx="0.5" ry="0.8"/>
	<ellipse transform="matrix(0.9509 -0.3095 0.3095 0.9509 -1.2207 1.3243)" class="st2" cx="3.6" cy="4.5" rx="0.5" ry="0.8"/>
	<ellipse transform="matrix(0.9509 -0.3095 0.3095 0.9509 -1.5308 1.9869)" class="st2" cx="5.5" cy="5.8" rx="0.5" ry="0.8"/>
	<ellipse transform="matrix(0.9509 -0.3095 0.3095 0.9509 -7.7015 8.1458)" class="st1" cx="21.8" cy="28.3" rx="1.1" ry="1.9"/>
	<ellipse transform="matrix(0.9509 -0.3095 0.3095 0.9509 -8.3686 9.7069)" class="st1" cx="26.4" cy="31.2" rx="1.1" ry="1.9"/>
</g>
</svg>
