<svg width="22" height="22" viewBox="0 0 22 22" fill="none" xmlns="http://www.w3.org/2000/svg">
<path d="M16.0772 8.98891C16.0715 8.56372 15.9919 8.14275 15.842 7.74484C15.7119 7.40921 15.5133 7.10439 15.2588 6.84987C15.0042 6.59535 14.6994 6.39672 14.3638 6.26667C13.971 6.11922 13.556 6.03949 13.1366 6.03088C12.5965 6.00674 12.4253 6 11.0543 6C9.68337 6 9.50765 6 8.97151 6.03088C8.55223 6.03955 8.13746 6.11928 7.74484 6.26667C7.40916 6.39663 7.10429 6.59522 6.84976 6.84976C6.59523 7.10429 6.39663 7.40916 6.26667 7.74484C6.11892 8.13734 6.03937 8.5522 6.03144 8.97151C6.0073 9.51214 6 9.68337 6 11.0543C6 12.4253 6 12.6004 6.03144 13.1371C6.03986 13.5571 6.11902 13.9714 6.26667 14.3649C6.39684 14.7005 6.59559 15.0052 6.85021 15.2597C7.10483 15.5141 7.40972 15.7126 7.7454 15.8425C8.13695 15.9959 8.55179 16.0813 8.97207 16.0952C9.5127 16.1193 9.68393 16.1266 11.0549 16.1266C12.4258 16.1266 12.6015 16.1266 13.1377 16.0952C13.5571 16.0869 13.9721 16.0074 14.3649 15.8599C14.7005 15.7297 15.0052 15.531 15.2597 15.2765C15.5142 15.022 15.7129 14.7173 15.8431 14.3818C15.9907 13.9888 16.0699 13.5745 16.0783 13.154C16.1025 12.6139 16.1098 12.4427 16.1098 11.0712C16.1086 9.70021 16.1086 9.52618 16.0772 8.98891V8.98891ZM11.0509 13.6469C9.61712 13.6469 8.45558 12.4853 8.45558 11.0515C8.45558 9.61768 9.61712 8.45614 11.0509 8.45614C11.7393 8.45614 12.3994 8.72958 12.8862 9.21631C13.3729 9.70303 13.6463 10.3632 13.6463 11.0515C13.6463 11.7398 13.3729 12.4 12.8862 12.8867C12.3994 13.3734 11.7393 13.6469 11.0509 13.6469V13.6469ZM13.7496 8.96533C13.6701 8.96541 13.5914 8.9498 13.5179 8.91942C13.4445 8.88903 13.3777 8.84445 13.3215 8.78824C13.2653 8.73203 13.2207 8.66528 13.1903 8.59182C13.16 8.51837 13.1443 8.43964 13.1444 8.36014C13.1444 8.2807 13.1601 8.20204 13.1905 8.12865C13.2209 8.05526 13.2654 7.98857 13.3216 7.9324C13.3778 7.87623 13.4445 7.83167 13.5178 7.80127C13.5912 7.77087 13.6699 7.75523 13.7493 7.75523C13.8288 7.75523 13.9074 7.77087 13.9808 7.80127C14.0542 7.83167 14.1209 7.87623 14.1771 7.9324C14.2332 7.98857 14.2778 8.05526 14.3082 8.12865C14.3386 8.20204 14.3542 8.2807 14.3542 8.36014C14.3542 8.69474 14.0836 8.96533 13.7496 8.96533Z" fill="#FAFBFD"/>
<path d="M11.0509 12.7374C11.982 12.7374 12.7368 11.9826 12.7368 11.0515C12.7368 10.1204 11.982 9.3656 11.0509 9.3656C10.1199 9.3656 9.36505 10.1204 9.36505 11.0515C9.36505 11.9826 10.1199 12.7374 11.0509 12.7374Z" fill="#FAFBFD"/>
<circle cx="11.1579" cy="10.5263" r="10.0263" stroke="#FAFBFD"/>
</svg>
