<svg width="30" height="30" viewBox="0 0 30 30" fill="none" xmlns="http://www.w3.org/2000/svg">
<g filter="url(#filter0_d_7_3)">
<path d="M20.0772 8.98891C20.0715 8.56372 19.9919 8.14275 19.842 7.74484C19.7119 7.40921 19.5133 7.10439 19.2588 6.84987C19.0042 6.59535 18.6994 6.39672 18.3638 6.26667C17.971 6.11922 17.556 6.03949 17.1366 6.03088C16.5965 6.00674 16.4253 6 15.0543 6C13.6834 6 13.5076 6 12.9715 6.03088C12.5522 6.03955 12.1375 6.11928 11.7448 6.26667C11.4092 6.39663 11.1043 6.59522 10.8498 6.84976C10.5952 7.10429 10.3966 7.40916 10.2667 7.74484C10.1189 8.13734 10.0394 8.5522 10.0314 8.97151C10.0073 9.51214 10 9.68337 10 11.0543C10 12.4253 10 12.6004 10.0314 13.1371C10.0399 13.5571 10.119 13.9714 10.2667 14.3649C10.3968 14.7005 10.5956 15.0052 10.8502 15.2597C11.1048 15.5141 11.4097 15.7126 11.7454 15.8425C12.1369 15.9959 12.5518 16.0813 12.9721 16.0952C13.5127 16.1193 13.6839 16.1266 15.0549 16.1266C16.4258 16.1266 16.6015 16.1266 17.1377 16.0952C17.5571 16.0869 17.9721 16.0074 18.3649 15.8599C18.7005 15.7297 19.0052 15.531 19.2597 15.2765C19.5142 15.022 19.7129 14.7173 19.8431 14.3818C19.9907 13.9888 20.0699 13.5745 20.0783 13.154C20.1025 12.6139 20.1098 12.4427 20.1098 11.0712C20.1086 9.70021 20.1086 9.52618 20.0772 8.98891ZM15.0509 13.6469C13.6171 13.6469 12.4556 12.4853 12.4556 11.0515C12.4556 9.61768 13.6171 8.45614 15.0509 8.45614C15.7393 8.45614 16.3994 8.72958 16.8862 9.21631C17.3729 9.70303 17.6463 10.3632 17.6463 11.0515C17.6463 11.7398 17.3729 12.4 16.8862 12.8867C16.3994 13.3734 15.7393 13.6469 15.0509 13.6469ZM17.7496 8.96533C17.6701 8.96541 17.5914 8.9498 17.5179 8.91942C17.4445 8.88903 17.3777 8.84445 17.3215 8.78824C17.2653 8.73203 17.2207 8.66528 17.1903 8.59182C17.16 8.51837 17.1443 8.43964 17.1444 8.36014C17.1444 8.2807 17.1601 8.20204 17.1905 8.12865C17.2209 8.05526 17.2654 7.98857 17.3216 7.9324C17.3778 7.87623 17.4445 7.83167 17.5178 7.80127C17.5912 7.77087 17.6699 7.75523 17.7493 7.75523C17.8288 7.75523 17.9074 7.77087 17.9808 7.80127C18.0542 7.83167 18.1209 7.87623 18.1771 7.9324C18.2332 7.98857 18.2778 8.05526 18.3082 8.12865C18.3386 8.20204 18.3542 8.2807 18.3542 8.36014C18.3542 8.69474 18.0836 8.96533 17.7496 8.96533Z" fill="#FAFBFD"/>
<path d="M15.0509 12.7374C15.982 12.7374 16.7368 11.9826 16.7368 11.0515C16.7368 10.1204 15.982 9.3656 15.0509 9.3656C14.1199 9.3656 13.3651 10.1204 13.3651 11.0515C13.3651 11.9826 14.1199 12.7374 15.0509 12.7374Z" fill="#FAFBFD"/>
<circle cx="15.1579" cy="10.5263" r="10.0263" stroke="#FAFBFD"/>
</g>
<defs>
<filter id="filter0_d_7_3" x="0" y="0" width="30" height="30" filterUnits="userSpaceOnUse" color-interpolation-filters="sRGB">
<feFlood flood-opacity="0" result="BackgroundImageFix"/>
<feColorMatrix in="SourceAlpha" type="matrix" values="0 0 0 0 0 0 0 0 0 0 0 0 0 0 0 0 0 0 127 0" result="hardAlpha"/>
<feOffset dy="4"/>
<feGaussianBlur stdDeviation="2"/>
<feComposite in2="hardAlpha" operator="out"/>
<feColorMatrix type="matrix" values="0 0 0 0 0 0 0 0 0 0 0 0 0 0 0 0 0 0 0.25 0"/>
<feBlend mode="normal" in2="BackgroundImageFix" result="effect1_dropShadow_7_3"/>
<feBlend mode="normal" in="SourceGraphic" in2="effect1_dropShadow_7_3" result="shape"/>
</filter>
</defs>
</svg>
