<svg width="22" height="22" viewBox="0 0 22 22" fill="none" xmlns="http://www.w3.org/2000/svg">
<circle cx="10.5263" cy="10.5263" r="10.0263" stroke="#FAFBFD"/>
<path fill-rule="evenodd" clip-rule="evenodd" d="M9.17318 8.08895H11.1279V9.06263C11.4095 8.50263 12.1316 7.99947 13.2163 7.99947C15.2958 7.99947 15.7895 9.11421 15.7895 11.1595V14.9474H13.6842V11.6253C13.6842 10.4605 13.4027 9.80368 12.6858 9.80368C11.6916 9.80368 11.2784 10.5116 11.2784 11.6247V14.9474H9.17318V8.08895ZM5.56318 14.8579H7.66845V7.99947H5.56318V14.8579ZM7.97003 5.76316C7.9701 5.93962 7.93511 6.11433 7.86707 6.27715C7.79904 6.43997 7.69932 6.58764 7.57371 6.71158C7.31918 6.96454 6.97466 7.10613 6.61582 7.10526C6.2576 7.10502 5.91387 6.96379 5.65897 6.7121C5.53382 6.58774 5.43444 6.43991 5.36652 6.27707C5.29861 6.11423 5.26349 5.93959 5.26318 5.76316C5.26318 5.40684 5.40529 5.06579 5.6595 4.81421C5.91418 4.56219 6.25805 4.42089 6.61634 4.42105C6.97529 4.42105 7.3195 4.56263 7.57371 4.81421C7.82739 5.06579 7.97003 5.40684 7.97003 5.76316Z" fill="#FAFBFD"/>
</svg>
