<svg width="99" height="40" viewBox="0 0 99 40" fill="none" xmlns="http://www.w3.org/2000/svg">
<path d="M10.3228 0H15.1219V25.7392C15.1219 28.6945 15.8463 30.9824 17.2951 32.603C18.7439 34.2236 20.7361 35.0816 23.2715 35.0816C25.8974 35.0816 27.9801 34.319 29.4289 32.6984C30.8777 31.0777 31.6927 28.7898 31.6927 25.7392C31.6927 22.8793 30.8777 20.5914 29.2478 18.9708C27.6179 17.3501 25.5352 16.4922 22.9093 16.4922C20.6455 16.4922 18.7439 17.1595 17.114 18.4941V13.4416C19.1062 12.2976 21.1888 11.7256 23.4526 11.7256C27.2557 11.7256 30.3344 12.9649 32.7793 15.5389C35.2241 18.1128 36.4918 21.4494 36.4918 25.7392C36.4918 30.2198 35.2241 33.6517 32.5982 36.0349C30.0628 38.5135 26.8029 39.6575 22.9093 39.6575C19.1967 39.6575 16.2085 38.4182 13.8542 35.8443C11.5905 33.2703 10.4133 29.9338 10.4133 25.6439V0H10.3228Z" fill="#FAFBFD"/>
<path d="M63.1137 39.1812H53.9681C50.0744 39.1812 47.1768 38.6092 45.5469 37.3699C44.0075 36.3212 43.0115 34.9866 42.6493 33.4612C42.1965 31.9359 42.0154 29.934 42.0154 27.4554V12.2976H46.724V27.4554C46.724 28.1227 46.724 28.6947 46.8146 29.1713C46.8146 29.648 46.9957 30.22 47.1768 30.9826C47.3579 31.7453 47.7201 32.3173 48.0823 32.7939C48.4445 33.2706 49.0783 33.6519 49.8028 34.0332C50.5272 34.4146 51.4327 34.6052 52.5193 34.6052H58.5861V12.2976H63.1137V39.1812Z" fill="#FAFBFD"/>
<path d="M84.4836 12.2977H89.645L83.2159 24.0235C87.5623 25.2628 89.7355 28.9807 89.7355 35.1772V39.1812H85.0269V35.0819C85.0269 32.6033 84.3025 30.6013 82.9442 29.2667C81.586 27.9321 79.5033 27.2647 76.9679 27.2647C76.1529 27.2647 75.338 27.3601 74.4325 27.4554V39.1812H69.7239V0H74.4325V23.0702C75.8813 22.8795 77.4206 22.8795 78.8695 23.0702L84.4836 12.2977Z" fill="#FAFBFD"/>
<path d="M5.16138 19.924C5.16138 21.4491 3.98422 22.593 2.62596 22.593C1.26771 22.593 0 21.3538 0 19.924C0 18.3988 1.17716 17.2549 2.53541 17.2549C3.89367 17.2549 5.16138 18.3988 5.16138 19.924Z" fill="#FAFBFD"/>
<path d="M98.7 19.9242C98.7 21.4495 97.5229 22.5935 96.1646 22.5935C94.7158 22.5935 93.6292 21.3542 93.6292 19.9242C93.6292 18.3989 94.8063 17.2549 96.1646 17.2549C97.5229 17.1596 98.7 18.3989 98.7 19.9242Z" fill="#FAFBFD"/>
</svg>
