<svg width="22" height="22" viewBox="0 0 22 22" fill="none" xmlns="http://www.w3.org/2000/svg">
<circle cx="10.5263" cy="10.5263" r="10.0263" stroke="#FAFBFD"/>
<path d="M15.7796 8.08553C15.72 7.87298 15.604 7.68054 15.4438 7.52868C15.279 7.37215 15.0771 7.26018 14.8571 7.20334C14.0337 6.98631 10.7347 6.98631 10.7347 6.98631C9.35937 6.97066 7.98439 7.03948 6.61752 7.19238C6.3975 7.25342 6.19597 7.36789 6.03086 7.52561C5.86863 7.68171 5.75112 7.87419 5.68973 8.08509C5.54228 8.87947 5.47063 9.68607 5.47576 10.494C5.4705 11.3012 5.54197 12.1075 5.68973 12.9029C5.7498 13.1129 5.86687 13.3045 6.02954 13.4593C6.19221 13.6141 6.39478 13.7259 6.61752 13.7851C7.45191 14.0017 10.7347 14.0017 10.7347 14.0017C12.1117 14.0174 13.4885 13.9485 14.8571 13.7956C15.0771 13.7388 15.279 13.6268 15.4438 13.4703C15.6039 13.3185 15.7198 13.126 15.7792 12.9134C15.9305 12.1194 16.0041 11.3124 15.9989 10.5041C16.0102 9.69232 15.9368 8.88159 15.7796 8.08509V8.08553ZM9.68588 11.9953V8.99315L12.4306 10.4944L9.68588 11.9953Z" fill="#FAFBFD"/>
</svg>
